<?xml version="1.0" encoding="utf-8"?>
<!-- Generator: Adobe Illustrator 21.0.1, SVG Export Plug-In . SVG Version: 6.00 Build 0)  -->
<svg version="1.1" id="Слой_1" xmlns="http://www.w3.org/2000/svg" xmlns:xlink="http://www.w3.org/1999/xlink" x="0px" y="0px"
	 viewBox="0 0 529 504" style="enable-background:new 0 0 529 504;" xml:space="preserve">
<style type="text/css">
	.st0{fill:none;stroke:#C6D5E1;}
	.st1{fill:#2789E8;}
	.st2{fill:#4D4F4F;}
	.st3{fill:#C6D5E1;}
</style>
<path class="st0" d="M504,241H393"/>
<path class="st0" d="M444,345h-63"/>
<path class="st0" d="M503,494.4H371"/>
<path class="st1" d="M503.1,495.4c0.2,0.2,0.5,0.2,0.7,0l3.2-3.2c0.2-0.2,0.2-0.5,0-0.7s-0.5-0.2-0.7,0l-2.8,2.8l-2.8-2.8
	c-0.2-0.2-0.5-0.2-0.7,0s-0.2,0.5,0,0.7L503.1,495.4z M503.9,240.6c-0.2-0.2-0.5-0.2-0.7,0l-3.2,3.2c-0.2,0.2-0.2,0.5,0,0.7
	s0.5,0.2,0.7,0l2.8-2.8l2.8,2.8c0.2,0.2,0.5,0.2,0.7,0s0.2-0.5,0-0.7L503.9,240.6z M504,495V241h-1v254H504z"/>
<path class="st1" d="M443.6,345.4c0.2,0.2,0.5,0.2,0.7,0l3.2-3.2c0.2-0.2,0.2-0.5,0-0.7s-0.5-0.2-0.7,0l-2.8,2.8l-2.8-2.8
	c-0.2-0.2-0.5-0.2-0.7,0s-0.2,0.5,0,0.7L443.6,345.4z M444.4,240.6c-0.2-0.2-0.5-0.2-0.7,0l-3.2,3.2c-0.2,0.2-0.2,0.5,0,0.7
	s0.5,0.2,0.7,0l2.8-2.8l2.8,2.8c0.2,0.2,0.5,0.2,0.7,0s0.2-0.5,0-0.7L444.4,240.6z M444.5,345V241h-1v104H444.5z"/>
<path class="st2" d="M424.3,223.2c-0.4-5.1-0.6-10.2-0.6-15.3c-0.1-9.6-0.5-19.2-2.6-28.6c-0.3-1.3-0.6-2.7-1-4
	c-0.9-2.8-1.9-5.6-2.5-8.5c-1.2-5.8-1.6-11.8-1.9-17.7c-0.1-1.9-0.2-3.7-0.4-5.6c-0.2-3.4-0.9-6.7-0.9-10.1c0-3.5,0-6.8-0.5-10.3
	c-0.4-2.7-0.4-5.5-0.7-8.2c-0.4-2.9-0.9-5.7-1.6-8.5c-0.4-2-1-4-1.7-6c-0.9-2.4-2.2-4.5-3.8-6.5c-3.1-3.7-7.6-5.5-12.1-6.8
	c-4.7-1.3-9.2-2.4-13.7-4.2c-2.6-1.1-5.2-2.5-7.3-4.3c-1.2-1-2.2-2-2.9-3.4c-0.6-1.2-1-2.4-1.6-3.5c-0.1-0.2-0.2-0.5-0.2-0.7
	c0-0.7,2.4-1.2,3-1.8c-0.2-0.1-0.4-0.2-0.7-0.4c-0.4-0.2-0.9-0.5-1.3-0.9c-0.2-0.2-0.3-0.4-0.2-0.6c0.1-0.2,0.4-0.2,0.6-0.2
	c1,0,2,0.1,3,0.1c0.3,0,0.6,0,0.9-0.2c0.2-0.1,0.3-0.4,0.5-0.4c0.2-0.1,0.5-0.1,0.7-0.1c0.4-0.1,0.9-0.3,1.2-0.6
	c0.9-0.6,1.7-1.1,2.6-1.7c0.2-0.1,0.4-0.3,0.4-0.6c0-0.2-0.1-0.3-0.3-0.4c-0.7-0.7-1.5-1.4-2.2-2.1c-0.2-0.2-0.4-0.4-0.5-0.7
	c-0.2-0.9,1.1-1.1,1.7-1.1c0.7,0,1.6,0.1,2.3,0.1c0.6,0,1.1,0,1.6-0.1s1-0.6,1.2-1.1c-0.6-0.6-1.3-1.2-2.1-1.6c1-0.2,2-0.4,3-0.6
	c-0.7-0.7-1.4-1.3-1.9-2.2c-0.9-1.7-0.3-3.5,0.6-5.1c0.9-1.9,1.3-3.9,1.7-5.9c0.1-0.7,0.2-1.4,0.3-2.1c0.3-3.7-0.6-8-1.4-11.6
	c-1.4-6.2-3.4-12.8-6.5-18.4c-1.7-3.2-4.2-5.6-7.2-7.5c-1-0.6-2.1-1.2-3.2-1.5c-0.3-0.1-0.6-0.1-0.9-0.3c-0.2-0.1-0.4-0.4-0.7-0.5
	c-0.5-0.2-1.1,0.1-1.6-0.1c-0.2-0.1-0.4-0.3-0.6-0.4c-0.3-0.2-0.6-0.2-1-0.2c-1.6-0.1-3.1,0.1-4.7,0.4V0.2c-0.1,0.1-0.1,0.1-0.1,0.2
	c-0.7,0.1-1.4,0.2-2.1,0.3c-0.7-0.1-1.4-0.2-2.1-0.3c-0.1-0.1-0.1-0.1-0.1-0.2v0.2c-1.6-0.2-3.1-0.6-4.7-0.4c-0.3,0-0.7,0.1-1,0.2
	c-0.2,0.1-0.4,0.3-0.6,0.4c-0.5,0.2-1.1-0.1-1.6,0.1c-0.3,0.1-0.5,0.3-0.7,0.5c-0.2,0.1-0.6,0.2-0.9,0.3c-1.1,0.3-2.2,0.9-3.2,1.5
	c-3,1.9-5.4,4.4-7.2,7.5c-3,5.6-5.1,12.2-6.5,18.4c-0.9,3.6-1.8,7.9-1.4,11.6c0.1,0.7,0.2,1.4,0.3,2.1c0.4,2.1,0.7,4,1.7,5.9
	c0.9,1.6,1.5,3.4,0.6,5.1c-0.4,0.8-1.2,1.5-1.9,2.2c1,0.2,2,0.4,3,0.6c-0.7,0.5-1.4,1.1-2.1,1.6c0.1,0.5,0.6,0.9,1.2,1.1
	c0.6,0.2,1.1,0.1,1.6,0.1c0.7,0,1.6-0.1,2.3-0.1c0.6,0,1.9,0.2,1.7,1.1c-0.1,0.2-0.2,0.5-0.5,0.7c-0.7,0.7-1.5,1.4-2.2,2.1
	c-0.1,0.1-0.2,0.2-0.3,0.4c0,0.2,0.2,0.4,0.4,0.6c0.9,0.6,1.7,1.1,2.6,1.7c0.4,0.2,0.7,0.5,1.2,0.6c0.2,0,0.5,0,0.7,0.1
	s0.3,0.3,0.5,0.4c0.2,0.2,0.6,0.2,0.9,0.2c1,0,2-0.1,3-0.1c0.2,0,0.5,0,0.6,0.2s-0.1,0.4-0.2,0.6c-0.4,0.4-0.8,0.6-1.3,0.9
	c-0.2,0.1-0.4,0.2-0.7,0.4c0.6,0.6,3,1.1,3,1.8c0,0.2-0.1,0.5-0.2,0.7c-0.6,1.2-1,2.4-1.6,3.5c-0.7,1.4-1.7,2.4-2.9,3.4
	c-2.2,1.9-4.7,3.2-7.3,4.3c-4.5,1.9-9,2.9-13.7,4.2c-4.5,1.3-9,3.2-12.1,6.8c-1.6,1.9-2.9,4.2-3.8,6.5c-0.7,1.9-1.3,3.9-1.7,6
	c-0.6,2.8-1.2,5.7-1.6,8.5c-0.4,2.7-0.3,5.5-0.7,8.2c-0.5,3.4-0.5,6.8-0.5,10.3c0,3.4-0.6,6.7-0.9,10.1c-0.1,1.9-0.2,3.7-0.4,5.6
	c-0.3,6-0.7,11.9-1.9,17.7c-0.6,2.9-1.6,5.7-2.4,8.5c-0.4,1.3-0.7,2.6-1,4c-2.1,9.4-2.5,19-2.6,28.6c-0.1,5.1-0.2,10.2-0.6,15.3
	c-0.1,1.7-0.1,3.5-0.1,5.2c0,3.7,0,7.3,0,11c0,1.6,0,3.2,0.1,4.7c0.1,1.9,0.5,3.9,0.6,5.8c0.1,1.8-0.1,3.5,0.2,5.3
	c0.2,1.4,0.5,2.8,0.7,4.2c0.1,0.6,0.2,1.2,0.2,1.9c0.1,0.6,0.2,1.1,0.3,1.6c0.7,3.4,2.1,6.8,3.7,9.8c0.4,0.7,0.9,1.4,1.3,2.1
	c0.3,0.5,0.6,1,0.9,1.5c1.1,1.6,2.2,3.3,3.6,4.6c0.9,0.8,2.1,1.4,3.2,1c0.1-0.1,0.3-0.1,0.4-0.2s0.1-0.4,0.2-0.6
	c0.1-0.7,0.1-1.4-0.2-2.1c-0.4-0.8-1.1-1.3-1.5-2.1c-0.4-0.9-0.6-1.9-0.9-2.8c-0.1-0.2-0.2-0.4-0.2-0.7c-0.1-0.4-0.3-0.7-0.4-1.1
	c-0.5-1.4-0.8-2.8-1.1-4.2c-0.2-1.1-0.5-2.2,0.6-3.1c0.6-0.4,0.7,0.6,1,0.9c0.4,0.6,0.6,1.2,0.9,1.9c0.2,0.6,0.4,1.2,0.6,1.7
	c0.2,0.4,0.5,0.9,0.7,1.4c0.2,0.4,0.2,0.9,0.6,1.4c0.4,0.6,1.2,1,2,0.9c0.1,0,0.2-0.1,0.4-0.2c0.1-0.1,0.1-0.2,0.1-0.4
	c-0.1-3.2-0.1-6.3-0.3-9.6c-0.1-0.6-0.1-1.1-0.1-1.7c-0.2-2.1-0.3-4.1-0.7-6.2c-0.7-3.4-2.4-6.4-3.8-9.6c-1.6-3.9-1.9-7.1-1-11.1
	c0.2-0.9,0.4-1.9,0.7-2.8c0.2-1.1,0.5-2.2,0.8-3.4c0.7-3,1.4-5.9,2.1-8.9c0.4-1.4,0.7-2.9,1-4.3c0.9-3.8,1.9-7.6,2.9-11.4
	c0.4-1.6,0.7-3.1,1-4.7c0.2-1.2,0.4-2.4,0.5-3.6c0.4-3,0.7-6.2,1.1-9.2c0.5-4.2,1.1-8.3,1.6-12.5c0.2-2.2,0.4-4.4,0.7-6.5
	c1.1-7.9,4.6-15.7,4.7-23.7c0-0.6,0.2-0.9,0.9-0.8c0.2,0.1,0.4,0.1,0.7,0.1c1.1,2.4,2.9,4.4,4.5,6.4c0.9,1.4,1.5,3,1.9,4.7
	c0.3,1.2,0.5,2.4,0.7,3.5c0.1,0.9,0.3,1.9,0.5,2.9c1.2,7.8,1.6,15.7,0.2,23.5c-0.2,1.1-0.4,2.3-0.6,3.4c-0.2,1.5-0.6,2.9-0.9,4.4
	c-0.2,0.8-0.4,1.6-0.6,2.4c-0.4,1.4-0.7,2.7-1.1,4c-1.6,5.6-3.4,11.2-5.2,16.7c-0.4,1.2-0.7,2.4-1.1,3.5c-1.7,5.5-2.9,11.1-3.7,16.9
	c-0.7,5.1-1.1,10.3-1.4,15.4c-0.5,9.8,0.1,20,1.9,29.6c2.9,15.7,8.3,30.8,12,46.4c0.4,1.4,0.7,2.9,0.9,4.3c0.9,5.4,0.7,11,0.6,16.5
	c-0.1,5.9-0.4,11.6-0.9,17.4c0,0.4-0.1,0.9-0.1,1.4c-0.4,6.6-0.5,13.1,0.2,19.7c0.4,3,0.7,6,1.1,9.1c0.6,4,1.3,8,2.1,12
	c0.2,1.1,0.5,2.2,0.7,3.3c0.6,2.4,1.1,4.7,1.6,7.1c0.2,1.2,0.5,2.3,0.8,3.5c1.2,5.1,2.3,10.3,3.2,15.4c0.2,1.2,0.4,2.5,0.7,3.7
	c0.3,1.8,0.6,3.6,1,5.4c0.4,2.4,0.8,4.7,1.2,7.1c0.4,2.4,0.7,4.7,1.1,7.2c0.9,6.8,1.9,14.8-0.2,21.6c-0.6,2.1-1.3,4.2-1.9,6.3
	c-0.2,0.7-0.5,1.6-0.7,2.3c-0.2,0.9-0.6,1.7-0.8,2.7c-0.4,1.4-0.8,2.9-0.2,4.2c0.6,1,1.6,1.6,2.7,2c3.2,1.2,9.2,2.6,11.8-0.6
	c0.7-0.9,0.9-2.2,1.4-3.4c0.2-0.5,0.5-1,0.7-1.5c0.9-2.5,0.2-6.1,0.3-8.7c0-3.2,0.1-6.3,0.1-9.5c0-8.8-0.1-17.5-0.1-26.3
	c0-9.1,0.6-18.2,1.3-27.4c0.3-4.7,0.6-9.4,0.9-14.1c0.3-4.6,0.1-9.1,0.1-13.7c0-4.2,0.2-8.3,0-12.5c-0.2-3.7-0.4-7.3-0.6-11
	c-0.2-4.3-0.2-8.7-0.7-12.9c-0.5-3.7,0.4-7.3,0.5-11c0.1-3.3,0.1-6.7-0.2-10c-0.1-1.1-0.2-2.1-0.3-3.1c-0.7-8.1-0.6-16.6-0.1-24.6
	c0.1-1.3,0.2-2.7,0.4-4c0.2-1.6,0.3-3.2,0.5-4.9c0.5-4,1.2-8,1.4-12c0.2-3.9,0.5-7.8,0.8-11.8c0.2-2.4,0.6-4.9,0.7-7.3
	c0-0.1,0.2-0.3,0.3-0.4c0.1,0.1,0.3,0.3,0.3,0.4c0.1,2.4,0.5,4.9,0.7,7.3c0.3,3.9,0.6,7.8,0.8,11.8c0.2,4,0.9,8,1.4,12
	c0.2,1.6,0.4,3.2,0.5,4.9c0.1,1.3,0.2,2.7,0.4,4c0.6,8.1,0.7,16.6-0.1,24.6c-0.1,1.1-0.2,2.1-0.3,3.1c-0.3,3.3-0.4,6.6-0.2,10
	c0.1,3.7,1,7.3,0.5,11c-0.6,4.3-0.6,8.7-0.7,12.9c-0.2,3.7-0.4,7.3-0.6,11c-0.2,4.2,0,8.3,0,12.5c0,4.6-0.1,9.1,0.1,13.7
	c0.3,4.7,0.6,9.4,0.9,14.1c0.6,9.1,1.3,18.2,1.3,27.4c0,8.8-0.1,17.6-0.1,26.3c0,3.2,0,6.3,0.1,9.5c0,2.6-0.6,6.2,0.3,8.7
	c0.2,0.5,0.4,1,0.7,1.5c0.5,1.1,0.7,2.4,1.4,3.4c2.6,3.2,8.6,1.9,11.8,0.6c1.1-0.4,2.2-1,2.7-2c0.7-1.2,0.2-2.8-0.2-4.2
	c-0.2-0.9-0.6-1.7-0.8-2.7c-0.2-0.7-0.5-1.6-0.7-2.3c-0.6-2.1-1.3-4.2-1.9-6.3c-2.1-6.7-1.1-14.7-0.2-21.6c0.3-2.4,0.7-4.8,1.1-7.2
	c0.4-2.4,0.8-4.7,1.2-7.1c0.3-1.8,0.6-3.6,1-5.4c0.2-1.2,0.4-2.5,0.7-3.7c0.9-5.2,2.1-10.3,3.2-15.4c0.2-1.2,0.5-2.3,0.8-3.5
	c0.6-2.4,1.1-4.7,1.6-7.1c0.2-1.1,0.5-2.2,0.7-3.3c0.9-4,1.6-8,2.1-12c0.4-3,0.7-6,1.1-9.1c0.7-6.6,0.6-13.1,0.2-19.7
	c0-0.4-0.1-0.9-0.1-1.4c-0.5-5.8-0.7-11.6-0.9-17.4c-0.1-5.5-0.4-11.1,0.6-16.5c0.2-1.4,0.6-2.9,0.9-4.3c3.7-15.6,9.1-30.6,12-46.4
	c1.8-9.7,2.4-19.9,1.9-29.6c-0.2-5.2-0.7-10.3-1.4-15.4c-0.8-5.7-2.1-11.3-3.7-16.9c-0.4-1.2-0.7-2.4-1.1-3.5
	c-1.8-5.5-3.7-11.1-5.2-16.7c-0.4-1.4-0.7-2.7-1.1-4c-0.2-0.8-0.4-1.6-0.6-2.4c-0.3-1.5-0.7-2.9-0.9-4.4c-0.2-1.1-0.4-2.3-0.6-3.4
	c-1.4-7.8-1.1-15.7,0.2-23.5c0.1-0.9,0.3-1.9,0.5-2.9c0.2-1.2,0.4-2.4,0.7-3.5c0.4-1.6,1.1-3.2,1.9-4.7c1.6-2.1,3.4-4,4.5-6.4
	c0.2,0,0.4,0,0.7-0.1c0.6-0.1,0.9,0.2,0.9,0.8c0.1,8,3.5,15.8,4.7,23.7c0.3,2.2,0.4,4.4,0.7,6.5c0.5,4.2,1.1,8.3,1.6,12.5
	c0.4,3,0.7,6.2,1.1,9.2c0.1,1.2,0.3,2.4,0.5,3.6c0.2,1.6,0.6,3.2,1,4.7c0.9,3.8,2,7.6,2.9,11.4c0.3,1.4,0.7,2.9,1,4.3
	c0.7,3,1.4,5.9,2.1,8.9c0.2,1.1,0.5,2.2,0.8,3.4c0.2,0.9,0.4,1.9,0.7,2.8c0.9,4,0.6,7.3-0.9,11.1c-1.3,3.2-3,6.2-3.7,9.6
	c-0.4,2-0.6,4.1-0.7,6.2c-0.1,0.6-0.1,1.1-0.1,1.7c-0.2,3.2-0.3,6.3-0.3,9.6c0,0.1,0,0.3,0.1,0.4s0.2,0.1,0.4,0.2
	c0.7,0.1,1.6-0.2,2-0.9c0.2-0.4,0.4-0.9,0.6-1.4s0.5-0.9,0.7-1.4c0.2-0.6,0.4-1.2,0.6-1.7c0.2-0.7,0.5-1.3,0.9-1.9
	c0.2-0.4,0.4-1.3,1-0.9c1.1,0.7,0.8,1.9,0.6,3.1c-0.2,1.4-0.6,2.9-1.1,4.2c-0.1,0.4-0.3,0.7-0.4,1.1c-0.1,0.2-0.2,0.4-0.2,0.7
	c-0.4,0.9-0.5,1.9-0.9,2.8c-0.4,0.8-1.2,1.3-1.5,2.1c-0.3,0.6-0.2,1.4-0.2,2.1c0,0.2,0.1,0.4,0.2,0.6c0.1,0.1,0.2,0.2,0.4,0.2
	c1.1,0.3,2.4-0.2,3.2-1c1.4-1.3,2.6-3,3.6-4.6c0.3-0.5,0.6-0.9,0.9-1.5c0.4-0.7,0.9-1.4,1.3-2.1c1.6-3,3-6.4,3.7-9.8
	c0.1-0.5,0.2-1.1,0.3-1.6c0.1-0.6,0.2-1.2,0.2-1.9c0.2-1.4,0.4-2.8,0.7-4.2c0.3-1.8,0.1-3.5,0.2-5.3c0.1-1.9,0.4-3.9,0.6-5.8
	c0.1-1.6,0.1-3.2,0.1-4.7c0-3.7,0-7.3,0-11C424.5,226.7,424.5,224.9,424.3,223.2z"/>
<circle class="st3" cx="285" cy="243" r="2"/>
<circle class="st3" cx="324" cy="346" r="2"/>
<circle class="st3" cx="337" cy="473" r="2"/>
<path class="st0" d="M289,177l-70-70H21"/>
<circle class="st3" cx="289" cy="177" r="2"/>
<path class="st0" d="M287,177h22.5"/>
<path class="st0" d="M283,243h15"/>
<path class="st0" d="M0,191h233l52,52"/>
<path class="st0" d="M19,390.5h259.5l45-45H351"/>
<path class="st0" d="M351,473H16"/>
</svg>
