<?xml version="1.0" encoding="utf-8"?>
<!-- Generator: Adobe Illustrator 21.0.1, SVG Export Plug-In . SVG Version: 6.00 Build 0)  -->
<svg version="1.1" id="Слой_1" xmlns="http://www.w3.org/2000/svg" xmlns:xlink="http://www.w3.org/1999/xlink" x="0px" y="0px"
	 viewBox="0 0 529 500" style="enable-background:new 0 0 529 500;" xml:space="preserve">
<style type="text/css">
	.st0{fill:none;stroke:#C6D5E1;}
	.st1{fill:#2789E8;}
	.st2{clip-path:url(#SVGID_2_);}
	.st3{fill:#4D4F4F;}
	.st4{fill:#C6D5E1;}
</style>
<path class="st0" d="M504,253H393"/>
<path class="st0" d="M444,346.5h-63"/>
<path class="st0" d="M503,490.4H371"/>
<path class="st1" d="M503.1,491.4c0.2,0.2,0.5,0.2,0.7,0l3.2-3.2c0.2-0.2,0.2-0.5,0-0.7s-0.5-0.2-0.7,0l-2.8,2.8l-2.8-2.8
	c-0.2-0.2-0.5-0.2-0.7,0s-0.2,0.5,0,0.7L503.1,491.4z M503.9,252.6c-0.2-0.2-0.5-0.2-0.7,0l-3.2,3.2c-0.2,0.2-0.2,0.5,0,0.7
	s0.5,0.2,0.7,0l2.8-2.8l2.8,2.8c0.2,0.2,0.5,0.2,0.7,0s0.2-0.5,0-0.7L503.9,252.6z M504,491V253h-1v238H504z"/>
<path class="st1" d="M443.6,346.9c0.2,0.2,0.5,0.2,0.7,0l3.2-3.2c0.2-0.2,0.2-0.5,0-0.7s-0.5-0.2-0.7,0l-2.8,2.8l-2.8-2.8
	c-0.2-0.2-0.5-0.2-0.7,0s-0.2,0.5,0,0.7L443.6,346.9z M444.4,252.6c-0.2-0.2-0.5-0.2-0.7,0l-3.2,3.2c-0.2,0.2-0.2,0.5,0,0.7
	s0.5,0.2,0.7,0l2.8-2.8l2.8,2.8c0.2,0.2,0.5,0.2,0.7,0s0.2-0.5,0-0.7L444.4,252.6z M444.5,346.5V253h-1v93.5H444.5z"/>
<g>
	<g>
		<g>
			<defs>
				<rect id="SVGID_1_" x="276" width="157" height="500"/>
			</defs>
			<clipPath id="SVGID_2_">
				<use xlink:href="#SVGID_1_"  style="overflow:visible;"/>
			</clipPath>
			<g class="st2">
				<path class="st3" d="M433.1,261c0-4.5-0.2-8.8-1.2-13.1c-0.3-1.3-0.7-2.6-0.9-3.9c-0.5-2.7-0.3-5.5-0.1-8.3
					c0.2-5.5,0.2-11,0.2-16.5c0-1.9,0-3.9-0.2-5.8c-0.4-4.9-0.5-9.9-0.7-14.8c-0.2-5.2-0.3-10.5-0.7-15.7c-0.1-1.4-0.3-2.8-0.5-4.2
					c-0.6-5.7-0.8-11.1-2.1-16.7c-0.8-3.5-1.8-6.9-2.7-10.5c-2-8.6-0.4-17.2-1.7-25.8c-0.5-3.6-1.1-7.3-2-10.9
					c-1.3-4.8-3.4-9.3-6.5-13.2c-3.7-4.9-8-8-13.4-10.7c-4.8-2.4-9.6-5.2-14.5-7.2c-1.1-0.4-2.1-0.8-3.1-1.4c-1.1-0.6-2.1-1.3-3-2
					c-4.4-3.3-8.5-7.2-10.7-12.3c-0.2-0.5-0.6-1-0.7-1.7c-0.2-1.4,1.7-3.3,2.4-4.5c0.4-0.7,0.9-1.4,1.1-2.3c0.1-0.4,0.2-0.7,0.3-1.1
					c0.1-0.2,0.2-0.5,0.4-0.7c0.7-1.4,1.2-2.9,2.8-3.3c1.7-0.4,2-2.1,2.3-3.6c0.4-1.8,1.1-3.6,1.5-5.5c0.2-0.9,0.4-1.8,0.5-2.7
					c0.1-0.8,0.2-1.9-0.1-2.7c-0.1-0.3-0.4-0.6-0.7-0.8c-0.6-0.3-1.2-0.2-1.2-1c-0.1-0.8,0.5-2.1,0.7-2.9c0.8-4,1.1-8.1,1.1-12.2
					c0-3.9,0-8.6-2.8-11.8c-0.6-0.7-1.4-1.2-2.3-1.2c-0.1-0.7-0.1-1.3-0.2-1.9c-1.5-0.3-3.3,0.4-4.6-0.4c-1-0.5-1.5-1.7-2.4-2.3
					c-0.5-0.3-1.1-0.4-1.5-0.8c-0.2-0.2-0.4-0.5-0.7-0.7C364.5,4,363.9,4,363.3,4c-1.7,0.1-3.4,0.2-5,0V2.7c-0.9,0-5.2,1.4-5.2,1.4
					c-1.7,0.2-3.4,0.1-5,0c-0.6,0-1.2,0-1.7,0.4c-0.2,0.2-0.4,0.5-0.7,0.7c-0.5,0.4-1.1,0.5-1.5,0.8c-1,0.5-1.5,1.7-2.4,2.3
					c-1.4,0.8-4.8,1.7-4.9,2.3c-0.9,0.1-1.7,0.6-2.3,1.2c-2.7,3.1-2.7,7.8-2.8,11.8c0,4,0.2,8.1,1.1,12.2c0.2,0.8,0.8,2.1,0.7,2.9
					c-0.1,0.8-0.7,0.7-1.2,1c-0.3,0.2-0.5,0.5-0.7,0.8c-0.3,0.8-0.2,1.9-0.1,2.7c0.1,1,0.2,1.8,0.5,2.7c0.5,1.8,1.1,3.6,1.5,5.5
					c0.3,1.5,0.6,3.2,2.3,3.6c1.5,0.4,2.1,1.8,2.8,3.3c0.1,0.2,0.2,0.5,0.4,0.7c0.1,0.4,0.2,0.7,0.3,1.1c0.2,0.8,0.7,1.5,1.1,2.3
					c0.7,1.1,2.6,3,2.4,4.5c-0.1,0.7-0.4,1.1-0.7,1.7c-2.3,5.1-6.4,9-10.8,12.3c-0.9,0.7-2,1.4-3,2c-1,0.5-2.1,1-3.1,1.4
					c-5,2-9.7,4.8-14.6,7.2c-5.4,2.7-9.7,5.8-13.4,10.7c-3,3.9-5.2,8.4-6.5,13.2c-1,3.6-1.5,7.2-2,10.9c-1.2,8.6,0.4,17.3-1.7,25.8
					c-0.8,3.6-1.8,7-2.7,10.5c-1.4,5.6-1.6,11-2.1,16.7c-0.1,1.4-0.4,2.8-0.5,4.2c-0.4,5.2-0.5,10.5-0.7,15.7
					c-0.2,4.9-0.3,9.9-0.7,14.8c-0.1,1.9-0.2,3.9-0.2,5.8c0,5.5-0.1,11,0.2,16.5c0.1,2.7,0.3,5.6-0.1,8.3c-0.2,1.3-0.6,2.6-0.9,3.9
					c-1.1,4.3-1.2,8.7-1.2,13.1c0,2.1-0.1,4.1,0.2,6.2c0.1,0.8,0.2,1.7,0.5,2.5c1.1,4.8,3.5,9.1,5.9,13.3c0.4,0.8,1,1.2,1.5,1.8
					c0.5,0.6,1.1,1.2,1.7,1.8c0.5,0.6,1.2,1.2,2.1,1.3c0.4,0.1,0.7,0,1.1,0c0.5-0.1,1.1-0.1,1.4-0.4c0.3-0.2,0.4-0.6,0.5-0.9
					c0.1-0.8,0-1.7-0.1-2.4c-0.1-0.8-0.4-1.5-0.7-2.3c-0.6-1.2-1.4-2.3-2-3.5c-0.8-1.6-1.4-3.4-1.8-5.2c-0.4-2.1-0.4-4.1-0.4-6.2
					c0-0.7,0.8-1.4,1.5-1.4c1.7,0,1.5,2.5,2,3.6c0.1,0.3,0.3,0.7,0.3,1c0.1,0.5-0.2,0.9-0.4,1.4c-0.1,0.2-0.2,0.5-0.2,0.7
					c-0.4,1.4-0.5,2.9-0.1,4.3c0.2,0.6,0.6,1.2,1.1,1.5c0.8,0.5,1.8,0.4,2.7,0.4c0.2,0,0.4,0,0.5-0.1s0.2-0.2,0.2-0.3
					c1.8-3.4,1.7-7.5,1.5-11.3c-0.2-3.2-0.7-6.4-0.7-9.7c0-1,0-2.1-0.1-3.1c-0.1-0.9-0.5-1.9-0.5-2.9c-0.1-0.8,0.1-1.7,0.1-2.5
					c0.2-2,0.5-4,1-5.9c0.8-3.9,2-7.7,2.7-11.5c0.2-0.8,0.4-1.7,0.5-2.5c0.2-1.1,0.4-2.2,0.7-3.3c0.1-0.4,0.1-0.7,0.2-1.1
					c0.2-0.8,0.3-1.5,0.5-2.3c0.2-0.9,0.4-1.8,0.5-2.7c0.1-0.7,0.2-1.2,0.4-1.9c0.2-0.8,0.4-1.6,0.5-2.4c1.1-5.2,2-10.5,3.5-15.6
					c1.5-5,3.3-10,4.9-15c1.3-4.2,2.3-8.6,3.1-12.9c0.4-2.2,0.7-4.4,0.7-6.6c-0.1-2-0.4-4-0.5-5.9c-0.2-1.9,0-3.6,0-5.5
					c0-0.3,0.2-0.6,0.4-0.8c0.2,0.3,0.4,0.6,0.5,0.9c0.8,2.3,0.6,4.8,0.8,7.1c0.2,2.7,0.4,5.3,0.6,8c0.2,3.3,0.3,6.7,0.7,10
					c0.2,2.3,0.7,4.6,1,6.9c0.2,1.8,0.4,3.6,0.6,5.4c0.5,4.6,1.1,9,0.7,13.7c-0.3,3.1-0.9,6.2-1.4,9.2c-2.4,15.9-5.1,31.8-5,47.9
					c0.1,3.7,0.4,7.5,0.4,11.2s0.7,7.7,1.1,11.4c0.4,3.6,0.8,7.2,1.4,10.7c1.3,7.6,2.5,15.1,3.6,22.7c0.5,3.7,1,7.3,1.3,11
					c0.7,8,0.1,15.8-0.4,23.8c-0.3,4.8-1,9.5-1.1,14.3c0,6.7,0.2,13.5,1,20.1c0.2,1.7,0.4,3.3,0.7,4.9c1.5,10.8,4.8,20.8,8.6,31
					c0.2,0.7,0.5,1.3,0.7,2c0.6,2.5,1.6,4.9,2.3,7.4c0.2,0.9,0.4,1.8,0.6,2.7c0.2,0.9,0.4,1.7,0.5,2.6c0.4,1.9,0.7,3.7,1,5.6
					c0.1,1.2,0.2,2.4,0.4,3.6c0.1,0.4,0.1,0.9,0.1,1.3c0.2,2.9,0.5,5.7,0.6,8.6c0,0.7,0,1.3-0.1,2c-0.2,4-1,7.5-2.3,11.3
					c-0.6,1.8-1.2,3.6-1.8,5.3c-0.7,1.9-1.4,3.7-2,5.6c-0.5,1.4-0.8,3-0.4,4.5c0.1,0.5,0.4,0.9,0.5,1.4c0.1,0.4,0.1,0.8,0.3,1.2
					c0.2,0.5,0.8,0.8,1.2,1.1c3.1,1.7,6.6,2.3,10.1,2.6c6.7,0.5,9.3-5.5,10.2-11c0.2-1,0.4-2.1,0.4-3.1c0.1-2.4-0.8-4.9-0.2-7.2
					c0.8-3,1.5-6.2,1.7-9.3c0.1-1.5-0.3-3-0.5-4.5c-0.6-3.6-0.2-7.3-0.2-10.9c0-3.8-0.1-7.6-0.4-11.4c-0.5-7.1-0.8-14.3-0.6-21.4
					c0.2-8.6,1.5-17.1,1.5-25.7c0-4,0.3-8-0.1-12c-0.3-4-1.1-8-1.8-12.1c-0.4-2.4-0.8-4.8-1.2-7.2c-0.4-2.7-0.8-5.6-0.5-8.3
					c0.7-4.9,1.9-9.6,2.7-14.4c0.8-4.9,1.5-9.9,2.1-14.8c0.1-1.2,0.3-2.4,0.4-3.6c0.1-1.1,0.2-2.3,0.3-3.4c0.2-3.8,0.1-7.6,0.1-11.4
					c0-0.2,0.1-0.4,0.2-0.6c0.1,0.2,0.2,0.4,0.2,0.5c0,3.8-0.1,7.6,0.1,11.4c0.1,1.1,0.2,2.3,0.3,3.4c0.1,1.2,0.3,2.4,0.4,3.6
					c0.6,5,1.2,9.9,2.1,14.8c0.8,4.8,2.1,9.5,2.7,14.4c0.4,2.7-0.1,5.7-0.5,8.3c-0.4,2.4-0.7,4.8-1.2,7.2c-0.7,4-1.5,8-1.8,12.1
					c-0.3,4-0.1,8-0.1,12c0,8.6,1.2,17.1,1.5,25.7c0.2,7.1,0,14.3-0.6,21.4c-0.3,3.8-0.4,7.6-0.4,11.4c0,3.6,0.4,7.3-0.2,10.9
					c-0.2,1.5-0.6,3-0.5,4.5c0.2,3.1,0.8,6.4,1.7,9.3c0.7,2.4-0.2,4.8-0.2,7.2c0,1.1,0.2,2.1,0.4,3.1c1,5.6,3.6,11.5,10.2,11
					c3.4-0.2,7-0.9,10.1-2.6c0.5-0.2,1-0.6,1.2-1.1c0.2-0.4,0.2-0.8,0.3-1.2c0.1-0.5,0.3-1,0.5-1.4c0.4-1.5,0.1-3.1-0.4-4.5
					c-0.7-1.9-1.4-3.7-2-5.6c-0.6-1.8-1.2-3.6-1.8-5.3c-1.3-3.7-2-7.2-2.3-11.3c-0.1-0.7-0.1-1.3-0.1-2c0.1-2.9,0.4-5.7,0.6-8.6
					c0.1-0.4,0.1-0.9,0.1-1.3c0.1-1.2,0.2-2.4,0.4-3.6c0.2-1.9,0.6-3.8,1-5.6c0.2-0.9,0.4-1.7,0.5-2.6c0.2-0.9,0.4-1.8,0.6-2.7
					c0.6-2.5,1.6-4.9,2.3-7.4c0.2-0.7,0.4-1.4,0.7-2c3.7-10.2,7.1-20.3,8.6-31c0.2-1.7,0.4-3.3,0.6-4.9c0.8-6.7,0.9-13.4,0.9-20.1
					c0-4.8-0.8-9.5-1.1-14.3c-0.5-8-1-15.8-0.4-23.8c0.3-3.7,0.8-7.4,1.3-11c1.1-7.6,2.3-15.2,3.6-22.7c0.6-3.6,1-7.1,1.4-10.7
					c0.4-3.7,1.1-7.6,1.1-11.4c0-3.7,0.4-7.5,0.4-11.2c0.1-16-2.6-32.1-5-47.9c-0.5-3.1-1.1-6.2-1.4-9.2c-0.5-4.6,0.2-9.1,0.7-13.7
					c0.2-1.8,0.4-3.6,0.6-5.4c0.3-2.3,0.7-4.6,1-6.9c0.4-3.3,0.5-6.7,0.7-10c0.2-2.7,0.4-5.3,0.6-8c0.2-2.4,0-4.8,0.8-7.1
					c0.1-0.3,0.3-0.6,0.5-0.9c0.1,0.3,0.4,0.6,0.4,0.8c0,1.8,0.2,3.6,0,5.5c-0.2,2-0.5,4-0.5,5.9c-0.1,2.2,0.2,4.5,0.7,6.6
					c0.7,4.4,1.8,8.7,3.1,12.9c1.5,5,3.4,10,4.9,15c1.5,5.1,2.5,10.4,3.6,15.6c0.2,0.8,0.3,1.6,0.5,2.4c0.1,0.7,0.2,1.2,0.4,1.9
					c0.2,0.9,0.4,1.8,0.5,2.7c0.2,0.8,0.3,1.5,0.5,2.3c0.1,0.4,0.1,0.7,0.2,1.1c0.2,1.1,0.4,2.2,0.7,3.3c0.2,0.8,0.4,1.7,0.5,2.5
					c0.8,3.9,1.9,7.7,2.7,11.5c0.4,2,0.8,3.9,0.9,5.9c0.1,0.8,0.2,1.7,0.1,2.5c-0.1,1-0.4,1.9-0.6,2.9s-0.1,2.1-0.1,3.1
					c-0.1,3.2-0.5,6.4-0.7,9.7c-0.2,3.8-0.4,7.9,1.5,11.3c0.1,0.1,0.1,0.2,0.2,0.3c0.1,0.1,0.3,0.1,0.5,0.1c0.9,0.1,1.9,0.1,2.7-0.4
					c0.6-0.4,1-1,1.1-1.5c0.5-1.4,0.3-2.9-0.1-4.3c-0.1-0.2-0.1-0.5-0.2-0.7c-0.2-0.4-0.4-0.9-0.4-1.4c0-0.4,0.2-0.7,0.3-1
					c0.5-1.1,0.4-3.6,2-3.6c0.7,0,1.5,0.8,1.5,1.4c0,2.1,0.1,4.1-0.4,6.2c-0.4,1.8-0.9,3.6-1.8,5.2c-0.6,1.2-1.4,2.3-2,3.5
					c-0.4,0.7-0.6,1.4-0.7,2.3c-0.1,0.8-0.2,1.7-0.1,2.4c0.1,0.4,0.2,0.7,0.5,1c0.4,0.4,1,0.4,1.4,0.4s0.7,0.1,1.1,0
					c0.8-0.1,1.5-0.7,2.1-1.3c0.5-0.6,1.1-1.2,1.7-1.8c0.6-0.7,1.1-1.1,1.5-1.8c2.5-4.2,4.9-8.5,5.9-13.3c0.2-0.8,0.4-1.7,0.5-2.5
					C433.2,265.1,433.1,263.1,433.1,261z"/>
				<circle class="st4" cx="280" cy="248" r="2"/>
				<circle class="st4" cx="320" cy="349" r="2"/>
				<circle class="st4" cx="336" cy="459" r="2"/>
			</g>
		</g>
	</g>
</g>
<path class="st0" d="M281,189.5L194.5,103H21"/>
<circle class="st4" cx="281" cy="190" r="2"/>
<path class="st0" d="M281.5,190h28"/>
<path class="st0" d="M279.5,248H298"/>
<path class="st0" d="M0,187h219.5l61,61"/>
<path class="st0" d="M19,386.5h264l37.5-37.5H351"/>
<path class="st0" d="M353.5,459H16"/>
</svg>
