<svg width="584" height="205" viewBox="0 0 584 205" fill="none" xmlns="http://www.w3.org/2000/svg">
<g>
<path d="M33.462 187.36C40.5072 192.85 49.9779 195.91 59.7951 195.91H265.609C275.542 195.91 285.012 198.97 291.942 204.46C298.987 198.97 308.458 195.91 318.275 195.91H524.089C534.022 195.91 543.493 192.85 550.422 187.36" stroke="#2789E8" stroke-width="2" stroke-miterlimit="10" stroke-linejoin="round"/>
</g>
<g>
<path d="M483.659 143.336H488.989" stroke="#2789E8" stroke-width="1.895" stroke-miterlimit="10" stroke-linecap="round"/>
<path d="M499.462 143.336H545.939C549.306 143.336 550.709 139.06 547.903 137.108C539.487 131.159 529.387 127.905 519.101 127.905H211.811" stroke="#2789E8" stroke-width="1.895" stroke-miterlimit="10" stroke-linecap="round" stroke-dasharray="11.22 11.22"/>
<path d="M206.574 127.905H201.244" stroke="#2789E8" stroke-width="1.895" stroke-miterlimit="10" stroke-linecap="round"/>
<path d="M202.553 123.536L194.885 127.905L202.553 132.274V123.536Z" fill="#2789E8"/>
<path d="M194.885 127.905H189.648" stroke="#2789E8" stroke-width="1.895" stroke-miterlimit="10" stroke-linecap="round"/>
<path d="M179.081 127.905H65.0863C54.7062 127.905 44.7001 131.066 36.2837 137.108C33.5718 139.06 34.881 143.336 38.2476 143.336H466.732" stroke="#2789E8" stroke-width="1.895" stroke-miterlimit="10" stroke-linecap="round" stroke-dasharray="11.21 11.21"/>
<path d="M472.063 143.336H477.3" stroke="#2789E8" stroke-width="1.895" stroke-miterlimit="10" stroke-linecap="round"/>
<path d="M476.084 147.705L483.659 143.336L476.084 138.874V147.705Z" fill="#2789E8"/>
<path d="M302.52 1.67314C308.786 -1.85913 315.425 0.37178 315.8 8.27291C316.174 16.174 316.361 21.3795 314.116 21.3795C311.872 21.3795 309.534 20.4499 309.254 22.9597C308.973 25.5624 312.246 26.1202 314.303 29.5595C317.015 34.2072 318.324 45.1758 320.288 44.4322C322.252 43.6885 329.266 39.1338 329.266 36.717C329.266 34.3001 330.388 28.0722 332.258 28.444C334.128 28.8158 336.092 31.9763 335.625 35.4156C335.157 38.8549 321.878 54.0994 319.166 53.7276C316.454 53.3558 312.994 45.3617 312.62 47.5926C312.339 49.8235 312.152 55.5867 310.282 61.071C309.441 63.6737 325.619 67.0201 330.575 72.8762C335.531 78.7324 331.323 86.0758 325.058 94.3487C318.792 102.622 317.109 106.433 318.044 109.965C318.979 113.404 324.122 117.123 324.87 118.796C325.619 120.469 321.878 123.165 316.548 118.796C311.217 114.427 306.729 115.17 306.355 112.568C305.98 109.965 308.973 108.757 312.62 102.436C316.267 96.2078 316.735 90.5376 319.073 86.0758C321.317 81.7069 321.878 80.5914 321.878 80.5914C321.878 80.5914 308.973 78.9183 306.729 77.9887C304.484 77.0592 304.484 77.0592 304.484 77.0592C304.484 77.0592 296.91 87.1912 291.392 91.746C285.875 96.3007 284.566 100.577 282.321 101.506C280.077 102.436 254.828 117.123 252.584 119.075C250.339 121.12 245.663 127.348 245.57 129.857C245.383 132.46 245.383 136.643 243.419 135.342C241.455 134.04 239.772 129.3 241.268 124.373C242.858 119.446 241.923 113.404 243.793 113.218C245.663 113.033 246.786 113.962 250.433 112.475C254.08 110.988 263.618 98.9035 267.92 96.8585C272.222 94.8135 273.344 94.6276 276.243 91.746C279.235 88.7714 286.623 76.5014 286.716 72.8762C286.81 69.251 285.594 63.116 291.112 58.5612C296.629 54.0065 296.816 48.9869 296.255 45.5476C295.694 42.1083 293.637 35.9733 293.075 35.1367C292.514 34.2072 286.81 37.3676 285.127 37.7395C283.443 38.1113 284.192 44.3392 284.192 47.8715C284.192 51.3108 285.875 56.7022 285.688 61.4428C285.501 66.1835 284.285 65.5328 283.443 63.6737C282.882 62.4653 282.508 61.164 281.573 59.119C279.703 55.3078 282.228 53.0769 281.106 50.2883C279.983 47.4997 277.271 40.9929 277.645 37.3676C278.02 33.7424 290.551 25.0047 293.075 23.8892C295.133 22.9597 298.873 25.0977 300.089 22.4949C301.398 19.8922 301.772 18.1261 300.276 15.9881C299.06 13.7572 295.133 5.85609 302.52 1.67314Z" fill="#4D4F4F"/>
<path d="M313.088 48.2434C312.246 46.6632 311.311 45.2688 310.282 43.7816C309.253 42.2943 308.318 40.807 307.57 39.2268C308.412 40.807 309.44 42.2013 310.469 43.5957C311.591 44.99 312.62 46.3843 313.555 47.9645C313.649 48.1504 313.649 48.3363 313.462 48.4293C313.368 48.5222 313.181 48.4293 313.088 48.2434Z" fill="white"/>
<path d="M311.03 80.0337C308.879 79.476 306.916 78.5464 304.858 77.6169C302.894 76.6873 301.024 75.6648 299.06 74.6423C301.024 75.5719 302.988 76.4085 305.045 77.1521C307.103 77.8957 309.16 78.6394 311.217 78.9182C311.498 79.0112 311.778 79.2901 311.685 79.5689C311.591 79.8478 311.404 80.1267 311.03 80.0337Z" fill="white"/>
<path d="M511.245 78.6394C511.245 81.6139 517.885 82.9153 520.223 87.8419C522.561 92.6755 525.086 100.763 529.761 105.317C534.344 109.872 536.962 112.754 540.422 117.401C543.882 121.956 546.781 123.536 549.212 126.418C552.673 130.508 552.392 130.229 546.501 128.649C540.796 127.069 539.019 126.325 537.243 122.049C535.466 117.773 526.021 112.847 521.345 106.805C516.763 100.763 513.303 96.7655 505.448 93.6051C500.398 91.5601 495.628 89.0503 490.579 87.0983C485.529 85.1462 484.5 86.7264 479.17 86.6335C481.975 87.1912 480.012 86.8194 482.817 87.3771C487.306 88.3067 490.953 91.0023 495.161 92.6755C503.484 96.1148 501.894 98.3457 498.995 103.644C495.254 110.337 483.752 122.328 484.313 126.046C484.874 129.764 491.794 132.088 494.693 133.761C497.592 135.528 488.708 137.015 484.313 135.528C478.235 133.39 477.393 135.992 474.775 134.691C471.595 133.018 472.811 129.857 475.71 125.767C478.609 121.77 479.637 116.844 481.601 110.244C483.285 104.853 490.392 101.692 486.09 100.763C481.975 99.926 475.429 100.391 468.977 98.1598C466.452 97.3232 465.704 96.7655 464.956 96.1148C464.956 96.1148 463.927 97.5092 462.898 99.926C458.41 110.43 454.201 110.43 450.461 112.289C446.346 114.334 427.55 119.725 426.428 123.165C426.428 123.165 427.55 128.742 432.038 130.601C438.117 133.204 438.117 134.133 433.161 134.691C428.298 135.249 426.334 134.226 422.313 131.066C418.292 127.905 412.774 127.998 414.551 124.559C415.299 123.072 418.011 120.283 421.471 117.401C425.96 113.59 431.571 109.407 435.686 107.362C442.886 103.644 445.598 103.458 447.468 95.6501C449.245 88.3996 448.029 81.7069 456.446 78.7324C461.683 76.8733 474.962 72.1326 478.048 69.8087C481.227 67.4849 482.443 67.113 476.738 65.7187C470.941 64.3244 464.769 65.254 459.625 64.6962C454.388 64.1385 451.583 63.9526 446.907 64.1385C442.325 64.4174 433.815 66.4624 429.514 61.6287C428.952 60.9781 431.01 59.7697 434.283 59.3049C437.556 58.8401 441.857 59.4908 446.346 58.4683C455.604 56.2374 465.984 56.6092 473.933 56.1444C483.565 55.4937 488.708 56.2374 493.104 59.9556C498.621 64.5103 500.959 70.0876 504.98 68.6003C509.001 67.206 513.77 58.9331 522.28 61.164C534.344 64.2315 523.87 80.9633 520.971 80.8703C518.166 80.5914 511.245 74.2705 511.245 78.6394Z" fill="#4D4F4F"/>
<path d="M488.521 87.4701C487.212 87.1912 485.997 86.9124 484.781 86.8194C483.472 86.8194 482.162 86.8194 480.853 86.8194C479.544 86.8194 478.235 86.8194 476.926 86.9124C475.616 87.0053 474.307 87.0983 473.091 87.4701C474.307 87.0053 475.616 86.9124 476.926 86.7265C478.235 86.5406 479.544 86.5405 480.853 86.4476C482.162 86.3546 483.472 86.2617 484.781 86.1687C486.09 86.0758 487.493 86.3546 488.708 86.5405L488.521 87.4701Z" fill="white"/>
<path d="M73.1286 78.6394C73.1286 81.6139 66.489 82.9153 64.1512 87.8419C61.8133 92.6755 59.2884 100.763 54.6127 105.317C49.9369 109.872 47.412 112.754 43.952 117.401C40.4919 121.956 37.593 123.536 35.1616 126.418C31.7015 130.508 31.9821 130.229 37.8735 128.649C43.5779 127.069 45.3547 126.325 47.1315 122.049C48.9083 117.773 58.3533 112.847 63.029 106.805C67.6112 100.763 71.0713 96.7655 78.9265 93.6051C83.9763 91.5601 88.7456 89.0503 93.7954 87.0982C98.8452 85.1462 99.8738 86.7264 105.204 86.6335C102.399 87.1912 104.363 86.8194 101.557 87.3771C97.0684 88.3067 93.4213 91.0023 89.2132 92.6755C80.8903 96.1148 82.4801 98.3457 85.379 103.644C89.1196 110.337 100.622 122.328 100.061 126.046C99.4998 129.764 92.5797 132.088 89.6807 133.761C86.7818 135.435 95.6657 137.015 100.061 135.527C106.139 133.39 106.981 135.992 109.599 134.691C112.779 133.018 111.563 129.857 108.664 125.767C105.765 121.77 104.737 116.844 102.773 110.244C101.09 104.853 93.9824 101.692 98.2841 100.763C102.399 99.926 108.945 100.391 115.397 98.1598C117.922 97.3232 118.67 96.7655 119.418 96.1148C119.418 96.1148 120.447 97.5091 121.476 99.926C125.964 110.43 130.173 110.43 133.913 112.289C138.028 114.334 156.824 119.725 157.947 123.165C157.947 123.165 156.824 128.742 152.336 130.601C146.257 133.204 146.257 134.133 151.213 134.691C156.076 135.249 158.04 134.226 162.061 131.066C166.082 127.905 171.6 127.998 169.823 124.559C169.075 123.072 166.363 120.283 162.903 117.401C158.414 113.59 152.803 109.407 148.689 107.362C141.488 103.644 138.776 103.458 136.906 95.6501C135.129 88.3996 136.345 81.7069 127.928 78.7323C122.691 76.8733 109.412 72.1326 106.326 69.8087C103.147 67.4849 101.931 67.113 107.636 65.7187C113.433 64.3244 119.605 65.254 124.749 64.6962C129.986 64.1385 132.791 63.9526 137.467 64.1385C142.049 64.4174 150.559 66.4624 154.861 61.6287C155.422 60.9781 153.364 59.7696 150.091 59.3049C146.818 58.8401 142.517 59.4908 138.028 58.4683C128.77 56.2374 118.39 56.6092 110.441 56.1444C100.809 55.4937 95.6657 56.2374 91.2705 59.9556C85.7531 64.5103 83.4152 70.0876 79.3941 68.6003C75.373 67.206 70.6037 58.9331 62.0939 61.164C50.0304 64.2315 60.5041 80.9633 63.4031 80.8703C66.302 80.7773 73.1286 74.2705 73.1286 78.6394Z" fill="#4D4F4F"/>
<path d="M95.6656 86.5405C96.9749 86.3546 98.2841 86.0758 99.5933 86.1687C100.902 86.1687 102.212 86.3546 103.521 86.4476C104.83 86.5405 106.139 86.6335 107.449 86.7265C108.758 86.9124 110.067 87.0983 111.283 87.4701C110.067 87.0983 108.758 87.0053 107.449 86.9124C106.139 86.8194 104.83 86.8194 103.521 86.8194C102.212 86.8194 100.902 86.8194 99.5933 86.8194C98.2841 86.8194 97.0684 87.0983 95.8527 87.4701L95.6656 86.5405Z" fill="white"/>
<path d="M75.747 110.776L0.93512 153.071" stroke="#A6A7A7" stroke-width="1.979" stroke-miterlimit="10" stroke-linecap="round"/>
<path d="M508.346 110.776L583.158 153.071" stroke="#A6A7A7" stroke-width="1.979" stroke-miterlimit="10" stroke-linecap="round"/>
</g>
<defs>
</defs>
</svg>
