<?xml version="1.0" encoding="utf-8"?>
<!-- Generator: Adobe Illustrator 23.0.1, SVG Export Plug-In . SVG Version: 6.00 Build 0)  -->
<svg version="1.1" id="Слой_1" xmlns="http://www.w3.org/2000/svg" xmlns:xlink="http://www.w3.org/1999/xlink" x="0px" y="0px"
	 viewBox="0 0 595.3 841.9" style="enable-background:new 0 0 595.3 841.9;" xml:space="preserve">
<style type="text/css">
	.st0{fill:#4D4F4F;}
</style>
<path class="st0" d="M431.2,439.5c0-7.5-0.4-14.8-2.1-22.1c-0.5-2.2-1.1-4.4-1.5-6.6c-0.8-4.6-0.5-9.3-0.2-13.9
	c0.4-9.2,0.4-18.5,0.4-27.7c0-3.2,0-6.5-0.3-9.7c-0.6-8.3-0.8-16.6-1.1-24.9c-0.3-8.7-0.5-17.6-1.2-26.4c-0.2-2.4-0.5-4.7-0.8-7
	c-1-9.6-1.4-18.7-3.6-28.1c-1.4-5.9-3-11.7-4.5-17.7c-3.4-14.4-0.7-29-2.8-43.4c-0.9-6.1-1.8-12.3-3.4-18.3
	c-2.2-8-5.8-15.6-10.9-22.2c-6.2-8.2-13.4-13.4-22.5-18c-8.1-4.1-16.1-8.7-24.5-12.1c-1.8-0.7-3.6-1.4-5.3-2.3
	c-1.8-1-3.5-2.2-5.1-3.4c-7.4-5.6-14.3-12.1-18.1-20.7c-0.4-0.9-1-1.7-1.2-2.9c-0.4-2.4,2.8-5.6,4-7.5c0.7-1.2,1.5-2.4,1.9-3.8
	c0.2-0.6,0.3-1.2,0.5-1.8c0.1-0.4,0.4-0.8,0.6-1.2c1.2-2.3,2.1-4.9,4.7-5.5c2.9-0.7,3.4-3.6,3.9-6.1c0.7-3.1,1.8-6.1,2.6-9.2
	c0.4-1.5,0.7-3.1,0.8-4.6c0.1-1.4,0.3-3.2-0.2-4.6c-0.2-0.5-0.6-1-1.1-1.3c-1-0.5-2-0.3-2.1-1.7c-0.2-1.4,0.8-3.5,1.1-4.9
	c1.4-6.7,1.8-13.6,1.8-20.5c0-6.6,0-14.5-4.7-19.8c-1-1.1-2.3-2-3.8-2.1c-0.1-1.1-0.2-2.2-0.4-3.2c-2.6-0.5-5.5,0.6-7.8-0.7
	c-1.6-0.9-2.5-2.9-4.1-3.8c-0.9-0.5-1.9-0.7-2.6-1.3c-0.4-0.3-0.7-0.8-1.1-1.1c-0.8-0.6-1.8-0.6-2.8-0.6c-2.8,0.1-5.7,0.3-8.5,0
	l0-2.3c-1.5,0-8.7,2.4-8.7,2.4c-2.8,0.3-5.7,0.1-8.5,0c-1,0-2,0-2.8,0.6c-0.4,0.3-0.7,0.8-1.1,1.1c-0.8,0.6-1.8,0.8-2.6,1.3
	c-1.6,0.9-2.5,2.9-4.1,3.8c-2.3,1.3-8,2.8-8.2,3.9c-1.5,0.1-2.8,1-3.8,2.1c-4.6,5.3-4.6,13.2-4.7,19.8c0,6.8,0.4,13.7,1.8,20.5
	c0.3,1.4,1.3,3.5,1.1,4.9c-0.2,1.4-1.1,1.2-2.1,1.7c-0.5,0.3-0.9,0.8-1.1,1.3c-0.5,1.3-0.3,3.2-0.2,4.6c0.1,1.6,0.4,3.1,0.8,4.6
	c0.8,3.1,1.9,6.1,2.6,9.2c0.5,2.5,1,5.4,3.9,6.1c2.6,0.6,3.5,3.1,4.7,5.5c0.2,0.4,0.4,0.8,0.6,1.2c0.2,0.6,0.3,1.2,0.5,1.8
	c0.4,1.3,1.1,2.6,1.9,3.8c1.2,1.9,4.3,5.1,4,7.5c-0.2,1.1-0.7,1.9-1.2,2.9c-3.8,8.6-10.8,15.1-18.1,20.7c-1.6,1.2-3.3,2.4-5.1,3.4
	c-1.7,0.9-3.5,1.6-5.3,2.3c-8.4,3.4-16.4,8-24.5,12.1c-9.1,4.6-16.3,9.8-22.5,18c-5,6.6-8.7,14.2-10.9,22.2
	c-1.6,6-2.5,12.2-3.4,18.3c-2.1,14.4,0.6,29.1-2.8,43.4c-1.4,6-3.1,11.8-4.5,17.7c-2.3,9.4-2.7,18.6-3.6,28.1
	c-0.2,2.3-0.6,4.7-0.8,7c-0.7,8.7-0.8,17.6-1.2,26.4c-0.3,8.3-0.5,16.6-1.1,24.9c-0.2,3.2-0.3,6.5-0.3,9.7c0,9.2-0.1,18.5,0.4,27.7
	c0.2,4.6,0.5,9.4-0.2,13.9c-0.4,2.2-1,4.4-1.5,6.6c-1.8,7.3-2.1,14.6-2.1,22.1c0,3.5-0.2,6.9,0.3,10.4c0.2,1.4,0.4,2.8,0.8,4.2
	c1.8,8.1,5.9,15.3,10,22.4c0.7,1.3,1.6,2.1,2.6,3.1c0.9,1,1.9,2,2.8,3c0.9,1,2.1,2,3.5,2.2c0.6,0.1,1.2,0,1.8,0
	c0.9-0.1,1.8-0.2,2.4-0.7c0.5-0.4,0.7-1,0.8-1.6c0.2-1.3,0-2.8-0.2-4c-0.2-1.3-0.6-2.6-1.2-3.8c-1-2-2.3-3.9-3.4-5.9
	c-1.4-2.7-2.3-5.7-3-8.7c-0.7-3.5-0.6-6.9-0.6-10.4c0-1.1,1.4-2.4,2.5-2.4c2.8,0,2.6,4.2,3.4,6.1c0.2,0.5,0.5,1.1,0.5,1.7
	c0.1,0.8-0.3,1.5-0.6,2.3c-0.1,0.4-0.3,0.8-0.4,1.1c-0.6,2.3-0.9,4.9-0.1,7.2c0.4,1,1,2,1.9,2.6c1.3,0.8,3,0.7,4.5,0.6
	c0.3,0,0.6,0,0.8-0.2c0.2-0.1,0.3-0.3,0.4-0.5c3.1-5.8,2.9-12.7,2.5-19.1c-0.3-5.4-1.1-10.8-1.1-16.3c0-1.7,0-3.5-0.2-5.2
	c-0.2-1.6-0.8-3.2-0.9-4.9c-0.2-1.4,0.1-2.8,0.2-4.2c0.3-3.4,0.9-6.7,1.6-10c1.4-6.5,3.3-12.9,4.6-19.4c0.3-1.4,0.6-2.8,0.8-4.2
	c0.4-1.9,0.7-3.7,1.1-5.5c0.1-0.6,0.2-1.2,0.4-1.9c0.3-1.3,0.5-2.6,0.8-3.9c0.3-1.5,0.6-3,0.9-4.6c0.2-1.1,0.4-2.1,0.6-3.2
	c0.3-1.4,0.6-2.7,0.8-4.1c1.8-8.8,3.3-17.6,5.9-26.3c2.6-8.5,5.6-16.9,8.2-25.3c2.2-7.1,3.9-14.4,5.2-21.8c0.6-3.7,1.1-7.4,1.1-11.1
	c-0.1-3.4-0.6-6.7-0.9-10c-0.3-3.2,0-6.1,0-9.3c0-0.5,0.4-1,0.7-1.4c0.3,0.5,0.6,1,0.8,1.5c1.3,3.9,1,8,1.3,12c0.4,4.5,0.7,9,1,13.4
	c0.3,5.6,0.5,11.2,1.1,16.8c0.4,3.9,1.1,7.8,1.6,11.7c0.4,3,0.7,6,1,9.1c0.8,7.7,1.9,15.2,1.1,23c-0.5,5.2-1.5,10.4-2.3,15.5
	c-4,26.7-8.6,53.6-8.4,80.7c0.1,6.3,0.7,12.6,0.7,18.8c0,6.3,1.1,12.9,1.8,19.2c0.7,6.1,1.4,12.1,2.4,18.1c2.2,12.8,4.2,25.5,6,38.3
	c0.9,6.2,1.7,12.3,2.2,18.6c1.1,13.4,0.2,26.6-0.6,40c-0.5,8-1.7,16-1.8,24c0,11.3,0.3,22.7,1.6,33.9c0.3,2.8,0.7,5.6,1.1,8.3
	c2.6,18.2,8.1,35.1,14.4,52.2c0.4,1.1,0.8,2.2,1.1,3.4c1,4.2,2.7,8.2,3.8,12.4c0.4,1.5,0.7,3,1,4.6c0.3,1.5,0.6,2.9,0.9,4.4
	c0.6,3.2,1.2,6.3,1.6,9.5c0.2,2,0.4,4,0.6,6.1c0.1,0.7,0.1,1.5,0.2,2.2c0.4,4.8,0.8,9.6,1,14.4c0,1.1,0,2.2-0.1,3.3
	c-0.4,6.7-1.6,12.6-3.8,19c-1,3-2.1,6-3.1,8.9c-1.1,3.2-2.3,6.3-3.4,9.5c-0.9,2.4-1.4,5.1-0.6,7.6c0.2,0.8,0.6,1.5,0.8,2.3
	c0.2,0.7,0.2,1.4,0.5,2c0.4,0.8,1.3,1.4,2.1,1.8c5.2,2.8,11.1,3.9,17,4.3c11.2,0.8,15.6-9.2,17.2-18.6c0.3-1.7,0.6-3.5,0.6-5.2
	c0.1-4.1-1.4-8.3-0.3-12.2c1.4-5,2.5-10.4,2.8-15.6c0.1-2.5-0.5-5-0.9-7.5c-1-6-0.3-12.3-0.3-18.4c0-6.4-0.1-12.8-0.6-19.2
	c-0.9-12-1.3-24-1-36.1c0.4-14.5,2.5-28.8,2.5-43.3c0-6.7,0.5-13.5-0.1-20.2c-0.5-6.8-1.9-13.5-3-20.3c-0.7-4-1.3-8.1-2-12.2
	c-0.7-4.5-1.4-9.5-0.8-14c1.1-8.2,3.2-16.1,4.6-24.2c1.4-8.3,2.5-16.7,3.5-25c0.2-2,0.5-4,0.7-6.1c0.2-1.9,0.4-3.8,0.5-5.7
	c0.4-6.4,0.1-12.8,0.2-19.2c0-0.3,0.2-0.7,0.4-1c0.2,0.3,0.4,0.6,0.4,0.9c0,6.4-0.2,12.8,0.2,19.2c0.1,1.9,0.3,3.8,0.5,5.7
	c0.2,2,0.5,4,0.7,6.1c1,8.4,2,16.7,3.5,25c1.4,8.1,3.6,16,4.6,24.2c0.6,4.5-0.1,9.6-0.8,14c-0.6,4.1-1.2,8.1-2,12.2
	c-1.1,6.7-2.5,13.5-3,20.3c-0.5,6.7-0.1,13.5-0.1,20.2c0,14.5,2.1,28.8,2.5,43.3c0.3,12,0,24.1-1,36.1c-0.5,6.4-0.6,12.8-0.6,19.2
	c0,6.1,0.7,12.3-0.3,18.4c-0.4,2.5-1,5-0.9,7.5c0.3,5.2,1.4,10.7,2.8,15.6c1.1,4-0.4,8.1-0.3,12.2c0,1.8,0.3,3.5,0.6,5.2
	c1.7,9.4,6,19.3,17.2,18.6c5.8-0.4,11.8-1.5,17-4.3c0.8-0.4,1.7-1,2.1-1.8c0.3-0.6,0.4-1.3,0.5-2c0.2-0.8,0.5-1.6,0.8-2.3
	c0.7-2.5,0.2-5.2-0.6-7.6c-1.1-3.2-2.3-6.3-3.4-9.5c-1-3-2.1-6-3.1-8.9c-2.2-6.3-3.4-12.2-3.8-19c-0.1-1.1-0.1-2.2-0.1-3.3
	c0.2-4.9,0.6-9.6,1-14.4c0.1-0.7,0.1-1.5,0.2-2.2c0.1-2,0.3-4,0.6-6.1c0.4-3.2,1-6.4,1.6-9.5c0.3-1.5,0.6-2.9,0.9-4.4
	c0.3-1.5,0.6-3,1-4.6c1-4.2,2.7-8.2,3.8-12.4c0.3-1.2,0.7-2.3,1.1-3.4c6.3-17.1,11.9-34.1,14.4-52.2c0.4-2.8,0.7-5.6,1-8.3
	c1.3-11.2,1.6-22.6,1.6-33.9c0-8-1.3-16-1.8-24c-0.8-13.4-1.7-26.6-0.6-40c0.5-6.2,1.3-12.4,2.2-18.6c1.8-12.8,3.8-25.6,6-38.3
	c1-6,1.7-12,2.4-18.1c0.7-6.3,1.8-12.8,1.8-19.2c0-6.3,0.6-12.6,0.7-18.8c0.2-27-4.4-54-8.4-80.7c-0.8-5.2-1.8-10.4-2.3-15.5
	c-0.8-7.7,0.4-15.3,1.1-23c0.3-3,0.6-6.1,1-9.1c0.5-3.9,1.1-7.8,1.6-11.7c0.6-5.6,0.8-11.2,1.1-16.8c0.3-4.5,0.6-9,1-13.4
	c0.3-4,0-8.1,1.3-12c0.2-0.5,0.5-1,0.8-1.5c0.2,0.5,0.7,1,0.7,1.4c0,3.1,0.3,6.1,0,9.3c-0.3,3.3-0.8,6.7-0.9,10
	c-0.1,3.7,0.4,7.5,1.1,11.1c1.2,7.4,3,14.6,5.2,21.8c2.6,8.5,5.7,16.8,8.2,25.3c2.6,8.6,4.2,17.5,6,26.3c0.3,1.4,0.5,2.7,0.8,4.1
	c0.2,1.1,0.4,2.1,0.6,3.2c0.3,1.5,0.6,3,0.9,4.6c0.3,1.3,0.5,2.6,0.8,3.9c0.1,0.6,0.2,1.2,0.4,1.9c0.4,1.9,0.7,3.7,1.1,5.5
	c0.3,1.4,0.6,2.8,0.8,4.2c1.3,6.5,3.2,12.9,4.6,19.4c0.7,3.3,1.3,6.6,1.6,10c0.1,1.4,0.4,2.8,0.2,4.2c-0.2,1.6-0.7,3.2-1,4.9
	c-0.3,1.7-0.2,3.5-0.2,5.2c-0.1,5.4-0.8,10.8-1.1,16.3c-0.4,6.4-0.6,13.3,2.5,19.1c0.1,0.2,0.2,0.4,0.4,0.5c0.2,0.2,0.5,0.2,0.8,0.2
	c1.5,0.1,3.2,0.2,4.5-0.6c1-0.6,1.6-1.6,1.9-2.6c0.8-2.3,0.5-4.9-0.1-7.2c-0.1-0.4-0.2-0.8-0.4-1.1c-0.3-0.7-0.6-1.5-0.6-2.3
	c0-0.6,0.3-1.1,0.5-1.7c0.8-1.9,0.6-6.1,3.4-6.1c1.1,0,2.5,1.3,2.5,2.4c0,3.5,0.2,6.9-0.6,10.4c-0.6,3-1.5,6-3,8.7
	c-1,2-2.4,3.8-3.4,5.9c-0.6,1.2-1,2.4-1.2,3.8c-0.2,1.3-0.4,2.8-0.2,4c0.1,0.6,0.3,1.2,0.8,1.6c0.6,0.6,1.6,0.7,2.4,0.7
	c0.6,0,1.2,0.1,1.8,0c1.4-0.2,2.5-1.1,3.5-2.2c0.9-1,1.9-2,2.8-3c1-1.1,1.9-1.9,2.6-3.1c4.2-7.1,8.2-14.3,10-22.4
	c0.3-1.4,0.6-2.8,0.8-4.2C431.4,446.4,431.2,443,431.2,439.5z"/>
</svg>
