<?xml version="1.0" encoding="utf-8"?>
<!-- Generator: Adobe Illustrator 23.0.1, SVG Export Plug-In . SVG Version: 6.00 Build 0)  -->
<svg version="1.1" id="Слой_1" xmlns="http://www.w3.org/2000/svg" xmlns:xlink="http://www.w3.org/1999/xlink" x="0px" y="0px"
	 viewBox="0 0 595.3 841.9" style="enable-background:new 0 0 595.3 841.9;" xml:space="preserve">
<style type="text/css">
	.st0{fill:#4D4F4F;}
</style>
<path class="st0" d="M409.2,375.9c-0.7-8.2-0.9-16.4-1-24.6c-0.1-15.4-0.8-30.8-4.1-46c-0.5-2.1-1-4.3-1.6-6.4c-1.4-4.5-3-9-4-13.6
	c-2-9.4-2.6-18.9-3.1-28.5c-0.2-3-0.3-6-0.6-9c-0.4-5.4-1.5-10.8-1.5-16.2c0-5.6,0-11-0.8-16.5c-0.6-4.3-0.6-8.8-1.1-13.2
	c-0.6-4.6-1.5-9.2-2.5-13.7c-0.7-3.2-1.6-6.5-2.8-9.6c-1.5-3.8-3.5-7.3-6.1-10.4c-5-5.9-12.2-8.9-19.5-11c-7.5-2.1-14.8-3.9-22-6.8
	c-4.2-1.8-8.4-4-11.8-6.9c-1.9-1.6-3.5-3.2-4.6-5.4c-0.9-1.9-1.6-3.8-2.5-5.7c-0.2-0.4-0.4-0.8-0.4-1.2c0-1.2,3.9-1.9,4.8-2.9
	c-0.4-0.2-0.7-0.4-1.1-0.6c-0.7-0.4-1.5-0.8-2.1-1.4c-0.3-0.3-0.5-0.7-0.3-1c0.2-0.3,0.6-0.4,1-0.3c1.6,0,3.2,0.1,4.8,0.1
	c0.5,0,1,0,1.4-0.3c0.3-0.2,0.5-0.6,0.8-0.7c0.4-0.2,0.8-0.1,1.2-0.2c0.7-0.1,1.4-0.5,2-0.9c1.4-0.9,2.8-1.8,4.2-2.7
	c0.3-0.2,0.7-0.5,0.7-0.9c0-0.3-0.2-0.5-0.5-0.7c-1.2-1.1-2.4-2.2-3.6-3.3c-0.3-0.3-0.7-0.6-0.8-1.1c-0.3-1.5,1.8-1.8,2.8-1.8
	c1.2,0,2.5,0.1,3.7,0.1c0.9,0,1.8,0,2.6-0.2s1.6-0.9,1.9-1.7c-1-1-2.1-1.9-3.3-2.6c1.6-0.3,3.2-0.7,4.8-1c-1.1-1.1-2.3-2.1-3-3.5
	c-1.5-2.8-0.5-5.6,0.9-8.2c1.5-3,2.1-6.2,2.8-9.5c0.2-1.1,0.4-2.2,0.5-3.3c0.5-6-1-12.9-2.3-18.7c-2.3-9.9-5.5-20.5-10.5-29.5
	c-2.8-5.1-6.7-9-11.5-12.1c-1.6-1-3.3-2-5.1-2.4c-0.5-0.1-1-0.2-1.4-0.5c-0.4-0.2-0.7-0.6-1.2-0.8c-0.8-0.3-1.7,0.1-2.5-0.2
	c-0.4-0.2-0.6-0.5-1-0.7c-0.5-0.3-1-0.4-1.6-0.4c-2.5-0.2-5,0.2-7.5,0.6v-0.3c-0.1,0.1-0.1,0.2-0.2,0.4c-1.1,0.2-2.2,0.4-3.3,0.5
	c-1.1-0.1-2.2-0.3-3.3-0.5c-0.1-0.1-0.1-0.2-0.2-0.4v0.3c-2.5-0.4-5-0.9-7.5-0.6c-0.5,0-1.1,0.1-1.6,0.4c-0.3,0.2-0.6,0.5-1,0.7
	c-0.8,0.4-1.7-0.1-2.5,0.2c-0.5,0.2-0.8,0.5-1.2,0.8c-0.4,0.2-0.9,0.3-1.4,0.5c-1.8,0.5-3.5,1.4-5.1,2.4c-4.8,3.1-8.7,7-11.5,12.1
	c-4.9,9-8.2,19.6-10.5,29.5c-1.4,5.8-2.9,12.7-2.3,18.7c0.1,1.1,0.3,2.2,0.5,3.3c0.7,3.3,1.2,6.5,2.8,9.5c1.4,2.6,2.4,5.4,0.9,8.2
	c-0.7,1.3-1.9,2.4-3,3.5c1.6,0.3,3.2,0.7,4.8,1c-1.2,0.8-2.2,1.7-3.3,2.6c0.2,0.8,1,1.4,1.9,1.7s1.7,0.2,2.6,0.2
	c1.2,0,2.5-0.1,3.7-0.1c1,0,3.1,0.3,2.8,1.8c-0.1,0.4-0.4,0.8-0.8,1.1c-1.2,1.1-2.4,2.2-3.6,3.3c-0.2,0.2-0.4,0.4-0.5,0.7
	c0,0.4,0.4,0.7,0.7,0.9c1.4,0.9,2.8,1.8,4.2,2.7c0.6,0.4,1.2,0.8,2,0.9c0.4,0,0.8,0,1.2,0.2c0.3,0.2,0.5,0.5,0.8,0.7
	c0.4,0.3,0.9,0.3,1.4,0.3c1.6,0,3.2-0.1,4.8-0.1c0.4,0,0.8,0,1,0.3c0.2,0.3-0.1,0.7-0.3,1c-0.6,0.6-1.3,1-2.1,1.4
	c-0.4,0.2-0.7,0.4-1.1,0.6c1,1,4.9,1.7,4.8,2.9c0,0.4-0.2,0.8-0.4,1.2c-0.9,1.9-1.6,3.9-2.5,5.7c-1.1,2.3-2.7,3.8-4.6,5.4
	c-3.5,3-7.6,5.2-11.8,6.9c-7.2,3-14.5,4.7-22,6.8c-7.3,2.1-14.5,5.1-19.5,11c-2.6,3.1-4.6,6.7-6.1,10.4c-1.2,3.1-2.1,6.3-2.8,9.6
	c-1,4.5-1.9,9.1-2.5,13.7c-0.6,4.4-0.5,8.9-1.1,13.2c-0.8,5.5-0.8,10.9-0.8,16.5c0,5.4-1,10.8-1.5,16.2c-0.2,3-0.4,6-0.6,9
	c-0.5,9.6-1.2,19.1-3.1,28.5c-1,4.6-2.6,9.1-3.9,13.6c-0.6,2.1-1.2,4.2-1.6,6.4c-3.4,15.1-4,30.5-4.1,46c-0.1,8.2-0.3,16.4-1,24.6
	c-0.2,2.8-0.2,5.6-0.2,8.4c0,5.9,0,11.8,0,17.7c0,2.5,0,5.1,0.2,7.6c0.2,3.1,0.8,6.2,0.9,9.3c0.2,2.9-0.2,5.6,0.3,8.5
	c0.4,2.3,0.8,4.5,1.1,6.8c0.1,1,0.3,2,0.4,3c0.1,0.9,0.3,1.7,0.5,2.5c1.1,5.4,3.3,10.9,5.9,15.7c0.6,1.1,1.4,2.2,2.1,3.4
	c0.5,0.8,0.9,1.6,1.5,2.4c1.8,2.5,3.6,5.3,5.8,7.4c1.4,1.3,3.4,2.2,5.2,1.6c0.2-0.1,0.5-0.2,0.6-0.4c0.2-0.2,0.2-0.6,0.3-0.9
	c0.1-1.1,0.2-2.3-0.3-3.3c-0.6-1.3-1.8-2.1-2.4-3.3c-0.7-1.4-1-3.1-1.5-4.5c-0.1-0.4-0.3-0.7-0.4-1.1c-0.2-0.6-0.5-1.2-0.7-1.8
	c-0.8-2.2-1.3-4.5-1.7-6.8c-0.3-1.7-0.8-3.6,0.9-4.9c0.9-0.6,1.2,0.9,1.6,1.5c0.6,1,1,2,1.4,3.1c0.3,1,0.6,1.9,1,2.8
	c0.4,0.7,0.8,1.4,1.1,2.2c0.3,0.7,0.4,1.5,0.9,2.2c0.6,1,2,1.6,3.2,1.4c0.2,0,0.4-0.1,0.6-0.3c0.1-0.2,0.1-0.4,0.1-0.7
	c-0.1-5.1-0.1-10.2-0.5-15.4c-0.1-0.9-0.1-1.8-0.2-2.7c-0.3-3.3-0.5-6.6-1.2-9.9c-1.2-5.5-3.9-10.3-6.1-15.4
	c-2.5-6.2-3.1-11.4-1.6-17.9c0.4-1.5,0.7-3,1.1-4.5c0.4-1.8,0.8-3.6,1.3-5.4c1.1-4.8,2.2-9.5,3.4-14.3c0.6-2.3,1.1-4.6,1.6-6.9
	c1.4-6.1,3.1-12.2,4.6-18.3c0.6-2.5,1.2-5,1.6-7.6c0.3-1.9,0.6-3.9,0.8-5.8c0.6-4.9,1.2-9.9,1.8-14.8c0.8-6.7,1.7-13.4,2.5-20.1
	c0.4-3.5,0.6-7,1.1-10.5c1.8-12.7,7.4-25.2,7.6-38.1c0-1,0.4-1.4,1.4-1.3c0.4,0.1,0.7,0.1,1.1,0.1c1.7,3.8,4.7,7,7.2,10.3
	c1.4,2.3,2.4,4.9,3.1,7.5c0.5,1.9,0.8,3.8,1.1,5.7c0.2,1.5,0.5,3.1,0.8,4.6c2,12.5,2.5,25.2,0.3,37.7c-0.3,1.8-0.6,3.7-1,5.5
	c-0.4,2.4-1,4.7-1.5,7.1c-0.3,1.3-0.6,2.6-0.9,3.9c-0.6,2.2-1.1,4.4-1.8,6.5c-2.5,9-5.5,18-8.4,26.9c-0.6,1.9-1.2,3.8-1.8,5.6
	c-2.7,8.9-4.7,17.9-6,27.1c-1.1,8.2-1.8,16.5-2.2,24.8c-0.8,15.8,0.1,32.1,3,47.6c4.7,25.3,13.3,49.5,19.3,74.5
	c0.6,2.3,1.1,4.6,1.5,6.9c1.5,8.7,1.1,17.7,0.9,26.5c-0.2,9.4-0.6,18.7-1.4,28c0,0.7-0.1,1.5-0.1,2.2c-0.6,10.6-0.8,21.1,0.3,31.6
	c0.6,4.9,1.1,9.7,1.8,14.6c0.9,6.5,2.1,12.9,3.4,19.3c0.4,1.8,0.8,3.5,1.2,5.3c0.9,3.8,1.7,7.6,2.6,11.4c0.4,1.9,0.8,3.7,1.3,5.6
	c1.9,8.2,3.7,16.5,5.2,24.8c0.4,2,0.7,4,1.1,6c0.5,2.9,1,5.8,1.6,8.6c0.7,3.8,1.3,7.6,1.9,11.4c0.6,3.8,1.2,7.6,1.7,11.5
	c1.4,11,3.1,23.8-0.3,34.7c-1,3.4-2.1,6.8-3.1,10.2c-0.4,1.2-0.8,2.5-1.1,3.7c-0.4,1.4-0.9,2.8-1.3,4.3c-0.7,2.2-1.3,4.6-0.3,6.7
	c0.9,1.6,2.6,2.5,4.4,3.2c5.2,2,14.8,4.2,19-1c1.2-1.5,1.5-3.6,2.3-5.4c0.4-0.8,0.8-1.6,1.1-2.4c1.4-4,0.4-9.8,0.5-14
	c0-5.1,0.1-10.2,0.1-15.2c0-14.1-0.1-28.2-0.2-42.2c0-14.7,1-29.3,2.1-44c0.5-7.6,1-15.1,1.5-22.7c0.5-7.4,0.2-14.6,0.2-22
	c0-6.7,0.4-13.4,0-20.1c-0.3-5.9-0.6-11.8-0.9-17.7c-0.3-6.9-0.4-13.9-1.2-20.8c-0.8-6,0.6-11.8,0.8-17.7c0.2-5.3,0.1-10.7-0.4-16
	c-0.1-1.7-0.3-3.3-0.5-5c-1.2-13-0.9-26.6-0.1-39.6c0.1-2.1,0.4-4.3,0.6-6.4c0.3-2.6,0.5-5.2,0.8-7.9c0.8-6.4,1.9-12.8,2.3-19.3
	c0.4-6.3,0.8-12.6,1.3-18.9c0.3-3.9,0.9-7.8,1.1-11.7c0-0.2,0.3-0.5,0.5-0.7c0.2,0.2,0.5,0.5,0.5,0.7c0.2,3.9,0.8,7.8,1.1,11.7
	c0.5,6.3,0.9,12.6,1.3,18.9c0.4,6.5,1.5,12.9,2.3,19.3c0.3,2.6,0.6,5.2,0.8,7.9c0.2,2.1,0.4,4.3,0.6,6.4c0.9,13,1.1,26.6-0.1,39.6
	c-0.1,1.7-0.3,3.3-0.5,5c-0.5,5.3-0.6,10.6-0.4,16c0.2,6,1.6,11.7,0.8,17.7c-0.9,6.9-0.9,13.9-1.2,20.8c-0.3,5.9-0.6,11.8-0.9,17.7
	c-0.3,6.7,0,13.4,0,20.1c0,7.4-0.2,14.6,0.2,22c0.5,7.6,0.9,15.1,1.5,22.7c1,14.7,2.1,29.2,2.1,44c0,14.1-0.1,28.2-0.2,42.2
	c0,5.1,0,10.2,0.1,15.2c0,4.2-0.9,10,0.5,14c0.3,0.8,0.7,1.6,1.1,2.4c0.8,1.8,1.1,3.8,2.3,5.4c4.2,5.2,13.8,3,19,1
	c1.7-0.7,3.5-1.6,4.4-3.2c1.1-2,0.4-4.5-0.3-6.7c-0.4-1.4-0.9-2.8-1.3-4.3c-0.4-1.2-0.8-2.5-1.1-3.7c-1-3.4-2.1-6.8-3.1-10.2
	c-3.4-10.8-1.7-23.6-0.3-34.7c0.5-3.8,1.1-7.7,1.7-11.5c0.6-3.8,1.3-7.6,1.9-11.4c0.5-2.9,1-5.8,1.6-8.6c0.4-2,0.7-4,1.1-6
	c1.5-8.3,3.4-16.5,5.2-24.8c0.4-1.9,0.8-3.7,1.3-5.6c0.9-3.8,1.7-7.6,2.6-11.4c0.4-1.8,0.8-3.5,1.2-5.3c1.4-6.4,2.5-12.9,3.4-19.3
	c0.7-4.8,1.2-9.7,1.8-14.6c1.2-10.6,0.9-21,0.3-31.6c0-0.7-0.1-1.5-0.1-2.2c-0.8-9.3-1.2-18.7-1.4-28c-0.2-8.8-0.6-17.8,0.9-26.5
	c0.4-2.3,0.9-4.6,1.5-6.9c6-25,14.6-49.2,19.3-74.5c2.9-15.6,3.8-31.9,3-47.6c-0.4-8.3-1.1-16.6-2.2-24.8c-1.3-9.2-3.3-18.2-6-27.1
	c-0.6-1.9-1.2-3.8-1.8-5.6c-2.9-8.9-5.9-17.8-8.4-26.9c-0.6-2.2-1.2-4.4-1.8-6.5c-0.3-1.3-0.6-2.6-1-3.9c-0.5-2.4-1.1-4.7-1.5-7.1
	c-0.4-1.8-0.7-3.7-1-5.5c-2.2-12.5-1.7-25.2,0.3-37.7c0.2-1.5,0.5-3.1,0.8-4.6c0.3-1.9,0.6-3.9,1.1-5.7c0.7-2.6,1.7-5.1,3.1-7.5
	c2.6-3.3,5.5-6.5,7.2-10.3c0.4,0,0.7,0,1.1-0.1c1-0.1,1.4,0.3,1.4,1.3c0.1,12.8,5.7,25.4,7.5,38.1c0.5,3.5,0.7,7,1.1,10.5
	c0.8,6.7,1.7,13.4,2.5,20.1c0.6,4.9,1.2,9.9,1.8,14.8c0.2,2,0.5,3.9,0.8,5.8c0.4,2.5,1,5.1,1.6,7.6c1.5,6.1,3.2,12.2,4.6,18.3
	c0.5,2.3,1.1,4.6,1.6,6.9c1.1,4.8,2.2,9.5,3.4,14.3c0.4,1.8,0.8,3.6,1.3,5.4c0.4,1.5,0.7,3,1.1,4.5c1.5,6.5,1,11.7-1.5,17.9
	c-2.1,5.1-4.9,9.9-6,15.4c-0.7,3.2-1,6.6-1.2,9.9c-0.1,0.9-0.1,1.8-0.2,2.7c-0.4,5.1-0.5,10.2-0.5,15.4c0,0.2,0,0.5,0.1,0.7
	c0.1,0.2,0.4,0.2,0.6,0.3c1.2,0.2,2.5-0.4,3.2-1.4c0.4-0.7,0.6-1.5,0.9-2.2c0.3-0.8,0.8-1.4,1.1-2.2c0.4-0.9,0.7-1.9,1-2.8
	c0.4-1.1,0.8-2.1,1.4-3.1c0.3-0.6,0.7-2.1,1.6-1.5c1.7,1.2,1.3,3.1,0.9,4.9c-0.4,2.3-0.9,4.6-1.7,6.8c-0.2,0.6-0.5,1.2-0.7,1.8
	c-0.1,0.4-0.3,0.7-0.4,1.1c-0.6,1.5-0.8,3.1-1.5,4.5c-0.6,1.3-1.9,2.1-2.4,3.3c-0.5,1-0.4,2.2-0.3,3.3c0,0.3,0.1,0.6,0.3,0.9
	c0.2,0.2,0.4,0.3,0.6,0.4c1.8,0.5,3.8-0.4,5.2-1.6c2.3-2.1,4.1-4.9,5.8-7.4c0.5-0.8,1-1.5,1.5-2.4c0.7-1.1,1.4-2.2,2.1-3.4
	c2.6-4.8,4.8-10.3,5.9-15.7c0.2-0.8,0.3-1.7,0.5-2.5c0.2-1,0.3-2,0.4-3c0.3-2.3,0.7-4.5,1.1-6.8c0.5-2.9,0.1-5.6,0.3-8.5
	c0.2-3.1,0.7-6.2,0.9-9.3c0.2-2.5,0.2-5.1,0.2-7.6c0-5.9,0-11.8,0-17.7C409.5,381.4,409.5,378.6,409.2,375.9z"/>
</svg>
