<svg width="516" height="500" viewBox="0 0 516 500" fill="none" xmlns="http://www.w3.org/2000/svg">
<path d="M495 157.146L314.5 157.146" stroke="#C6D5E1"/>
<path d="M304 105.105L333.5 75.5667H511" stroke="#C6D5E1"/>
<path d="M11 448H182L234.5 395.5" stroke="#C6D5E1"/>
<circle cx="235" cy="395" r="2" fill="#C6D5E1"/>
<g clip-path="url(#clip0)">
<path d="M324.345 223.239C323.91 218.135 323.785 213.032 323.723 207.929C323.661 198.345 323.225 188.76 321.171 179.3C320.86 177.993 320.549 176.624 320.176 175.317C319.304 172.517 318.308 169.716 317.686 166.853C316.441 161.003 316.068 155.091 315.757 149.116C315.632 147.249 315.57 145.382 315.383 143.515C315.134 140.154 314.45 136.794 314.45 133.433C314.45 129.948 314.45 126.587 313.952 123.164C313.579 120.488 313.579 117.687 313.267 114.949C312.894 112.086 312.334 109.223 311.711 106.423C311.276 104.431 310.716 102.377 309.969 100.448C309.035 98.0831 307.791 95.9049 306.173 93.9756C303.061 90.3037 298.58 88.4366 294.037 87.1297C289.369 85.8227 284.826 84.7025 280.345 82.8977C277.731 81.7774 275.117 80.4082 273.001 78.6034C271.819 77.6076 270.823 76.6119 270.138 75.2427C269.578 74.0602 269.142 72.8777 268.582 71.6953C268.458 71.4463 268.333 71.1974 268.333 70.9484C268.333 70.2016 270.761 69.766 271.321 69.1436C271.072 69.0191 270.885 68.8947 270.636 68.7702C270.2 68.5212 269.703 68.2723 269.329 67.8989C269.142 67.7122 269.018 67.4632 269.142 67.2765C269.267 67.0898 269.516 67.0276 269.765 67.0898C270.761 67.0898 271.756 67.1521 272.752 67.1521C273.063 67.1521 273.374 67.1521 273.623 66.9654C273.81 66.8409 273.935 66.5919 274.121 66.5297C274.37 66.4052 274.619 66.4675 274.868 66.4052C275.304 66.343 275.739 66.0941 276.113 65.8451C276.984 65.285 277.855 64.7249 278.727 64.1648C278.913 64.0403 279.162 63.8536 279.162 63.6046C279.162 63.4179 279.038 63.2935 278.851 63.169C278.104 62.4844 277.357 61.7998 276.611 61.1152C276.424 60.9285 276.175 60.7418 276.113 60.4306C275.926 59.4971 277.233 59.3104 277.855 59.3104C278.602 59.3104 279.411 59.3726 280.158 59.3726C280.718 59.3726 281.278 59.3726 281.776 59.2482C282.274 59.1237 282.772 58.688 282.959 58.1902C282.336 57.5678 281.652 57.0077 280.905 56.572C281.901 56.3853 282.896 56.1364 283.892 55.9497C283.208 55.2651 282.461 54.6427 282.025 53.7714C281.092 52.0288 281.714 50.2862 282.585 48.6681C283.519 46.8011 283.892 44.8095 284.328 42.7557C284.452 42.0712 284.577 41.3866 284.639 40.702C284.95 36.9679 284.017 32.6736 283.208 29.0639C281.776 22.9026 279.785 16.3057 276.673 10.7045C274.93 7.53046 272.503 5.10328 269.516 3.17398C268.52 2.55162 267.462 1.92927 266.342 1.68032C266.031 1.61809 265.719 1.55585 265.471 1.36915C265.222 1.24468 265.035 0.995734 264.724 0.871263C264.226 0.684557 263.666 0.933499 263.168 0.746792C262.919 0.622321 262.794 0.435615 262.545 0.311144C262.234 0.124437 261.923 0.0622018 261.55 0.0622018C259.994 -0.0622692 258.438 0.186673 256.882 0.435615V0.248908C256.82 0.311144 256.82 0.373379 256.758 0.49785C256.073 0.622321 255.388 0.746792 254.704 0.809028C254.019 0.746792 253.335 0.622321 252.65 0.49785C252.588 0.435615 252.588 0.373379 252.526 0.248908V0.435615C250.97 0.186673 249.414 -0.124505 247.858 0.0622018C247.547 0.0622018 247.173 0.124437 246.862 0.311144C246.675 0.435615 246.489 0.622321 246.24 0.746792C245.742 0.995734 245.182 0.684557 244.684 0.871263C244.373 0.995734 244.186 1.18244 243.937 1.36915C243.688 1.49362 243.377 1.55585 243.066 1.68032C241.945 1.9915 240.887 2.55162 239.892 3.17398C236.904 5.10328 234.477 7.53046 232.735 10.7045C229.685 16.3057 227.631 22.9026 226.2 29.0639C225.329 32.6736 224.395 36.9679 224.768 40.702C224.831 41.3866 224.955 42.0712 225.08 42.7557C225.515 44.8095 225.826 46.8011 226.822 48.6681C227.694 50.2862 228.316 52.0288 227.382 53.7714C226.947 54.5805 226.2 55.2651 225.515 55.9497C226.511 56.1364 227.507 56.3853 228.503 56.572C227.756 57.0699 227.133 57.63 226.449 58.1902C226.573 58.688 227.071 59.0615 227.631 59.2482C228.191 59.4349 228.689 59.3726 229.249 59.3726C229.996 59.3726 230.805 59.3104 231.552 59.3104C232.175 59.3104 233.481 59.4971 233.295 60.4306C233.233 60.6796 233.046 60.9285 232.797 61.1152C232.05 61.7998 231.303 62.4844 230.556 63.169C230.432 63.2935 230.307 63.4179 230.245 63.6046C230.245 63.8536 230.494 64.0403 230.681 64.1648C231.552 64.7249 232.423 65.285 233.295 65.8451C233.668 66.0941 234.042 66.343 234.539 66.4052C234.788 66.4052 235.037 66.4052 235.286 66.5297C235.473 66.6542 235.597 66.8409 235.784 66.9654C236.033 67.1521 236.344 67.1521 236.655 67.1521C237.651 67.1521 238.647 67.0898 239.643 67.0898C239.892 67.0898 240.141 67.0898 240.265 67.2765C240.39 67.4632 240.203 67.7122 240.078 67.8989C239.705 68.2723 239.269 68.5212 238.771 68.7702C238.523 68.8947 238.336 69.0191 238.087 69.1436C238.709 69.766 241.136 70.2016 241.074 70.9484C241.074 71.1974 240.95 71.4463 240.825 71.6953C240.265 72.8777 239.829 74.1224 239.269 75.2427C238.585 76.6741 237.589 77.6076 236.407 78.6034C234.228 80.4705 231.677 81.8396 229.063 82.8977C224.582 84.7647 220.039 85.8227 215.371 87.1297C210.828 88.4366 206.347 90.3037 203.235 93.9756C201.617 95.9049 200.372 98.1453 199.439 100.448C198.692 102.377 198.132 104.369 197.696 106.423C197.074 109.223 196.514 112.086 196.14 114.949C195.767 117.687 195.829 120.488 195.456 123.164C194.958 126.587 194.958 129.948 194.958 133.433C194.958 136.794 194.335 140.154 194.024 143.515C193.9 145.382 193.775 147.249 193.651 149.116C193.34 155.091 192.904 161.003 191.721 166.853C191.099 169.716 190.103 172.517 189.294 175.317C188.921 176.624 188.547 177.931 188.298 179.3C186.182 188.698 185.809 198.282 185.747 207.929C185.685 213.032 185.56 218.135 185.124 223.239C185 224.981 185 226.724 185 228.466C185 232.138 185 235.81 185 239.482C185 241.038 185 242.656 185.124 244.212C185.249 246.141 185.622 248.071 185.685 250C185.809 251.805 185.56 253.485 185.871 255.29C186.12 256.721 186.369 258.091 186.556 259.522C186.618 260.144 186.743 260.767 186.805 261.389C186.867 261.949 186.992 262.447 187.116 262.945C187.801 266.306 189.17 269.729 190.788 272.716C191.161 273.401 191.659 274.085 192.095 274.832C192.406 275.33 192.655 275.828 193.028 276.326C194.149 277.881 195.269 279.624 196.638 280.931C197.509 281.74 198.754 282.3 199.874 281.927C199.999 281.865 200.185 281.802 200.248 281.678C200.372 281.553 200.372 281.304 200.434 281.118C200.497 280.433 200.559 279.686 200.248 279.064C199.874 278.255 199.127 277.757 198.754 277.01C198.318 276.139 198.132 275.081 197.821 274.21C197.758 273.961 197.634 273.774 197.572 273.525C197.447 273.152 197.26 272.778 197.136 272.405C196.638 271.036 196.327 269.604 196.078 268.173C195.891 267.115 195.58 265.932 196.638 265.123C197.198 264.75 197.385 265.683 197.634 266.057C198.007 266.679 198.256 267.301 198.505 267.986C198.692 268.608 198.879 269.168 199.127 269.729C199.376 270.164 199.625 270.6 199.812 271.098C199.999 271.533 200.061 272.031 200.372 272.467C200.746 273.089 201.617 273.463 202.364 273.338C202.488 273.338 202.613 273.276 202.737 273.152C202.799 273.027 202.799 272.903 202.799 272.716C202.737 269.542 202.737 266.368 202.488 263.132C202.426 262.572 202.426 262.011 202.364 261.451C202.177 259.398 202.053 257.344 201.617 255.29C200.87 251.867 199.19 248.88 197.821 245.706C196.265 241.847 195.891 238.611 196.825 234.566C197.074 233.632 197.26 232.698 197.509 231.765C197.758 230.645 198.007 229.524 198.318 228.404C199.003 225.417 199.688 222.492 200.434 219.505C200.808 218.073 201.119 216.642 201.43 215.21C202.301 211.414 203.359 207.618 204.293 203.821C204.666 202.265 205.04 200.709 205.289 199.091C205.475 197.909 205.662 196.664 205.787 195.482C206.16 192.432 206.533 189.32 206.907 186.271C207.405 182.101 207.965 177.931 208.463 173.761C208.712 171.583 208.836 169.405 209.147 167.227C210.268 159.323 213.753 151.543 213.877 143.515C213.877 142.893 214.126 142.644 214.749 142.706C214.998 142.768 215.184 142.768 215.433 142.768C216.491 145.133 218.358 147.125 219.914 149.178C220.785 150.61 221.408 152.228 221.843 153.846C222.155 155.029 222.341 156.211 222.528 157.394C222.652 158.327 222.839 159.323 223.026 160.256C224.271 168.036 224.582 175.94 223.213 183.719C223.026 184.839 222.839 186.022 222.59 187.142C222.341 188.636 221.968 190.067 221.657 191.561C221.47 192.37 221.283 193.179 221.097 193.988C220.723 195.357 220.412 196.726 219.976 198.033C218.42 203.635 216.553 209.236 214.749 214.775C214.375 215.957 214.002 217.14 213.628 218.26C211.948 223.799 210.703 229.4 209.894 235.126C209.21 240.229 208.774 245.395 208.525 250.56C208.027 260.393 208.587 270.538 210.392 280.184C213.317 295.93 218.669 310.991 222.404 326.55C222.777 327.981 223.088 329.412 223.337 330.844C224.271 336.258 224.022 341.86 223.897 347.336C223.773 353.186 223.524 358.974 223.026 364.762C223.026 365.198 222.964 365.696 222.964 366.131C222.59 372.728 222.466 379.263 223.15 385.798C223.524 388.847 223.835 391.835 224.271 394.884C224.831 398.93 225.578 402.913 226.387 406.896C226.636 408.016 226.884 409.074 227.133 410.194C227.694 412.559 228.191 414.924 228.752 417.289C229 418.471 229.249 419.592 229.561 420.774C230.743 425.877 231.863 431.043 232.797 436.209C233.046 437.453 233.233 438.698 233.481 439.943C233.793 441.748 234.104 443.552 234.477 445.295C234.913 447.66 235.286 450.025 235.66 452.39C236.033 454.755 236.407 457.12 236.718 459.547C237.589 466.393 238.647 474.359 236.531 481.143C235.909 483.259 235.224 485.375 234.602 487.491C234.353 488.237 234.104 489.047 233.917 489.793C233.668 490.665 233.357 491.536 233.108 492.469C232.672 493.839 232.299 495.332 232.921 496.639C233.481 497.635 234.539 498.195 235.66 498.631C238.896 499.876 244.871 501.245 247.484 498.008C248.231 497.075 248.418 495.768 248.916 494.648C249.165 494.15 249.414 493.652 249.6 493.154C250.472 490.665 249.849 487.055 249.912 484.441C249.912 481.267 249.974 478.093 249.974 474.981C249.974 466.206 249.912 457.431 249.849 448.718C249.849 439.569 250.472 430.483 251.156 421.334C251.468 416.604 251.779 411.937 252.09 407.207C252.401 402.601 252.214 398.12 252.214 393.515C252.214 389.345 252.463 385.175 252.214 381.006C252.028 377.334 251.841 373.662 251.654 369.99C251.468 365.696 251.405 361.339 250.907 357.045C250.41 353.311 251.281 349.701 251.405 346.029C251.53 342.731 251.468 339.37 251.156 336.072C251.094 335.014 250.97 334.018 250.845 332.96C250.098 324.869 250.285 316.405 250.783 308.315C250.845 307.008 251.032 305.639 251.156 304.332C251.343 302.713 251.468 301.095 251.654 299.415C252.152 295.432 252.837 291.449 253.086 287.403C253.335 283.483 253.584 279.562 253.895 275.641C254.081 273.214 254.455 270.787 254.579 268.359C254.579 268.235 254.766 268.048 254.89 267.924C255.015 268.048 255.202 268.235 255.202 268.359C255.326 270.787 255.7 273.214 255.886 275.641C256.197 279.562 256.446 283.483 256.695 287.403C256.944 291.449 257.629 295.432 258.127 299.415C258.313 301.033 258.5 302.651 258.625 304.332C258.749 305.639 258.874 307.008 258.998 308.315C259.558 316.405 259.683 324.869 258.936 332.96C258.874 334.018 258.749 335.014 258.625 336.072C258.313 339.37 258.251 342.669 258.376 346.029C258.5 349.763 259.371 353.311 258.874 357.045C258.313 361.339 258.313 365.696 258.127 369.99C257.94 373.662 257.753 377.334 257.567 381.006C257.38 385.175 257.567 389.345 257.567 393.515C257.567 398.12 257.442 402.601 257.691 407.207C258.002 411.937 258.251 416.604 258.625 421.334C259.247 430.483 259.932 439.507 259.932 448.718C259.932 457.493 259.869 466.268 259.807 474.981C259.807 478.155 259.807 481.329 259.869 484.441C259.869 487.055 259.309 490.665 260.18 493.154C260.367 493.652 260.616 494.15 260.865 494.648C261.363 495.768 261.55 497.013 262.296 498.008C264.91 501.245 270.885 499.876 274.121 498.631C275.179 498.195 276.299 497.635 276.86 496.639C277.544 495.395 277.109 493.839 276.673 492.469C276.424 491.598 276.113 490.727 275.864 489.793C275.615 489.047 275.366 488.237 275.179 487.491C274.557 485.375 273.872 483.259 273.25 481.143C271.134 474.421 272.192 466.455 273.063 459.547C273.374 457.182 273.748 454.755 274.121 452.39C274.495 450.025 274.93 447.66 275.304 445.295C275.615 443.49 275.926 441.685 276.299 439.943C276.548 438.698 276.735 437.453 276.984 436.209C277.918 431.043 279.1 425.94 280.22 420.774C280.469 419.592 280.718 418.471 281.029 417.289C281.589 414.924 282.087 412.559 282.647 410.194C282.896 409.074 283.145 408.016 283.394 406.896C284.266 402.913 284.95 398.867 285.51 394.884C285.946 391.897 286.257 388.847 286.631 385.798C287.377 379.201 287.191 372.728 286.817 366.131C286.817 365.696 286.755 365.198 286.755 364.762C286.257 358.974 286.008 353.124 285.884 347.336C285.759 341.86 285.51 336.258 286.444 330.844C286.693 329.412 287.004 327.981 287.377 326.55C291.112 310.991 296.464 295.93 299.389 280.184C301.194 270.475 301.754 260.331 301.256 250.56C301.007 245.395 300.571 240.229 299.887 235.126C299.078 229.4 297.833 223.799 296.153 218.26C295.779 217.077 295.406 215.895 295.032 214.775C293.228 209.236 291.36 203.697 289.805 198.033C289.431 196.664 289.058 195.295 288.684 193.988C288.498 193.179 288.311 192.37 288.062 191.561C287.751 190.067 287.377 188.636 287.128 187.142C286.88 186.022 286.693 184.839 286.506 183.719C285.137 175.94 285.448 168.036 286.693 160.256C286.817 159.323 287.004 158.327 287.191 157.394C287.377 156.211 287.564 154.966 287.875 153.846C288.311 152.228 288.933 150.672 289.805 149.178C291.423 147.125 293.228 145.133 294.286 142.768C294.534 142.768 294.721 142.768 294.97 142.706C295.592 142.644 295.841 142.893 295.841 143.515C295.904 151.481 299.389 159.323 300.509 167.227C300.82 169.405 300.945 171.583 301.194 173.761C301.692 177.931 302.252 182.101 302.75 186.271C303.123 189.32 303.496 192.432 303.87 195.482C303.994 196.726 304.181 197.909 304.368 199.091C304.617 200.647 304.99 202.265 305.363 203.821C306.297 207.618 307.355 211.414 308.226 215.21C308.537 216.642 308.911 218.073 309.222 219.505C309.907 222.492 310.591 225.417 311.338 228.404C311.587 229.524 311.836 230.645 312.147 231.765C312.396 232.698 312.583 233.632 312.832 234.566C313.765 238.611 313.454 241.847 311.898 245.706C310.591 248.88 308.849 251.867 308.164 255.29C307.728 257.282 307.542 259.398 307.417 261.451C307.355 262.011 307.355 262.572 307.293 263.132C307.044 266.306 306.982 269.48 306.982 272.716C306.982 272.84 306.982 273.027 307.044 273.152C307.106 273.276 307.293 273.276 307.417 273.338C308.164 273.463 308.973 273.089 309.409 272.467C309.658 272.031 309.782 271.533 309.969 271.098C310.156 270.6 310.467 270.226 310.653 269.729C310.902 269.168 311.089 268.546 311.276 267.986C311.525 267.301 311.774 266.679 312.147 266.057C312.334 265.683 312.583 264.75 313.143 265.123C314.201 265.87 313.952 267.052 313.703 268.173C313.454 269.604 313.143 271.036 312.645 272.405C312.521 272.778 312.334 273.152 312.209 273.525C312.147 273.774 312.023 273.961 311.96 274.21C311.587 275.143 311.463 276.139 311.027 277.01C310.653 277.819 309.844 278.317 309.533 279.064C309.222 279.686 309.284 280.433 309.347 281.118C309.347 281.304 309.409 281.491 309.533 281.678C309.658 281.802 309.782 281.865 309.907 281.927C311.027 282.238 312.272 281.678 313.143 280.931C314.574 279.624 315.695 277.881 316.753 276.326C317.064 275.828 317.375 275.392 317.686 274.832C318.122 274.147 318.557 273.463 318.993 272.716C320.611 269.729 321.98 266.306 322.665 262.945C322.789 262.447 322.852 261.887 322.976 261.389C323.101 260.767 323.163 260.144 323.225 259.522C323.412 258.091 323.661 256.721 323.91 255.29C324.221 253.485 323.972 251.805 324.096 250C324.221 248.071 324.532 246.141 324.656 244.212C324.781 242.656 324.781 241.038 324.781 239.482C324.781 235.81 324.781 232.138 324.781 228.466C324.532 226.662 324.532 224.919 324.345 223.239Z" fill="#4D4F4F"/>
</g>
<circle cx="187" cy="243" r="2" fill="#C6D5E1"/>
<circle cx="218" cy="272" r="2" fill="#C6D5E1"/>
<circle cx="188" cy="214" r="2" fill="#C6D5E1"/>
<path d="M0.575684 320.856H169.034L218 271.891" stroke="#C6D5E1"/>
<circle cx="197" cy="144" r="2" fill="#C6D5E1"/>
<path d="M197 144L156 103L19 103" stroke="#C6D5E1"/>
<path d="M8 196L170.5 196L188.5 214" stroke="#C6D5E1"/>
<path d="M19 258H172.5L187.5 243" stroke="#C6D5E1"/>
<ellipse cx="291.999" cy="282.003" rx="1.99863" ry="2.00262" fill="#C6D5E1"/>
<path d="M499 282H291.5" stroke="#C6D5E1"/>
<circle r="2" transform="matrix(-1 0 0 1 281 321)" fill="#C6D5E1"/>
<path d="M516 386H345.5L281 321.5" stroke="#C6D5E1"/>
<path d="M254.5 215L499 215" stroke="#C6D5E1"/>
<circle cx="255" cy="215" r="2" fill="#C6D5E1"/>
<defs>
<clipPath id="clip0">
<rect width="139.781" height="500" fill="white" transform="translate(185)"/>
</clipPath>
</defs>
</svg>
