<svg width="528" height="500" viewBox="0 0 528 500" fill="none" xmlns="http://www.w3.org/2000/svg">
<path d="M507 157.146L326.5 157.146" stroke="#C6D5E1"/>
<path d="M23 448H194L246.5 395.5" stroke="#C6D5E1"/>
<circle cx="247" cy="395" r="2" fill="#C6D5E1"/>
<path d="M324 125.105L353.5 95.5667H523" stroke="#C6D5E1"/>
<path d="M345.087 261.017C345.087 256.563 344.85 252.227 343.84 247.892C343.543 246.585 343.187 245.279 342.949 243.972C342.474 241.24 342.652 238.449 342.831 235.717C343.068 230.253 343.068 224.73 343.068 219.266C343.068 217.366 343.068 215.406 342.89 213.505C342.534 208.576 342.415 203.647 342.237 198.717C342.059 193.55 341.94 188.265 341.524 183.038C341.405 181.613 341.227 180.247 341.049 178.881C340.455 173.18 340.217 167.775 338.911 162.193C338.079 158.689 337.129 155.244 336.238 151.681C334.219 143.129 335.823 134.458 334.575 125.906C334.041 122.283 333.506 118.601 332.556 115.037C331.25 110.286 329.112 105.773 326.083 101.853C322.401 96.983 318.125 93.8948 312.72 91.1629C307.91 88.7279 303.158 85.996 298.17 83.9767C297.101 83.561 296.032 83.1453 295.022 82.6108C293.953 82.0169 292.943 81.3042 291.993 80.5915C287.598 77.2657 283.501 73.4054 281.244 68.2979C281.006 67.7634 280.65 67.2883 280.531 66.5756C280.293 65.1503 282.194 63.2498 282.907 62.1214C283.322 61.4087 283.797 60.6961 284.035 59.8646C284.154 59.5083 284.213 59.1519 284.332 58.7956C284.391 58.558 284.57 58.3205 284.688 58.0829C285.401 56.717 285.935 55.1728 287.48 54.8165C289.202 54.4008 289.499 52.6785 289.796 51.1937C290.212 49.3527 290.865 47.571 291.34 45.7299C291.577 44.8391 291.756 43.8888 291.815 42.998C291.874 42.1665 291.993 41.0975 291.696 40.2661C291.577 39.9691 291.34 39.6722 291.043 39.494C290.449 39.1971 289.855 39.3159 289.796 38.4844C289.677 37.653 290.271 36.4058 290.449 35.5743C291.281 31.5952 291.518 27.4973 291.518 23.3995C291.518 19.4798 291.518 14.788 288.727 11.6404C288.133 10.9871 287.361 10.4526 286.47 10.3932C286.411 9.73989 286.351 9.08661 286.232 8.49272C284.688 8.19577 282.966 8.84905 281.6 8.07699C280.65 7.54248 280.115 6.35469 279.165 5.82019C278.631 5.52324 278.037 5.40446 277.621 5.04813C277.383 4.86996 277.205 4.57301 276.968 4.39484C276.493 4.0385 275.899 4.0385 275.305 4.0385C273.642 4.09789 271.92 4.21667 270.257 4.0385V2.67255C269.366 2.67255 265.09 4.09789 265.09 4.09789C263.427 4.27606 261.705 4.15728 260.042 4.09789C259.448 4.09789 258.854 4.09789 258.379 4.45423C258.141 4.6324 257.963 4.92935 257.725 5.10752C257.25 5.46385 256.656 5.58263 256.181 5.87958C255.231 6.41408 254.697 7.60187 253.746 8.13638C252.38 8.90844 248.995 9.79928 248.876 10.4526C247.986 10.512 247.214 11.0465 246.62 11.6997C243.888 14.8474 243.888 19.5392 243.828 23.4589C243.828 27.4973 244.066 31.5952 244.897 35.6337C245.076 36.4652 245.669 37.7123 245.551 38.5438C245.432 39.3752 244.897 39.2565 244.303 39.5534C244.007 39.7316 243.769 40.0285 243.65 40.3255C243.353 41.0975 243.472 42.2259 243.531 43.0574C243.591 44.0076 243.769 44.8985 244.007 45.7893C244.482 47.6304 245.135 49.4121 245.551 51.2531C245.848 52.7379 246.145 54.4602 247.867 54.8759C249.411 55.2322 249.945 56.717 250.658 58.1423C250.777 58.3799 250.896 58.6174 251.014 58.855C251.133 59.2113 251.193 59.5677 251.311 59.924C251.549 60.6961 251.965 61.4681 252.44 62.1808C253.152 63.3092 254.994 65.2097 254.815 66.635C254.697 67.2883 254.4 67.7634 254.103 68.3573C251.846 73.4648 247.689 77.3251 243.353 80.6509C242.403 81.3636 241.393 82.0763 240.324 82.6702C239.315 83.2047 238.246 83.6204 237.177 84.0361C232.188 86.0554 227.437 88.7873 222.626 91.2223C217.222 93.9542 212.946 97.0424 209.264 101.912C206.294 105.832 204.097 110.346 202.79 115.097C201.84 118.66 201.305 122.342 200.771 125.965C199.524 134.517 201.127 143.247 199.108 151.74C198.277 155.303 197.267 158.748 196.436 162.252C195.07 167.835 194.832 173.299 194.298 178.941C194.179 180.306 193.941 181.732 193.822 183.098C193.407 188.265 193.347 193.55 193.11 198.777C192.932 203.706 192.813 208.635 192.456 213.565C192.338 215.465 192.278 217.425 192.278 219.325C192.278 224.789 192.219 230.312 192.516 235.776C192.635 238.508 192.813 241.359 192.397 244.031C192.16 245.338 191.803 246.645 191.506 247.951C190.437 252.287 190.259 256.622 190.259 261.076C190.259 263.155 190.14 265.174 190.437 267.253C190.556 268.084 190.675 268.916 190.912 269.747C191.981 274.558 194.416 278.834 196.851 283.05C197.267 283.822 197.802 284.297 198.395 284.891C198.93 285.485 199.524 286.079 200.058 286.673C200.593 287.267 201.305 287.861 202.137 287.98C202.493 288.039 202.85 287.98 203.206 287.98C203.74 287.92 204.275 287.861 204.631 287.564C204.928 287.326 205.047 286.97 205.106 286.614C205.225 285.842 205.106 284.951 204.988 284.238C204.869 283.466 204.631 282.694 204.275 281.981C203.681 280.793 202.909 279.665 202.256 278.477C201.424 276.874 200.89 275.092 200.474 273.31C200.058 271.232 200.118 269.213 200.118 267.134C200.118 266.481 200.949 265.709 201.602 265.709C203.265 265.709 203.147 268.203 203.622 269.331C203.74 269.628 203.919 269.985 203.919 270.341C203.978 270.816 203.74 271.232 203.562 271.707C203.503 271.944 203.384 272.182 203.325 272.36C202.968 273.726 202.79 275.27 203.265 276.636C203.503 277.23 203.859 277.824 204.394 278.18C205.166 278.655 206.175 278.596 207.066 278.537C207.244 278.537 207.423 278.537 207.541 278.418C207.66 278.358 207.72 278.24 207.779 278.121C209.62 274.676 209.501 270.578 209.264 266.778C209.086 263.571 208.61 260.363 208.61 257.097C208.61 256.087 208.61 255.018 208.492 254.009C208.373 253.059 208.016 252.108 207.957 251.099C207.838 250.267 208.016 249.436 208.076 248.604C208.254 246.585 208.61 244.625 209.026 242.665C209.858 238.805 210.986 235.004 211.758 231.144C211.936 230.312 212.114 229.481 212.233 228.65C212.471 227.521 212.649 226.452 212.886 225.383C212.946 225.027 213.005 224.67 213.124 224.255C213.302 223.483 213.421 222.711 213.599 221.939C213.777 221.048 213.955 220.157 214.134 219.207C214.252 218.553 214.371 217.959 214.49 217.306C214.668 216.475 214.846 215.703 214.965 214.871C216.034 209.645 216.925 204.419 218.469 199.252C220.013 194.204 221.795 189.215 223.339 184.226C224.646 180.01 225.655 175.674 226.427 171.279C226.784 169.082 227.081 166.884 227.081 164.687C227.021 162.668 226.724 160.708 226.546 158.748C226.368 156.848 226.546 155.125 226.546 153.225C226.546 152.928 226.784 152.631 226.962 152.393C227.14 152.69 227.318 152.987 227.437 153.284C228.209 155.6 228.031 158.035 228.209 160.411C228.446 163.084 228.625 165.756 228.803 168.369C228.981 171.695 229.1 175.021 229.456 178.347C229.694 180.663 230.109 182.979 230.406 185.295C230.644 187.077 230.822 188.859 231 190.7C231.475 195.273 232.129 199.727 231.653 204.359C231.357 207.447 230.763 210.536 230.288 213.565C227.912 229.422 225.18 245.397 225.299 261.492C225.358 265.233 225.715 268.975 225.715 272.657C225.715 276.399 226.368 280.318 226.784 284.06C227.199 287.683 227.615 291.246 228.209 294.809C229.515 302.411 230.703 309.954 231.772 317.556C232.307 321.238 232.782 324.86 233.079 328.602C233.732 336.56 233.198 344.4 232.723 352.358C232.426 357.109 231.713 361.86 231.653 366.611C231.653 373.322 231.832 380.093 232.604 386.744C232.782 388.407 233.019 390.07 233.257 391.674C234.801 402.483 238.068 412.519 241.809 422.675C242.047 423.328 242.284 423.981 242.462 424.694C243.056 427.189 244.066 429.564 244.719 432.058C244.957 432.949 245.135 433.84 245.313 434.79C245.491 435.681 245.669 436.513 245.848 437.404C246.204 439.304 246.56 441.145 246.798 443.046C246.917 444.233 247.035 445.421 247.154 446.668C247.214 447.084 247.214 447.559 247.273 447.975C247.51 450.826 247.748 453.676 247.867 456.527C247.867 457.18 247.867 457.833 247.807 458.487C247.57 462.466 246.857 465.97 245.551 469.771C244.957 471.552 244.303 473.334 243.71 475.056C243.056 476.957 242.344 478.798 241.69 480.698C241.156 482.124 240.859 483.727 241.334 485.212C241.453 485.687 241.69 486.103 241.809 486.578C241.928 486.994 241.928 487.409 242.106 487.766C242.344 488.241 242.878 488.597 243.353 488.835C246.441 490.498 249.945 491.151 253.449 491.389C260.101 491.864 262.714 485.925 263.664 480.342C263.843 479.332 264.021 478.263 264.021 477.254C264.08 474.819 263.189 472.325 263.843 470.008C264.674 467.039 265.327 463.832 265.505 460.744C265.565 459.259 265.209 457.774 264.971 456.289C264.377 452.726 264.793 448.984 264.793 445.362C264.793 441.561 264.733 437.76 264.436 433.959C263.902 426.832 263.664 419.705 263.843 412.519C264.08 403.908 265.327 395.415 265.327 386.804C265.327 382.825 265.624 378.786 265.268 374.807C264.971 370.769 264.14 366.789 263.486 362.751C263.071 360.375 262.714 357.94 262.298 355.505C261.883 352.833 261.467 349.863 261.823 347.191C262.477 342.321 263.724 337.629 264.555 332.819C265.387 327.889 266.04 322.901 266.634 317.971C266.753 316.784 266.931 315.596 267.05 314.349C267.168 313.22 267.287 312.092 267.347 310.963C267.584 307.162 267.406 303.361 267.465 299.561C267.465 299.382 267.584 299.145 267.703 298.967C267.822 299.145 267.94 299.323 267.94 299.501C267.94 303.302 267.822 307.103 268.059 310.904C268.119 312.032 268.237 313.161 268.356 314.289C268.475 315.477 268.653 316.665 268.772 317.912C269.366 322.901 269.96 327.83 270.851 332.759C271.682 337.57 272.989 342.262 273.582 347.132C273.939 349.804 273.523 352.833 273.107 355.446C272.751 357.881 272.395 360.257 271.92 362.692C271.266 366.671 270.435 370.709 270.138 374.748C269.841 378.727 270.078 382.765 270.078 386.744C270.078 395.356 271.326 403.848 271.563 412.46C271.741 419.587 271.563 426.773 270.969 433.9C270.672 437.7 270.613 441.501 270.613 445.302C270.613 448.925 271.029 452.607 270.435 456.23C270.197 457.715 269.841 459.199 269.9 460.684C270.078 463.772 270.732 467.039 271.563 469.949C272.216 472.325 271.326 474.76 271.385 477.194C271.385 478.263 271.563 479.273 271.741 480.283C272.751 485.865 275.305 491.745 281.956 491.329C285.401 491.092 288.964 490.438 292.053 488.775C292.528 488.538 293.062 488.182 293.3 487.706C293.478 487.35 293.537 486.934 293.597 486.519C293.715 486.044 293.894 485.568 294.072 485.153C294.488 483.668 294.191 482.064 293.715 480.639C293.062 478.739 292.35 476.898 291.696 474.997C291.102 473.215 290.449 471.434 289.855 469.711C288.549 465.97 287.836 462.466 287.598 458.427C287.539 457.774 287.539 457.121 287.539 456.468C287.658 453.557 287.895 450.766 288.133 447.915C288.192 447.5 288.192 447.025 288.252 446.609C288.311 445.421 288.43 444.233 288.608 442.986C288.846 441.086 289.202 439.185 289.558 437.344C289.736 436.453 289.915 435.622 290.093 434.731C290.271 433.84 290.449 432.949 290.687 431.999C291.281 429.505 292.29 427.129 292.943 424.635C293.122 423.922 293.359 423.269 293.597 422.616C297.338 412.46 300.664 402.364 302.149 391.614C302.386 389.951 302.565 388.288 302.743 386.685C303.515 380.033 303.693 373.263 303.693 366.552C303.693 361.801 302.921 357.05 302.624 352.298C302.149 344.34 301.614 336.501 302.268 328.543C302.565 324.86 303.04 321.178 303.574 317.496C304.643 309.894 305.831 302.292 307.137 294.75C307.731 291.187 308.147 287.623 308.563 284.001C308.979 280.259 309.632 276.399 309.632 272.598C309.632 268.856 309.988 265.115 310.048 261.432C310.166 245.397 307.434 229.362 305.059 213.505C304.584 210.417 303.99 207.329 303.693 204.3C303.218 199.727 303.93 195.213 304.346 190.64C304.524 188.859 304.703 187.017 304.94 185.236C305.237 182.92 305.593 180.603 305.89 178.287C306.247 174.961 306.365 171.636 306.544 168.31C306.722 165.637 306.9 162.965 307.137 160.352C307.316 157.976 307.138 155.541 307.91 153.225C308.028 152.928 308.207 152.631 308.385 152.334C308.503 152.631 308.8 152.928 308.8 153.165C308.8 155.007 308.979 156.788 308.8 158.689C308.622 160.649 308.325 162.668 308.266 164.628C308.207 166.825 308.503 169.082 308.919 171.22C309.632 175.615 310.701 179.891 312.007 184.167C313.552 189.215 315.393 194.144 316.877 199.192C318.422 204.3 319.372 209.585 320.441 214.812C320.619 215.643 320.738 216.415 320.916 217.247C321.035 217.9 321.153 218.494 321.272 219.147C321.45 220.038 321.629 220.929 321.807 221.879C321.985 222.651 322.104 223.423 322.282 224.195C322.341 224.552 322.401 224.908 322.519 225.324C322.757 226.452 322.935 227.521 323.173 228.59C323.351 229.422 323.529 230.253 323.648 231.084C324.42 234.945 325.548 238.746 326.38 242.606C326.795 244.566 327.152 246.526 327.33 248.545C327.389 249.376 327.567 250.208 327.449 251.039C327.33 251.99 327.033 252.94 326.855 253.949C326.677 254.959 326.736 256.028 326.736 257.038C326.677 260.245 326.261 263.452 326.083 266.718C325.845 270.519 325.726 274.617 327.567 278.062C327.627 278.18 327.686 278.299 327.805 278.359C327.924 278.477 328.102 278.477 328.28 278.477C329.171 278.537 330.181 278.596 330.953 278.121C331.547 277.765 331.903 277.171 332.081 276.577C332.556 275.211 332.378 273.667 332.022 272.301C331.962 272.063 331.903 271.826 331.784 271.647C331.606 271.232 331.428 270.757 331.428 270.282C331.428 269.925 331.606 269.628 331.725 269.272C332.2 268.144 332.081 265.649 333.744 265.649C334.397 265.649 335.229 266.421 335.229 267.075C335.229 269.153 335.347 271.172 334.872 273.251C334.516 275.033 333.982 276.814 333.091 278.418C332.497 279.606 331.665 280.675 331.071 281.922C330.715 282.635 330.478 283.347 330.359 284.179C330.24 284.951 330.121 285.842 330.24 286.554C330.299 286.911 330.418 287.267 330.715 287.504C331.071 287.861 331.665 287.92 332.14 287.92C332.497 287.92 332.853 287.98 333.209 287.92C334.041 287.801 334.694 287.267 335.288 286.614C335.823 286.02 336.417 285.426 336.951 284.832C337.545 284.179 338.079 283.704 338.495 282.991C340.99 278.774 343.365 274.498 344.434 269.688C344.612 268.856 344.79 268.025 344.909 267.193C345.206 265.115 345.087 263.095 345.087 261.017Z" fill="#4D4F4F"/>
<ellipse cx="230.999" cy="270.792" rx="1.9986" ry="2.00259" fill="#C6D5E1"/>
<path d="M12.5757 320.856H181.034L230.5 271.293" stroke="#C6D5E1"/>
<circle cx="205" cy="146" r="2" fill="#C6D5E1"/>
<path d="M206.5 147L162.5 103L31 103" stroke="#C6D5E1"/>
<circle cx="239" cy="126" r="2" fill="#C6D5E1"/>
<path d="M239.05 126.5L137 24.4501H0" stroke="#C6D5E1"/>
<circle cx="196" cy="214" r="2" fill="#C6D5E1"/>
<path d="M20 196L178 196L196 214" stroke="#C6D5E1"/>
<circle cx="196" cy="243" r="2" fill="#C6D5E1"/>
<path d="M31 258H181L196 243" stroke="#C6D5E1"/>
<ellipse cx="293.381" cy="282.807" rx="1.99863" ry="2.00262" fill="#C6D5E1"/>
<path d="M511 282H294" stroke="#C6D5E1"/>
<circle r="2" transform="matrix(-1 0 0 1 289 318)" fill="#C6D5E1"/>
<path d="M528 386H357.5L289.5 318" stroke="#C6D5E1"/>
<path d="M266.5 215L511 215" stroke="#C6D5E1"/>
<circle cx="267" cy="215" r="2" fill="#C6D5E1"/>
</svg>
