<svg width="468" height="288" viewBox="0 0 468 288" fill="none" xmlns="http://www.w3.org/2000/svg">
<path d="M331.684 92.9196V135.225C331.684 137.514 329.82 139.379 327.532 139.379C325.245 139.379 323.381 137.514 323.381 135.225V5.2564C323.381 2.96732 325.245 1.10214 327.532 1.10214C329.82 1.10214 331.684 2.96732 331.684 5.2564V85.3741" stroke="#2788E7" stroke-width="2.5" stroke-miterlimit="10" stroke-linecap="round" stroke-dasharray="11.37 11.37"/>
<path d="M326.346 94.4457L331.684 85.2894L336.936 94.4457H326.346Z" fill="#2788E7"/>
<path d="M417.93 182.024C404.205 146.671 371.079 129.799 325.923 137.938C276.7 146.755 253.062 174.903 238.829 192.452C224.596 209.917 211.549 223.397 196.13 234.334C180.71 245.271 159.106 249.17 159.106 249.17L161.224 260.531C161.224 260.531 165.461 258.072 183.76 255.359C202.06 252.646 223.664 258.242 264.245 275.876C304.827 293.511 336.597 288.339 363.03 282.32C400.054 273.926 439.534 237.725 417.93 182.024ZM366.165 275.283C319.738 292.07 288.222 280.963 272.633 274.096C257.044 267.229 242.557 249.933 238.744 235.182C234.932 220.43 237.135 198.556 252.215 183.211C269.498 165.661 292.119 148.366 335.75 142.771C379.382 137.175 404.12 165.492 410.813 177.531C417.591 189.485 435.043 250.357 366.165 275.283Z" fill="#4D4F4F"/>
<path d="M73.4533 269.009L79.2143 288L176.474 258.496L172.577 243.151L73.4533 269.009Z" fill="#2788E7"/>
<path d="M53.0355 188.552C66.5061 202.372 89.7198 224.415 108.782 231.536C127.844 238.573 136.147 238.064 139.028 240.353C141.908 242.642 143.264 250.697 143.264 250.697L140.552 251.375C140.552 251.375 150.973 264.516 152.498 268.67C154.023 272.824 155.802 275.961 153.091 278.165C150.719 280.115 146.822 282.15 142.84 279.268C141.654 278.42 140.383 277.318 140.383 277.318C140.383 277.318 141.146 280.2 133.605 283.083C129.369 284.694 127.505 282.15 127.505 282.15C127.505 282.15 125.472 283.676 121.999 284.439C120.982 284.609 119.033 284.354 119.033 284.354C119.033 284.354 117 286.135 112.679 286.474C107.596 286.983 93.8711 277.487 92.0072 272.485C90.1434 267.483 81.756 256.292 75.4866 253.409C69.2172 250.527 6.18465 207.458 2.71108 205C-5.50687 199.235 5.168 201.015 33.0413 211.273C67.6075 223.906 44.3092 179.566 53.0355 188.552Z" fill="#C4C4C4"/>
<path d="M314.316 54.6835C313.553 54.514 312.875 54.6836 312.113 54.9379C312.875 57.1422 314.146 59.2617 315.925 61.0421C318.298 63.416 321.263 64.942 324.398 65.5355C322.11 61.2964 318.128 55.3618 314.316 54.6835Z" fill="#2788E7"/>
<path d="M332.87 36.1166C333.547 39.7621 339.139 43.6621 343.29 46.0359C342.613 43.0686 341.172 40.2708 338.885 37.9818C337.19 36.2861 335.072 35.0144 332.954 34.2514C332.785 34.8449 332.785 35.4383 332.87 36.1166Z" fill="#2788E7"/>
<path d="M330.667 36.5405C330.497 35.5231 330.582 34.5905 330.836 33.6579C325.668 32.5558 319.992 33.9971 315.925 38.0665C311.943 42.0512 310.419 47.6467 311.52 52.8184C312.537 52.3945 313.553 52.3097 314.739 52.4792C320.246 53.4966 325.245 62.1442 327.193 65.7898C331.429 65.8746 335.75 64.2638 338.97 61.0421C342.358 57.6509 343.883 53.2423 343.714 48.8337C339.902 46.7989 331.599 41.8817 330.667 36.5405Z" fill="#2788E7"/>
<path d="M439.873 134.123C451.649 151.588 458.003 173.97 461.222 189.23" stroke="#2788E7" stroke-width="2.5" stroke-miterlimit="10" stroke-linecap="round" stroke-dasharray="12.75 12.75"/>
<path d="M427.503 127.171L424.114 117.167L434.45 119.202L427.503 127.171Z" fill="#2788E7"/>
<path d="M457.579 198.472L464.103 206.78L468 196.946L457.579 198.472Z" fill="#2788E7"/>
</svg>
