<svg width="562" height="231" viewBox="0 0 562 231" fill="none" xmlns="http://www.w3.org/2000/svg">
<path d="M236.812 33.7942C242.363 61.5903 233.16 100.651 244.262 154.634C248.206 173.945 257.263 177.749 253.319 187.697C250.105 195.889 237.396 195.597 217.676 195.158C198.248 194.573 194.742 197.937 166.257 197.937C133.098 197.937 121.704 185.941 134.705 184.186C154.717 181.406 176.483 168.825 185.101 163.558C195.472 157.414 202.776 148.051 195.765 123.766C189.191 101.236 158.661 17.5554 169.617 25.7479C191.09 41.8404 197.81 53.2514 199.563 38.6219C201.9 19.1647 192.113 -8.04623 200.731 2.48702C215.047 20.6276 228.632 -7.60735 236.812 33.7942Z" fill="#C4C4C4"/>
<path d="M3.38228 207.593H558.618" stroke="#2786E5" stroke-width="6" stroke-miterlimit="10" stroke-linecap="round" stroke-linejoin="round"/>
<path d="M251.858 64.8087C276.837 83.0956 342.571 124.936 365.943 145.417C383.911 161.071 377.629 190.915 375.73 198.669C373.685 206.422 367.988 221.052 360.246 224.27C351.043 228.22 367.112 236.706 389.461 225.148C397.934 220.759 411.957 202.765 418.531 188.282C423.789 176.578 423.789 176.578 430.801 169.556C448.33 152.147 443.364 141.467 436.06 137.517C428.902 133.567 416.193 130.642 400.271 122.449C383.911 113.964 380.405 105.186 351.043 74.4642C321.682 43.7422 298.602 26.9183 305.176 38.0367C311.749 49.1552 319.929 63.1995 296.849 59.5421C274.061 55.8847 221.328 42.2793 251.858 64.8087Z" fill="#C4C4C4"/>
</svg>
