<svg width="584" height="165" viewBox="0 0 584 165" fill="none" xmlns="http://www.w3.org/2000/svg">
<path d="M34.3643 152.664C110.992 112.569 239.555 71.9827 333.332 71.9827C470.518 71.9827 535.191 128.293 555.573 150.699" stroke="#2789E8" stroke-width="2" stroke-miterlimit="10" stroke-linecap="round" stroke-dasharray="11.91 11.91"/>
<path d="M6.16305 87.308C9.70336 94.2335 12.0636 92.3802 18.4558 100.769C26.3232 111.011 33.6005 114.522 33.6005 116.961C33.6005 119.399 25.7331 125.935 23.963 133.738C22.1928 141.541 22.1928 151.1 19.4392 153.539C16.6856 155.977 12.9486 162.415 19.1442 163.293C25.8315 164.171 25.0447 163.586 28.7817 164.366C32.5187 165.146 42.0579 165.341 42.8446 164.171C43.6314 163 39.206 161.83 34.6822 159.782C30.1585 157.831 28.0933 155.782 28.3883 153.539C28.6834 151.295 47.565 123.106 47.8601 118.716C48.3518 111.011 43.0413 104.573 39.5993 98.8179C34.2889 90.1367 26.0281 85.6498 28.29 84.6744C30.5519 83.6989 35.2723 84.3817 44.1231 83.4063C52.8755 82.4309 53.8589 86.5277 61.923 80.1874C69.987 73.8472 71.0688 69.1652 75.7892 69.1652C80.5096 69.1652 80.0179 68.3849 84.5416 69.1652C89.0654 69.9456 92.6057 56.9725 90.0488 50.7298C87.5902 44.4872 77.2643 43.024 73.724 46.0478C70.1837 49.0716 69.987 60.9717 67.9218 60.6791C65.8567 60.3865 55.1374 57.1676 49.8269 57.4602C44.5164 57.7528 42.8446 56.4848 39.0093 55.7045C35.2723 54.9241 19.4392 55.2168 15.8989 53.461C12.3586 51.7053 7.34315 48.9741 2.13103 49.2667C-3.17944 49.5593 2.42605 53.9487 8.12989 55.7045C13.9321 57.4602 19.6359 59.8988 26.9132 61.1668C34.1905 62.4348 44.2214 64.3857 49.7286 64.3857C55.2357 64.3857 47.4667 66.7267 43.238 67.1169C29.4701 68.2874 21.7011 72.0915 15.8989 71.6038C10.0967 71.1161 1.34429 77.8464 6.16305 87.308Z" fill="#4D4F4F"/>
<path d="M333.249 21.2722C325.48 27.2223 312.302 48.2913 308.073 53.2659C303.845 58.2406 299.321 61.9472 303.451 68.1898C307.582 74.4325 325.48 86.4301 327.939 89.3564C330.397 92.2826 321.94 86.5277 312.302 87.4055C302.665 88.2834 297.649 90.917 294.306 88.576C290.962 86.235 286.34 82.4309 285.553 86.6252C284.668 90.8195 280.538 96.1843 276.309 99.1106C272.08 102.037 266.671 107.792 273.752 104.866C280.833 101.939 289.29 97.4523 295.584 97.8425C301.878 98.2327 336.101 104.085 343.575 100.379C351.147 96.672 341.313 84.5768 334.527 75.0177C328.627 66.6292 321.153 59.216 321.153 59.216C321.153 59.216 329.905 52.7782 342.985 42.6339C346.328 40.0003 345.443 32.6846 345.443 32.6846C345.443 32.6846 352.229 37.2691 364.325 37.6593C376.519 38.0494 380.65 40.1953 387.337 40.1953C394.024 40.1953 395.303 42.0486 400.712 42.0486C406.12 42.0486 411.431 38.6347 407.596 37.3666C403.859 36.0986 394.811 36.001 392.746 34.8305C390.681 33.5625 389.402 32.8797 377.208 31.6117C372.586 31.124 365.308 29.3682 359.113 27.8075C352.917 26.2469 347.902 24.6862 347.902 24.6862L349.18 23.8083C351.147 22.4427 353.704 22.0526 355.966 22.9304C357.638 23.5157 359.605 23.028 360.686 21.5649C362.555 19.1263 364.817 14.8345 363.243 9.17706C360.785 0.105678 353.704 -1.16236 348.394 0.788471C346.033 1.66635 341.018 4.5926 341.313 11.6156C341.608 18.6386 340.625 19.8091 339.543 19.8091C338.658 19.5165 336.101 19.1263 333.249 21.2722Z" fill="#4D4F4F"/>
<path d="M476.632 121.448C479.09 130.226 503.086 129.446 512.527 129.836C521.967 130.324 528.163 126.13 534.26 135.494C540.357 144.858 546.061 146.711 553.142 151.393C560.222 156.075 561.206 163.293 564.943 163.293C568.188 163.293 568.188 160.367 572.22 158.611C579.989 155.099 582.743 151.783 583.825 150.515C585.791 148.076 570.647 152.563 567.205 151.003C566.516 150.71 565.041 150.905 563.173 148.759C559.239 144.467 552.158 135.786 546.258 129.739C542.619 126.032 537.014 119.009 534.555 118.131C528.851 115.985 511.936 113.937 505.839 112.571C499.742 111.206 514.297 102.719 520.984 99.0129C527.573 95.3063 528.065 90.6243 530.228 86.8202C532.392 83.1136 536.129 86.3325 541.832 86.8202C547.536 87.3079 552.65 76.9685 553.142 72.2865C553.634 67.6045 545.078 62.2397 537.997 64.1905C530.916 66.1413 535.637 76.4808 530.228 75.9931C524.819 75.5053 522.754 72.5791 511.937 71.7012C508.2 71.4086 501.906 71.7012 496.3 70.5307C493.94 70.043 486.073 68.6774 477.91 67.6045C474.468 67.2143 467.879 65.1659 465.814 65.6536C455.783 67.8971 452.046 69.1651 460.11 70.6283C463.946 71.311 473.78 71.4086 476.238 71.7988C480.172 72.384 483.417 74.2373 489.81 75.8955C502.102 79.2119 506.036 76.3832 506.528 79.6996C506.921 82.9185 472.403 106.426 476.632 121.448Z" fill="#4D4F4F"/>
</svg>
