<svg width="517" height="346" viewBox="0 0 517 346" fill="none" xmlns="http://www.w3.org/2000/svg">
<path d="M348 340C348 340 289.776 263 202 263C119.497 263 56 340 56 340" stroke="#2789E8" stroke-width="1.8954" stroke-miterlimit="10" stroke-linecap="round" stroke-dasharray="11.37 11.37"/>
<path d="M193.409 210.112C192.245 195.211 198.586 197.025 197.421 187.825C196.256 178.625 195.092 158.67 195.092 150.637C195.092 142.603 188.75 133.403 191.856 125.499C194.962 117.595 196.256 112.282 193.151 91.6796C190.045 71.0771 192.762 65.3758 196.774 59.6744C200.786 53.9731 197.292 48.2718 193.927 34.5368C191.986 26.8918 193.927 21.0609 198.327 18.0807C198.586 17.8215 198.845 17.6919 199.103 17.5624C199.88 17.0441 200.786 16.7849 201.692 16.3962C202.339 16.2666 203.115 16.0075 203.762 16.0075C205.704 15.7483 207.774 15.6187 209.715 15.7483C211.656 15.8779 213.598 16.3962 215.409 17.1736C217.221 18.0807 218.774 19.2469 220.198 20.6722C228.739 29.6129 226.539 48.1422 224.468 50.0858C222.009 52.4182 216.056 51.252 214.892 56.9534C214.762 57.6012 214.762 58.1195 214.762 58.7674C225.115 57.6012 236.633 58.2491 239.609 57.3421C240.904 56.9534 241.551 52.0295 243.233 44.7733C245.045 36.9987 246.339 28.3171 245.951 23.2637C245.045 13.4159 246.339 7.58504 250.351 2.66117C254.362 -2.2627 256.562 1.75414 257.468 10.3061C258.374 18.8581 253.845 20.1539 254.362 27.2805C254.751 34.4072 258.762 61.2294 248.151 67.9673C240.645 72.7616 230.162 74.7052 221.88 76.1305V76.2601C220.456 76.5193 218.904 76.7784 217.48 77.1672C214.374 77.9446 211.139 78.8516 208.68 80.9249L220.845 77.815C221.362 77.815 221.88 77.6855 222.527 77.6855C222.657 78.0742 222.786 78.4629 223.045 78.8516C228.221 91.4205 219.033 120.705 219.421 132.107C219.68 143.51 221.362 185.363 215.668 198.45C209.974 211.667 211.139 227.086 210.492 239.137C209.974 251.187 210.233 255.334 213.08 264.922C215.539 272.956 221.362 283.322 218.515 284.359C215.668 285.525 209.327 276.325 205.315 271.142C201.303 265.959 194.445 267.125 193.28 260.258C192.115 253.39 196.774 250.539 196.774 241.987C196.774 233.176 194.574 225.143 193.409 210.112Z" fill="#4D4F4F"/>
<path d="M307.532 232.917C315.814 216.85 315.814 222.94 327.979 205.836C340.144 188.732 351.403 175.904 363.826 178.754C371.591 173.183 363.826 164.372 372.368 150.637C380.909 136.772 400.191 148.304 400.191 159.448C400.191 169.943 393.591 180.957 388.544 183.808C383.626 186.529 376.379 180.439 374.697 184.974C373.015 189.38 375.215 193.267 372.238 208.168C369.132 223.069 348.815 247.43 348.815 247.43C348.815 247.43 384.791 275.418 387.509 284.229C389.709 291.356 359.426 318.048 353.344 322.454C347.262 326.859 348.297 332.042 351.273 334.245C354.25 336.448 367.709 340.465 369.779 343.834C371.073 346.037 357.615 344.352 346.615 343.704C338.979 343.316 333.414 344.482 331.214 343.834C323.709 341.631 332.638 330.488 336.65 324.916C340.144 319.992 341.826 315.586 351.273 300.167C358.779 287.857 366.544 287.468 360.462 285.136C354.379 282.933 310.767 260.258 320.732 243.672C324.097 237.971 326.426 233.695 329.144 227.216C331.473 224.624 333.932 222.033 336.52 219.571C339.497 216.72 342.862 213.999 346.226 211.667C349.85 209.464 352.826 206.224 355.285 202.726C357.744 199.227 359.944 195.599 361.885 191.842C359.815 195.599 357.485 199.098 354.897 202.467C352.309 205.836 349.332 208.686 345.579 210.889C341.956 213.222 338.591 215.813 335.356 218.664C333.803 220.089 330.956 222.681 330.956 222.681C327.85 225.272 325.003 228.123 322.285 231.751C312.709 244.708 307.403 246.134 303.003 256.111C300.026 262.59 290.32 268.291 288.638 261.683C287.085 254.945 299.25 248.855 307.532 232.917Z" fill="#4D4F4F"/>
<path d="M19.0237 232.917C27.306 216.85 27.306 222.94 39.4707 205.836C51.6355 188.732 62.8944 175.904 75.3179 178.754C83.0827 173.183 75.3179 164.372 83.8591 150.637C92.4003 136.772 111.683 148.434 111.683 159.448C111.683 169.943 105.083 180.957 100.036 183.808C95.118 186.529 87.8709 180.439 86.1885 184.974C84.5062 189.38 86.7062 193.267 83.7297 208.168C80.6238 223.069 60.3061 247.43 60.3061 247.43C60.3061 247.43 96.1533 275.547 99.0003 284.488C101.2 291.615 70.9179 318.307 64.8355 322.713C58.7532 327.119 59.7885 332.302 62.7649 334.504C65.7414 336.707 79.2003 340.724 81.2709 344.093C82.565 346.296 69.1061 344.611 58.1061 343.963C50.4708 343.575 44.9061 344.741 42.7061 344.093C35.2001 341.89 44.1296 330.747 48.1414 325.175C51.6355 320.251 53.3178 315.845 62.7649 300.426C70.2708 288.116 78.0356 287.728 71.9532 285.395C65.8708 283.192 22.2589 260.517 32.2237 243.931C35.5884 238.23 37.9178 233.954 40.6355 227.475C42.9649 224.883 45.4237 222.292 48.012 219.83C50.9884 216.979 54.3532 214.258 57.7179 211.926C61.3414 209.723 64.3179 206.484 66.7767 202.985C69.2355 199.487 71.4356 195.858 73.3767 192.101C71.3061 195.858 68.9767 199.357 66.3885 202.726C63.8003 206.095 60.8238 208.946 57.0708 211.148C53.4473 213.481 50.0826 216.072 46.8473 218.923C45.2943 220.348 42.4473 222.94 42.4473 222.94C39.3414 225.531 36.4943 228.382 33.7766 232.01C24.2001 244.968 18.8942 246.393 14.4942 256.37C11.5177 262.849 1.81183 268.55 0.129471 261.942C-1.42348 254.945 10.7413 248.855 19.0237 232.917Z" fill="#4D4F4F"/>
<path d="M0 345H517" stroke="#A6A7A7" stroke-width="2"/>
</svg>
