<svg width="584" height="196" viewBox="0 0 584 196" fill="none" xmlns="http://www.w3.org/2000/svg">
<path d="M65.2878 110.598C117.537 60.3948 193.974 8.68176 287.607 8.68176C436.606 8.68176 542.144 139.474 575.686 187.224" stroke="#2789E8" stroke-width="1.9787" stroke-miterlimit="10" stroke-linecap="round" stroke-dasharray="11.87 11.87"/>
<path d="M0.37796 152.308C-0.661354 159.669 0.755893 174.107 0.37796 181.184C2.78614e-05 188.262 0.188994 192.886 5.48005 194.301C10.7711 195.717 22.2036 195.151 34.3919 191.753C46.4857 188.451 44.2181 190.81 50.265 191.093C56.312 191.47 66.9885 191.093 71.0513 191.282C75.1141 191.47 81.161 193.924 82.3893 192.697C83.901 191.187 82.8617 188.734 83.1451 186.941C83.3341 185.62 84.1845 184.204 84.4679 181.939C85.1293 177.221 85.3183 174.013 83.7121 173.541C82.1058 173.163 80.4051 177.976 78.7989 180.146C77.1927 182.317 72.941 184.865 70.8624 184.865C68.7837 184.865 47.714 181.184 44.0291 180.807C40.3443 180.429 17.8573 183.732 16.818 182.506C13.7001 178.825 19.558 162.311 18.6132 158.348C18.0463 155.8 15.0228 150.61 13.7001 148.25C12.9442 146.929 13.9835 145.231 14.6449 145.514C15.5897 145.891 16.818 147.495 18.3297 145.797C20.0304 143.815 21.0698 134.473 19.1801 132.208C17.196 129.943 8.03109 126.169 6.14143 132.869C4.15728 139.569 7.36971 141.739 6.61384 144.476C6.04695 147.307 0.850376 149.1 0.37796 152.308Z" fill="#4D4F4F"/>
<path d="M44.1237 179.203C47.8085 179.58 68.8782 183.26 70.9569 183.26C73.0355 183.26 77.3817 180.618 78.8934 178.542C80.0272 176.938 81.35 173.918 82.5783 172.597C82.4838 171.37 82.1059 170.521 81.35 170.332C79.7438 169.955 78.0431 174.767 76.4369 176.938C74.8307 179.014 70.5789 181.656 68.5003 181.656C66.4217 181.656 45.8244 176.655 42.1395 176.277C40.1554 176.089 34.5809 178.825 27.7781 180.618C35.2422 179.958 42.045 179.014 44.1237 179.203Z" fill="#4D4F4F"/>
<path d="M65.1934 119.28C69.9941 119.28 73.8858 115.393 73.8858 110.598C73.8858 105.803 69.9941 101.916 65.1934 101.916C60.3927 101.916 56.5009 105.803 56.5009 110.598C56.5009 115.393 60.3927 119.28 65.1934 119.28Z" fill="#4D4F4F"/>
<path d="M296.394 17.3635C301.194 17.3635 305.086 13.4766 305.086 8.68175C305.086 3.88695 301.194 0 296.394 0C291.593 0 287.701 3.88695 287.701 8.68175C287.701 13.4766 291.593 17.3635 296.394 17.3635Z" fill="#4D4F4F"/>
<path d="M575.308 196C580.108 196 584 192.113 584 187.318C584 182.523 580.108 178.636 575.308 178.636C570.507 178.636 566.615 182.523 566.615 187.318C566.615 192.113 570.507 196 575.308 196Z" fill="#4D4F4F"/>
<path d="M8.5035 163.821C13.7001 163.915 25.7939 155.139 28.7229 152.497C31.9353 149.572 31.7463 150.61 36.6595 148.628C41.856 146.457 42.9898 144.287 49.4147 139.946C52.9105 137.587 53.0995 138.719 55.934 135.511C59.3354 131.642 53.2885 133.812 49.3202 136.266C45.3519 138.814 43.5567 140.607 38.1712 142.022C32.7857 143.438 33.0691 144.004 30.3291 145.702C28.156 147.118 20.7863 147.684 18.4242 150.043C16.0621 152.403 13.1332 151.553 9.92074 153.535C6.70832 155.517 3.87383 163.632 8.5035 163.821Z" fill="#4D4F4F"/>
<path d="M18.5187 150.138C20.7863 147.684 28.156 146.74 30.2346 145.231C32.8802 143.343 32.5967 142.777 37.8878 141.078C38.9271 140.701 39.8719 140.418 40.7222 140.04C41.7616 139.002 42.8954 137.776 44.5016 136.36C47.6195 133.529 47.9974 134.661 50.3595 131.076C53.194 126.735 47.525 129.754 43.8402 132.774C40.2498 135.794 38.7381 137.87 33.636 140.04C28.5339 142.211 28.9119 142.683 26.4553 144.853C24.5656 146.552 17.2904 148.156 15.3063 150.798C14.5504 151.742 13.7001 152.308 12.7552 152.78C14.8339 152.025 16.9125 151.836 18.5187 150.138Z" fill="#4D4F4F"/>
</svg>
