<svg width="46" height="181" viewBox="0 0 46 181" fill="none" xmlns="http://www.w3.org/2000/svg">
<path d="M4.45919 38.3706C4.48482 38.3209 4.51045 38.2713 4.53607 38.2216C6.84248 34.7198 17.4263 32.3356 19.4508 31.4415C21.4753 30.5475 21.3216 23.6184 19.8865 21.9544C18.4258 20.2656 16.555 14.2306 16.555 9.58643C16.555 4.94222 22.7823 1.58945 26.1138 1.58945C27.2926 1.58945 28.8558 2.03648 30.3678 2.78154C31.4954 1.26659 32.5717 0.347679 33.4943 0.0496549C36.1082 -0.794747 42.3355 8.76686 42.9762 15.075C43.6168 21.3832 45.4363 26.3006 45.872 32.0624C46.3077 37.8242 45.2826 41.177 44.4113 46.2434C43.54 51.285 40.4904 63.4791 40.4648 63.5785C39.6447 67.0554 39.2859 70.3585 39.8497 73.0656C39.901 73.3139 39.9522 73.5871 40.0035 73.8355C40.0547 73.8851 40.0804 73.9348 40.0804 74.0093C40.106 74.2825 40.1316 74.5557 40.1829 74.8289C40.3366 75.6981 40.4648 76.5425 40.5929 77.3621C40.5929 77.3869 40.5929 77.4118 40.5929 77.4366C41.5155 83.3474 42.5662 89.3079 42.5149 95.2932C42.4893 96.684 42.3611 98.0748 42.3611 99.4656C42.3611 100.856 42.1049 102.322 41.9511 103.712C41.7973 105.054 41.6436 106.395 41.4129 107.711C40.9004 110.542 40.4648 113.349 40.0547 116.18C39.8497 117.546 39.6703 118.912 39.5422 120.302C39.2859 123.258 39.4909 126.188 39.6703 129.169C39.7728 130.932 40.0547 132.72 40.0804 134.483C40.0804 136.992 40.0035 139.5 39.7216 141.984C39.6447 142.605 39.5678 143.225 39.4653 143.821C38.8759 147.845 37.6202 151.595 36.1851 155.37C36.0826 155.618 36.0057 155.867 35.9288 156.115C35.6982 157.034 35.3138 157.928 35.0575 158.872C34.955 159.195 34.9038 159.542 34.8269 159.89C34.75 160.213 34.6987 160.536 34.6219 160.859C34.4937 161.579 34.34 162.249 34.2631 162.97C34.2118 163.417 34.1606 163.864 34.135 164.311C34.1093 164.46 34.1093 164.634 34.0837 164.807C33.9812 165.875 33.9043 166.943 33.8531 167.986C33.8531 168.235 33.8531 168.483 33.8787 168.707C33.9812 170.197 34.2375 171.488 34.75 172.904C34.9806 173.574 35.2369 174.22 35.4675 174.866C35.7238 175.586 36.0057 176.256 36.2363 176.977C36.4414 177.498 36.5439 178.094 36.3645 178.665C36.3132 178.839 36.2363 178.988 36.1851 179.187C36.1338 179.336 36.1338 179.485 36.0826 179.634C35.9801 179.808 35.7751 179.932 35.5957 180.031C34.4169 180.652 33.0586 180.901 31.7004 180.975C29.1377 181.149 28.1383 178.939 27.7795 176.852C27.7026 176.48 27.6514 176.083 27.6514 175.71C27.6258 174.791 27.9589 173.872 27.7283 173.003C27.4207 171.885 27.1645 170.693 27.0876 169.551C27.062 169.005 27.1901 168.433 27.2926 167.887C27.5233 166.571 27.3695 165.155 27.3695 163.814C27.3695 162.398 27.3951 160.983 27.4976 159.567C27.7026 156.91 27.8052 154.252 27.7283 151.57C27.6258 148.366 27.1645 145.187 27.1645 141.984C27.1645 140.494 27.062 139.003 27.1901 137.513C27.2926 135.998 27.6258 134.533 27.882 133.018C28.0358 132.124 28.1896 131.23 28.3433 130.311C28.4971 129.318 28.6508 128.2 28.5227 127.207C28.2664 125.394 28.0358 123.655 27.7283 121.842C27.4207 120.004 27.1645 118.142 26.9338 116.304C26.8826 115.857 26.8313 115.41 26.7801 114.963C26.7288 114.541 26.6776 114.118 26.6776 113.696C26.5751 112.281 26.6519 110.865 26.6263 109.449C26.6263 109.375 26.3188 102.694 26.2675 102.62C26.2163 102.694 25.9088 109.375 25.9088 109.425C25.9088 110.84 25.96 112.256 25.8575 113.671C25.8319 114.094 25.7806 114.516 25.755 114.938C25.7038 115.385 25.6525 115.832 25.6013 116.279C25.3706 118.142 25.14 119.98 24.8068 121.817C24.4993 123.606 24.243 125.369 24.0124 127.182C23.8843 128.175 24.038 129.318 24.1918 130.286C24.3199 131.205 24.4737 132.074 24.6531 132.993C24.9093 134.483 25.2169 135.974 25.345 137.488C25.4475 138.979 25.3706 140.469 25.3706 141.959C25.3706 145.163 24.8837 148.342 24.8068 151.545C24.7299 154.203 24.8068 156.885 25.0375 159.542C25.14 160.958 25.1656 162.374 25.1656 163.789C25.1656 165.13 25.0118 166.521 25.2425 167.862C25.345 168.408 25.4731 168.98 25.4475 169.526C25.3706 170.669 25.14 171.885 24.8068 172.978C24.5506 173.872 24.9093 174.766 24.8837 175.685C24.8837 176.083 24.8068 176.455 24.7556 176.828C24.3712 178.914 23.3974 181.099 20.8347 180.95C19.5021 180.851 18.1439 180.627 16.9394 180.007C16.76 179.907 16.555 179.783 16.4525 179.609C16.3756 179.485 16.35 179.311 16.35 179.162C16.2987 178.988 16.2475 178.814 16.1706 178.665C16.0169 178.119 16.1194 177.523 16.2987 176.977C16.555 176.256 16.8369 175.586 17.0675 174.866C17.2982 174.195 17.5545 173.549 17.7851 172.904C18.2976 171.513 18.5539 170.197 18.6564 168.707C18.682 168.458 18.682 168.21 18.682 167.986C18.6308 166.894 18.5539 165.85 18.4514 164.807C18.4258 164.658 18.4258 164.484 18.4001 164.311C18.3745 163.864 18.3233 163.417 18.272 162.97C18.1695 162.249 18.0414 161.554 17.9132 160.859C17.8364 160.536 17.7851 160.213 17.7082 159.89C17.6313 159.567 17.5801 159.219 17.4776 158.872C17.2469 157.953 16.8625 157.059 16.6063 156.115C16.5294 155.842 16.4525 155.618 16.35 155.37C14.9149 151.595 13.6336 147.82 13.0698 143.821C12.9673 143.201 12.916 142.58 12.8391 141.984C12.5316 139.5 12.4804 136.992 12.4804 134.483C12.4804 132.72 12.7879 130.932 12.8904 129.169C13.0698 126.213 13.2748 123.283 13.0185 120.302C12.916 118.936 12.711 117.546 12.506 116.18C12.096 113.349 10.7377 105.054 10.584 103.688C10.4302 102.297 10.174 100.856 10.174 99.4407C10.174 98.0499 10.0458 96.6592 10.0202 95.2684C9.96894 89.5314 10.7121 83.7944 11.5834 78.1072C11.7372 76.8902 11.9422 75.6485 12.1728 74.3819C12.1985 74.2328 12.1985 74.1087 12.2241 73.9596C12.2241 73.91 12.2497 73.8603 12.2753 73.8106C12.3266 73.5623 12.3779 73.2891 12.4291 73.0407C12.6597 71.8735 12.8391 70.4082 12.9416 68.8436L21.0653 58.1147L25.2425 52.4771C26.6519 50.5896 28.0614 48.6773 29.394 46.7153C28.0102 48.6524 26.5751 50.5151 25.1143 52.3777L20.7065 57.9657L12.7623 68.024C9.61017 71.501 7.27814 73.5375 6.73997 73.9596C5.84304 74.6799 1.589 77.5359 0.256409 68.8187C-1.05056 60.2505 2.79345 41.5495 4.45919 38.3706ZM32.7767 31.4664C33.0586 31.5905 33.3662 31.7396 33.7249 31.9134L33.6993 31.7892C33.6993 31.7892 34.6731 29.6782 34.75 27.6417C34.8269 25.6052 33.5455 22.3021 33.4687 21.0604C33.3918 19.8186 36.3901 15.075 36.3901 15.075C36.3901 15.075 35.2882 16.3913 33.9043 18.85C33.3918 20.2656 32.828 21.3832 32.3155 21.9544C32.0336 22.5753 31.7773 23.1714 31.5467 23.7674C30.9316 26.4496 31.2135 30.771 32.7767 31.4664ZM26.4213 44.0579C26.6519 44.1076 26.857 44.1324 27.0876 44.1821C27.2926 44.2317 27.5489 44.2317 27.7795 44.2069C28.2664 44.1324 28.7021 43.9089 29.0352 43.6109C29.394 43.3128 29.6759 42.9651 29.9322 42.5926C30.1884 42.2201 30.3935 41.8227 30.5985 41.4253C30.701 41.2267 30.7779 41.028 30.8804 40.8293C30.9572 40.6306 31.0597 40.4071 31.111 40.2084L31.2135 39.8856L31.316 39.5627C31.3416 39.4634 31.3929 39.3392 31.3929 39.2398L31.4441 38.917C31.5979 38.0229 31.521 37.1288 31.3673 36.2596C31.2135 35.3904 31.0085 34.546 30.8291 33.7015C30.4447 32.0127 30.2653 30.2743 30.2653 28.5358C30.1884 29.405 30.1628 30.2743 30.2141 31.1683C30.2653 32.0376 30.3935 32.9068 30.5472 33.7761C30.701 34.6453 30.906 35.4897 31.0341 36.3341C31.1623 37.1785 31.2391 38.0477 31.0854 38.8921C30.9572 39.7117 30.6241 40.5313 30.2653 41.326C30.0859 41.7234 29.8809 42.0959 29.6503 42.4684C29.4196 42.8161 29.1634 43.1638 28.8302 43.4618C28.5227 43.735 28.1383 43.9586 27.7283 44.0331C27.5233 44.0579 27.3182 44.0579 27.0876 44.0331C26.857 44.0082 26.6519 43.9834 26.4213 43.9337C25.5244 43.8095 24.6531 43.6605 23.7561 43.5115C24.6531 43.6854 25.5244 43.884 26.4213 44.0579ZM7.9188 61.7903C8.3032 61.1943 9.78956 59.7042 11.5578 57.8663C11.5322 57.767 11.9166 57.5187 10.5327 58.9343C11.4553 58.065 12.3779 57.171 13.2492 56.252C14.1461 55.3331 14.9918 54.3894 15.8375 53.4208C16.6575 52.4522 17.4776 51.4588 18.1951 50.4157C18.5539 49.8942 18.887 49.3478 19.1946 48.7766C19.4765 48.2054 19.7327 47.6093 19.7584 46.914C19.784 44.4056 19.784 41.8972 19.784 39.364V38.8921V38.6686C19.784 38.5941 19.784 38.5444 19.8096 38.4699C19.8609 38.1967 19.989 37.8987 20.0915 37.6007C20.3221 37.0295 20.604 36.4583 20.8347 35.8622C21.3472 34.695 21.8085 33.5277 22.1929 32.3108C22.5773 31.0938 22.8592 29.8521 23.013 28.6103L23.1923 26.7228C23.218 26.4 23.2692 26.1019 23.2948 25.7791L23.423 24.8353C23.7561 22.3518 24.2687 19.8931 24.935 17.4592C25.6013 15.0254 26.3957 12.6412 27.267 10.2818C28.1383 7.92246 29.1121 5.58794 30.0347 3.22858C29.0609 5.5631 28.0614 7.87279 27.1389 10.2321C26.2163 12.5915 25.3962 14.9757 24.7043 17.3847C24.0124 19.8683 23.4999 22.3518 23.1155 24.8353C22.9361 26.0771 22.8079 27.3437 22.6798 28.5855C22.526 29.8272 22.2442 31.0442 21.8597 32.2363C21.4753 33.4284 21.0141 34.5956 20.5015 35.738C20.2453 36.3093 19.989 36.8805 19.7327 37.4765C19.6046 37.7745 19.5021 38.0726 19.4252 38.3954C19.3996 38.4699 19.3996 38.5693 19.3996 38.6686V38.8921V39.364C19.3996 41.8724 19.4252 44.3808 19.4252 46.8891C19.4252 47.4852 19.1689 48.0812 18.9127 48.6276C18.6308 49.1988 18.2976 49.7204 17.9645 50.2419C17.2726 51.285 16.4781 52.3032 15.6581 53.2718C15.1712 53.5202 11.4809 57.32 11.4297 57.1213C11.0709 55.954 10.584 54.8364 9.94332 52.8248C8.91825 49.5465 6.86811 47.4603 6.81686 47.3858C6.86811 47.4355 7.35501 47.9819 8.40571 50.1922C9.53329 52.5516 10.6352 57.6677 10.6352 57.6677C10.6352 57.6677 10.2252 58.214 8.99513 59.4806C7.76505 60.7472 4.22855 66.211 4.22855 66.211C4.22855 66.211 6.73997 63.5288 7.9188 61.7903Z" fill="#4D4F4F"/>
</svg>
