<svg width="46" height="181" viewBox="0 0 46 181" fill="none" xmlns="http://www.w3.org/2000/svg">
<path d="M41.5408 38.3706C41.5152 38.321 41.4895 38.2713 41.4639 38.2216C39.1575 34.7198 28.5737 32.3356 26.5491 31.4416C24.5246 30.5475 24.6784 23.6184 26.1135 21.9545C27.5742 20.2657 29.445 14.2307 29.445 9.58646C29.445 4.94225 23.2177 1.58948 19.8862 1.58948C18.7074 1.58948 17.1441 2.03651 15.6322 2.78157C14.5046 1.26662 13.4283 0.34771 12.5057 0.0496854C9.89177 -0.794717 3.66447 8.76689 3.02381 15.0751C2.38314 21.3833 0.563639 26.3006 0.127984 32.0625C-0.30767 37.8243 0.717399 41.177 1.58871 46.2434C2.46002 51.285 5.5096 63.4792 5.53523 63.5785C6.35528 67.0555 6.71406 70.3586 6.15027 73.0656C6.09901 73.314 6.04776 73.5872 5.99651 73.8355C5.94525 73.8852 5.91963 73.9348 5.91963 74.0094C5.894 74.2825 5.86837 74.5557 5.81712 74.8289C5.66336 75.6982 5.53523 76.5426 5.40709 77.3621C5.40709 77.387 5.40709 77.4118 5.40709 77.4366C4.48453 83.3474 3.43383 89.3079 3.48509 95.2933C3.51071 96.684 3.63885 98.0748 3.63885 99.4656C3.63885 100.856 3.89511 102.322 4.04887 103.712C4.20264 105.054 4.3564 106.395 4.58704 107.711C5.09957 110.542 5.53523 113.349 5.94525 116.18C6.15027 117.546 6.32965 118.912 6.45779 120.302C6.71406 123.258 6.50904 126.188 6.32965 129.169C6.22715 130.932 5.94525 132.72 5.91963 134.483C5.91963 136.992 5.99651 139.5 6.2784 141.984C6.35528 142.605 6.43216 143.225 6.53467 143.822C7.12408 147.845 8.37979 151.595 9.81489 155.37C9.9174 155.618 9.99428 155.867 10.0712 156.115C10.3018 157.034 10.6862 157.928 10.9425 158.872C11.045 159.195 11.0962 159.542 11.1731 159.89C11.25 160.213 11.3012 160.536 11.3781 160.859C11.5063 161.579 11.66 162.249 11.7369 162.97C11.7881 163.417 11.8394 163.864 11.865 164.311C11.8907 164.46 11.8907 164.634 11.9163 164.807C12.0188 165.875 12.0957 166.943 12.1469 167.986C12.1469 168.235 12.1469 168.483 12.1213 168.707C12.0188 170.197 11.7625 171.488 11.25 172.904C11.0193 173.574 10.7631 174.22 10.5324 174.866C10.2762 175.586 9.99428 176.256 9.76364 176.977C9.55862 177.498 9.45612 178.094 9.6355 178.666C9.68676 178.839 9.76364 178.988 9.81489 179.187C9.86614 179.336 9.86614 179.485 9.9174 179.634C10.0199 179.808 10.2249 179.932 10.4043 180.031C11.5831 180.652 12.9414 180.901 14.2996 180.975C16.8622 181.149 17.8617 178.939 18.2205 176.853C18.2973 176.48 18.3486 176.083 18.3486 175.71C18.3742 174.791 18.0411 173.872 18.2717 173.003C18.5792 171.885 18.8355 170.693 18.9124 169.551C18.938 169.005 18.8099 168.433 18.7074 167.887C18.4767 166.571 18.6305 165.155 18.6305 163.814C18.6305 162.398 18.6049 160.983 18.5024 159.567C18.2973 156.91 18.1948 154.252 18.2717 151.57C18.3742 148.366 18.8355 145.187 18.8355 141.984C18.8355 140.494 18.938 139.003 18.8099 137.513C18.7074 135.998 18.3742 134.533 18.118 133.018C17.9642 132.124 17.8104 131.23 17.6567 130.311C17.5029 129.318 17.3491 128.2 17.4773 127.207C17.7336 125.394 17.9642 123.655 18.2717 121.842C18.5792 120.004 18.8355 118.142 19.0661 116.304C19.1174 115.857 19.1686 115.41 19.2199 114.963C19.2712 114.541 19.3224 114.118 19.3224 113.696C19.4249 112.281 19.348 110.865 19.3737 109.449C19.3737 109.375 19.6812 102.694 19.7324 102.62C19.7837 102.694 20.0912 109.375 20.0912 109.425C20.0912 110.84 20.04 112.256 20.1425 113.671C20.1681 114.094 20.2193 114.516 20.245 114.938C20.2962 115.385 20.3475 115.832 20.3987 116.279C20.6294 118.142 20.86 119.98 21.1932 121.817C21.5007 123.606 21.757 125.369 21.9876 127.182C22.1157 128.175 21.962 129.318 21.8082 130.286C21.6801 131.205 21.5263 132.074 21.3469 132.993C21.0907 134.483 20.7831 135.974 20.655 137.488C20.5525 138.979 20.6294 140.469 20.6294 141.959C20.6294 145.163 21.1163 148.342 21.1932 151.545C21.27 154.203 21.1932 156.885 20.9625 159.542C20.86 160.958 20.8344 162.374 20.8344 163.789C20.8344 165.13 20.9881 166.521 20.7575 167.862C20.655 168.409 20.5269 168.98 20.5525 169.526C20.6294 170.669 20.86 171.885 21.1932 172.978C21.4494 173.872 21.0907 174.766 21.1163 175.685C21.1163 176.083 21.1932 176.455 21.2444 176.828C21.6288 178.914 22.6026 181.099 25.1653 180.95C26.4979 180.851 27.8561 180.628 29.0606 180.007C29.24 179.907 29.445 179.783 29.5475 179.609C29.6244 179.485 29.65 179.311 29.65 179.162C29.7012 178.988 29.7525 178.815 29.8294 178.666C29.9831 178.119 29.8806 177.523 29.7012 176.977C29.445 176.256 29.1631 175.586 28.9324 174.866C28.7018 174.195 28.4455 173.549 28.2149 172.904C27.7024 171.513 27.4461 170.197 27.3436 168.707C27.318 168.458 27.318 168.21 27.318 167.986C27.3692 166.894 27.4461 165.85 27.5486 164.807C27.5742 164.658 27.5742 164.485 27.5998 164.311C27.6255 163.864 27.6767 163.417 27.728 162.97C27.8305 162.249 27.9586 161.554 28.0868 160.859C28.1636 160.536 28.2149 160.213 28.2918 159.89C28.3686 159.567 28.4199 159.219 28.5224 158.872C28.753 157.953 29.1374 157.059 29.3937 156.115C29.4706 155.842 29.5475 155.618 29.65 155.37C31.0851 151.595 32.3664 147.82 32.9302 143.822C33.0327 143.201 33.084 142.58 33.1608 141.984C33.4684 139.5 33.5196 136.992 33.5196 134.483C33.5196 132.72 33.2121 130.932 33.1096 129.169C32.9302 126.213 32.7252 123.283 32.9815 120.302C33.084 118.937 33.289 117.546 33.494 116.18C33.904 113.349 35.2622 105.054 35.416 103.688C35.5698 102.297 35.826 100.856 35.826 99.4408C35.826 98.05 35.9542 96.6592 35.9798 95.2684C36.031 89.5314 35.2879 83.7945 34.4166 78.1072C34.2628 76.8903 34.0578 75.6485 33.8271 74.3819C33.8015 74.2329 33.8015 74.1087 33.7759 73.9597C33.7759 73.91 33.7503 73.8603 33.7246 73.8107C33.6734 73.5623 33.6221 73.2891 33.5709 73.0408C33.3402 71.8735 33.1608 70.4082 33.0583 68.8436L24.9347 58.1147L20.7575 52.4771C19.348 50.5896 17.9386 48.6773 16.606 46.7153C17.9898 48.6525 19.4249 50.5151 20.8856 52.3778L25.2934 57.9657L33.2377 68.024C36.3898 71.501 38.7218 73.5375 39.26 73.9597C40.1569 74.6799 44.411 77.536 45.7436 68.8188C47.0505 60.2506 43.2065 41.5496 41.5408 38.3706ZM13.2232 31.4664C12.9414 31.5906 12.6338 31.7396 12.2751 31.9134L12.3007 31.7893C12.3007 31.7893 11.3269 29.6783 11.25 27.6418C11.1731 25.6053 12.4544 22.3022 12.5313 21.0604C12.6082 19.8186 9.60988 15.0751 9.60988 15.0751C9.60988 15.0751 10.7118 16.3913 12.0957 18.85C12.6082 20.2657 13.172 21.3833 13.6845 21.9545C13.9664 22.5753 14.2227 23.1714 14.4533 23.7674C15.0684 26.4497 14.7865 30.771 13.2232 31.4664ZM19.5787 44.0579C19.348 44.1076 19.143 44.1324 18.9124 44.1821C18.7074 44.2318 18.4511 44.2318 18.2205 44.2069C17.7336 44.1324 17.2979 43.9089 16.9647 43.6109C16.606 43.3129 16.3241 42.9652 16.0678 42.5926C15.8115 42.2201 15.6065 41.8227 15.4015 41.4254C15.299 41.2267 15.2221 41.028 15.1196 40.8293C15.0427 40.6306 14.9402 40.4071 14.889 40.2084L14.7865 39.8856L14.684 39.5627C14.6583 39.4634 14.6071 39.3392 14.6071 39.2399L14.5558 38.917C14.4021 38.0229 14.479 37.1289 14.6327 36.2596C14.7865 35.3904 14.9915 34.546 15.1709 33.7016C15.5553 32.0128 15.7347 30.2743 15.7347 28.5358C15.8115 29.4051 15.8372 30.2743 15.7859 31.1684C15.7347 32.0376 15.6065 32.9069 15.4528 33.7761C15.299 34.6453 15.094 35.4897 14.9659 36.3341C14.8377 37.1785 14.7609 38.0478 14.9146 38.8922C15.0427 39.7117 15.3759 40.5313 15.7347 41.326C15.9141 41.7234 16.1191 42.0959 16.3497 42.4685C16.5803 42.8162 16.8366 43.1638 17.1698 43.4619C17.4773 43.7351 17.8617 43.9586 18.2717 44.0331C18.4767 44.0579 18.6817 44.0579 18.9124 44.0331C19.143 44.0083 19.348 43.9834 19.5787 43.9337C20.4756 43.8096 21.3469 43.6606 22.2439 43.5115C21.3469 43.6854 20.4756 43.8841 19.5787 44.0579ZM38.0812 61.7904C37.6968 61.1943 36.2104 59.7042 34.4422 57.8664C34.4678 57.767 34.0834 57.5187 35.4673 58.9343C34.5447 58.0651 33.6221 57.171 32.7508 56.2521C31.8539 55.3332 31.0082 54.3894 30.1625 53.4209C29.3425 52.4523 28.5224 51.4589 27.8049 50.4158C27.4461 49.8942 27.1129 49.3479 26.8054 48.7766C26.5235 48.2054 26.2673 47.6094 26.2416 46.914C26.216 44.4056 26.216 41.8972 26.216 39.364V38.8922V38.6687C26.216 38.5941 26.216 38.5445 26.1904 38.47C26.1391 38.1968 26.011 37.8988 25.9085 37.6007C25.6778 37.0295 25.3959 36.4583 25.1653 35.8623C24.6528 34.695 24.1915 33.5277 23.8071 32.3108C23.4227 31.0939 23.1408 29.8521 22.987 28.6103L22.8076 26.7229C22.782 26.4 22.7308 26.102 22.7051 25.7791L22.577 24.8354C22.2439 22.3518 21.7313 19.8931 21.065 17.4593C20.3987 15.0254 19.6043 12.6412 18.733 10.2818C17.8617 7.92249 16.8879 5.58797 15.9653 3.22861C16.9391 5.56313 17.9386 7.87282 18.8611 10.2322C19.7837 12.5915 20.6037 14.9757 21.2957 17.3848C21.9876 19.8683 22.5001 22.3518 22.8845 24.8354C23.0639 26.0771 23.192 27.3437 23.3202 28.5855C23.4739 29.8273 23.7558 31.0442 24.1402 32.2363C24.5246 33.4284 24.9859 34.5957 25.4985 35.7381C25.7547 36.3093 26.011 36.8805 26.2673 37.4766C26.3954 37.7746 26.4979 38.0726 26.5748 38.3955C26.6004 38.47 26.6004 38.5693 26.6004 38.6687V38.8922V39.364C26.6004 41.8724 26.5748 44.3808 26.5748 46.8892C26.5748 47.4852 26.831 48.0812 27.0873 48.6276C27.3692 49.1988 27.7024 49.7204 28.0355 50.2419C28.7274 51.285 29.5219 52.3033 30.3419 53.2718C30.8288 53.5202 34.5191 57.32 34.5703 57.1213C34.9291 55.9541 35.416 54.8365 36.0567 52.8248C37.0817 49.5465 39.1319 47.4604 39.1831 47.3859C39.1319 47.4355 38.645 47.9819 37.5943 50.1923C36.4667 52.5516 35.3647 57.6677 35.3647 57.6677C35.3647 57.6677 35.7748 58.2141 37.0049 59.4807C38.2349 60.7473 41.7714 66.2111 41.7714 66.2111C41.7714 66.2111 39.26 63.5288 38.0812 61.7904Z" fill="#4D4F4F"/>
</svg>
