<svg width="79" height="165" viewBox="0 0 79 165" fill="none" xmlns="http://www.w3.org/2000/svg">
<g clip-path="url(#clip0)">
<path d="M65.5242 1.58331C47.5577 -5.1963 29.3269 10.1239 17.2611 31.2551C5.28342 52.4745 3.52199 64.0086 2.289 71.0524C1.93671 73.3416 1.93671 75.2786 2.20092 77.0396C1.93671 80.5614 3.43392 86.9008 5.28342 93.6804C5.10728 95.0011 4.49078 96.4979 3.16971 99.5796C0.263354 106.623 -1.85036 111.378 2.289 119.302C3.96235 122.472 7.83749 124.497 12.3291 125.289C13.6502 130.308 16.1162 136.207 18.4941 142.723C19.7271 146.156 19.9033 150.03 21.3124 153.728C22.9858 158.131 26.1563 161.036 28.4462 161.565C27.3013 162.269 26.7728 162.885 27.037 163.59C27.6535 165.439 39.5432 165.087 49.9356 163.854C53.9869 163.414 57.5097 164.206 59.095 164.206C64.3793 164.206 63.5867 157.074 62.794 152.408C61.2087 143.779 64.4674 132.069 67.6379 119.478C70.8966 106.799 68.5187 101.869 67.0214 90.3346C65.5242 78.8885 65.8765 73.2535 74.6836 45.0785C83.4908 16.9035 78.1184 6.33785 65.5242 1.58331ZM48.6145 143.163C46.5889 149.59 44.6513 151.439 42.1853 153.728C38.5744 157.074 34.1708 158.923 31.0883 160.332C31.1764 160.068 31.1764 159.892 31.1764 159.628C31.1764 155.049 29.3269 152.32 27.3893 145.54C25.8921 140.345 26.5086 136.031 26.5086 130.748C26.5086 130.22 26.5086 129.692 26.5086 129.075C25.9802 125.201 25.4518 121.327 24.7472 117.541C23.8665 112.346 22.8096 107.064 21.4005 101.957C21.0482 100.724 20.6959 99.4035 20.2556 98.1708L19.0226 94.3848C18.2299 91.8314 17.7896 89.19 17.7896 86.4606C17.7896 83.8192 18.4061 81.1778 19.2868 78.6244C20.1675 76.071 21.3124 73.6938 22.5454 71.3165C21.3124 73.6938 20.1675 76.071 19.3748 78.6244C18.5822 81.1778 18.0538 83.7311 18.0538 86.4606C18.0538 89.102 18.5822 91.7434 19.3748 94.2087L20.6959 97.9947C21.1363 99.2274 21.4886 100.548 21.8408 101.781C23.25 106.887 24.3949 112.082 25.3637 117.365C25.716 119.478 26.1563 121.679 26.5086 123.792C28.27 122.912 29.8553 121.855 31.0003 120.447C36.901 112.787 36.5488 95.7055 34.7873 94.4728C33.0259 93.3282 26.8609 94.9131 27.1251 90.4227C27.3893 86.0203 34.435 80.4734 36.4607 75.2786C38.4863 70.0838 37.6937 66.1217 42.4495 53.3549C44.1229 48.7765 46.5889 38.3869 46.8531 33.1041C47.1173 27.8213 47.1173 44.0219 45.9724 52.4744C44.8275 61.015 45.3559 68.6751 45.0917 75.983C44.8275 83.3789 46.2366 88.6618 48.8787 95.3533C51.4328 102.221 50.6402 136.647 48.6145 143.163Z" fill="#4D4F4F"/>
</g>
<defs>
<clipPath id="clip0">
<rect width="79" height="165" fill="white"/>
</clipPath>
</defs>
</svg>
