<svg width="88" height="214" viewBox="0 0 88 214" fill="none" xmlns="http://www.w3.org/2000/svg">
<path d="M86.753 11.4528L76.5992 7.79023C77.0148 6.39496 76.3617 6.51123 74.8772 7.15073L72.8583 6.39496C73.5115 4.41832 72.7395 4.709 70.78 5.63919L55.3414 0.0580945C54.807 -0.116315 54.1538 0.0580945 53.8569 0.581322C53.5007 1.16269 53.7976 1.97659 54.4507 2.20914L67.0391 7.32514C62.3482 9.24364 60.5668 10.5226 58.3698 15.1736C56.054 19.9407 46.969 24.8823 43.9406 31.1029C42.1592 34.7655 38.4184 38.1374 34.9744 41.4512C35.1525 36.1608 33.0148 28.7775 22.6235 29.417C8.49123 30.2309 9.1444 48.8345 9.4413 53.6017C9.73819 58.3689 19.8327 52.4971 19.8327 58.5433C19.8327 64.5895 12.8259 66.508 7.77868 75.1121C2.73145 83.7163 7.95682 94.8204 8.72875 104.413C9.56006 113.947 11.7571 115.284 12.8853 125.342C13.0041 126.388 12.4103 128.772 11.8758 133.539C11.1039 140.923 12.1727 151.91 11.9946 155.34C11.8165 160.224 13.9541 163.712 15.7355 168.13C17.5169 172.607 16.9825 195.338 15.6167 199.64C14.251 203.942 11.7571 205.105 10.0945 206.617C5.64103 210.628 -0.712548 211.442 -0.118755 213.186C0.296899 214.407 8.31309 214.174 15.3198 213.36C18.0513 213.07 20.4265 213.593 21.4953 213.593C25.058 213.593 24.5236 208.884 23.9892 205.803C22.9204 200.105 25.1174 192.373 27.2551 184.06C29.4521 175.688 27.8489 172.432 26.8394 164.817C25.83 157.259 26.0675 153.538 32.0054 134.934C32.0054 134.934 34.8556 126.563 34.8556 121.738C34.8556 112.843 30.6397 109.18 28.027 102.146C26.6019 98.3086 30.4022 88.0766 31.471 82.6699C33.668 78.5422 33.4899 73.5425 34.8556 68.3102C36.8745 61.0431 38.6559 57.0899 47.5034 46.916C56.3509 36.7421 58.6073 27.3822 63.1795 21.1616C67.0985 15.8131 72.5614 13.7783 75.1147 10.6389L85.3873 14.8247C86.0999 15.1154 86.9312 14.941 87.4656 14.3596C88.4157 13.4876 88.0594 11.9179 86.753 11.4528ZM70.78 9.06923C65.9703 11.0459 64.1889 12.2667 61.9325 16.9758C59.6761 21.6848 50.5317 26.6264 47.5034 32.847C45.0094 37.9049 38.7746 42.3814 34.7962 47.0904C31.7085 51.7413 28.3833 56.276 25.3549 60.985C24.5236 62.264 23.7517 63.543 23.0391 64.822C22.3266 66.1591 21.8516 67.5544 21.3171 68.9497C20.2483 71.7402 19.1795 74.5308 18.17 77.3795C19.1201 74.5308 20.1296 71.7402 21.139 68.8916C21.6734 67.4963 22.0891 66.0429 22.8016 64.7057C23.5142 63.3686 24.2861 62.0896 25.058 60.8106C27.6113 56.6829 30.4022 52.7296 33.0742 48.7182C33.4305 47.6718 33.8462 46.6835 34.1431 45.9858C34.2618 45.6951 34.3806 45.3463 34.4993 44.9394C38.4184 40.8117 43.525 36.8003 45.722 32.3238C48.7503 26.1613 57.8354 21.1616 60.1511 16.4526C62.4076 11.7435 64.1889 10.5226 68.9986 8.546C69.1174 8.48787 69.2362 8.42973 69.3549 8.37159L70.9582 9.0111C70.8988 9.0111 70.8394 9.06923 70.78 9.06923Z" fill="#4D4F4F"/>
</svg>
