<svg width="220" height="43" viewBox="0 0 220 43" fill="none" xmlns="http://www.w3.org/2000/svg">
<line x1="126.5" y1="-2.18557e-08" x2="126.5" y2="43" stroke="#D8D8D8"/>
<path d="M202.389 35.6503V27.1959C202.389 26.2752 202.499 24.8473 204.293 24.8473H206.417C208.211 24.8473 208.32 26.2752 208.32 27.1959V35.6508C208.32 36.5715 208.211 37.9994 206.417 37.9994L204.293 38C202.499 38 202.389 36.5715 202.389 35.6503ZM166.785 37.9994V24.8473H171.672V26.4782H169.347V37.9994H166.785ZM171.732 37.9994L173.069 24.8473H177.096L178.432 37.9994H175.924L175.687 34.5045H174.478L174.24 37.9994H171.732ZM179.538 35.6503V33.3953H182.101V35.8724C182.101 36.2104 182.357 36.3046 182.504 36.3046C182.742 36.3046 182.906 36.0981 182.906 35.8724V32.8131C182.906 32.4002 182.833 31.9494 181.881 31.9494H180.838V30.5024H181.918C182.65 30.5024 182.906 30.3331 182.906 29.5258V26.9103C182.906 26.6846 182.742 26.4787 182.504 26.4787C182.357 26.4787 182.101 26.5724 182.101 26.9103V29.0553H179.538V27.1959C179.538 26.2752 179.648 24.8473 181.442 24.8473H183.566C185.361 24.8473 185.471 26.2752 185.471 27.1959V29.3007C185.471 30.728 184.501 31.1224 183.732 31.0851V31.2166C185.452 31.1788 185.471 32.5316 185.471 33.0016V35.6503C185.471 36.5715 185.361 37.9994 183.566 37.9994H181.442C179.648 37.9994 179.538 36.5715 179.538 35.6503ZM187.156 37.9994V24.8473H193.088V37.9994H190.526V26.4782H189.719V37.9994H187.156ZM194.773 37.9994V24.8473H198.801C200.595 24.8473 200.705 26.2752 200.705 27.1959L200.704 31.1788C200.704 32.0995 200.595 33.5268 198.801 33.5268H197.336V37.9994H194.773ZM210.005 37.9994V24.8473H213.337L215.003 34.0915L216.669 24.8473H220V37.9994H217.438V29.7509H217.346L216.028 37.9994H213.978L212.66 29.7509H212.568V37.9994H210.005ZM143 24.8432C143 17.5899 148.732 11.7056 155.805 11.7056V21.5838C153.965 21.5838 152.125 22.3033 150.72 23.744C150.386 24.0865 150.093 24.4559 149.839 24.8432C147.953 27.7135 148.246 31.6423 150.72 34.1823C152.125 35.6229 153.965 36.3436 155.805 36.3436C157.637 36.3436 159.47 35.6287 160.872 34.1997C160.879 34.1921 160.886 34.1869 160.893 34.1799C160.9 34.1735 160.906 34.1677 160.912 34.1619C162.317 32.7189 162.317 30.3791 160.912 28.9361C159.506 27.4931 157.226 27.4931 155.82 28.9361C155.815 28.9419 155.81 28.9471 155.805 28.9529V24.8432H165.151V33.8263C162.814 36.3854 159.493 37.9855 155.805 37.9855C148.732 37.9855 143 32.1012 143 24.8432ZM205.758 35.8724V26.9103C205.758 26.6852 205.593 26.4782 205.355 26.4782C205.209 26.4782 204.952 26.5718 204.952 26.9103V35.8724C204.952 36.2104 205.209 36.3046 205.355 36.3046C205.593 36.3046 205.758 36.0987 205.758 35.8724ZM175.595 33.058L175.155 26.4782H175.009L174.569 33.058H175.595ZM198.142 31.4231V27.136C198.142 26.7224 197.94 26.4782 197.666 26.4782H197.336V32.0809H197.666C197.94 32.0809 198.142 31.8366 198.142 31.4231ZM158.373 20.1926C158.373 20.1926 157.246 17.384 156.947 14.6469C156.647 11.9104 156.775 9.13082 157.646 5.99939C158.443 3.18959 160.012 0.65781 160.44 0C160.712 0.468201 162.678 3.33616 163.463 6.86193C164.246 10.3889 164.232 12.5542 163.89 15.0273C163.277 19.4766 161.309 22.8803 160.453 24.022C159.869 23.2455 158.971 21.667 158.373 20.1926ZM161.465 18.5978C161.381 16.4325 160.669 14.8516 160.453 14.4718C160.212 14.8516 159.384 16.6668 159.399 18.788C159.456 20.9801 160.054 22.3981 160.44 23.1437C160.839 22.3836 161.524 20.7172 161.465 18.5978ZM158.458 11.3101C158.899 9.29135 159.741 6.96429 160.425 5.77896C161.167 7.02362 162.094 9.71534 162.422 11.3253C162.75 12.9352 162.921 14.9988 162.849 16.4615C163.049 15.6124 163.205 14.1932 163.234 12.8479C163.262 11.5009 163.133 9.21806 162.494 6.83401C161.851 4.44822 160.61 2.18048 160.425 1.88735C160.241 2.18048 159.256 4.02305 158.387 6.90613C158.158 7.76925 157.743 9.64497 157.674 11.4718C157.59 13.6872 157.885 15.8886 158.002 16.5057C158.002 15.7741 158.015 13.3301 158.458 11.3101Z" fill="#007CBC"/>
<g clip-path="url(#clip0)">
<path d="M39.652 17.8589L35.8347 14.1775L39.3916 9.94219H37.4322L33.8507 14.2048L33.6692 14.2277V9.94219H30.0559C30.0164 9.94219 29.9769 9.95779 29.9473 9.989C29.8881 10.0475 29.8876 10.1434 29.9446 10.2058C29.9544 10.2136 29.9627 10.2219 29.9725 10.2303C30.336 10.5563 30.6249 10.9631 30.8223 11.4207V19.2354H33.6692V15.4425L37.6175 19.2354H39.652C40.5247 19.2354 40.2797 18.4964 39.652 17.8589ZM45.0925 9.82628C42.1338 9.82628 39.7347 11.959 39.7347 14.5888C39.7347 17.2191 42.1338 19.3513 45.0925 19.3513C48.0518 19.3513 50.4503 17.2191 50.4503 14.5888C50.4503 11.959 48.0518 9.82628 45.0925 9.82628ZM45.0925 17.7045C43.7066 17.7045 42.5828 16.3091 42.5828 14.5888C42.5828 12.8679 43.7066 11.4725 45.0925 11.4725C46.479 11.4725 47.6017 12.8679 47.6017 14.5888C47.6017 16.3091 46.479 17.7045 45.0925 17.7045ZM71.4961 9.94219H67.2791C67.2397 9.94219 67.1996 9.95779 67.1695 9.989C67.1119 10.0475 67.1103 10.1434 67.1684 10.2058C67.1777 10.2136 67.1854 10.2219 67.1953 10.2303C67.4579 10.466 67.6804 10.7447 67.8592 11.054L64.3577 19.2354H65.2995C66.317 19.2354 66.5802 18.6218 66.7972 18.1141L67.2281 17.1071H71.5547L72.4818 19.2354H73.9702C74.8051 19.2354 75.3325 18.7405 74.8896 17.7246L71.4961 9.94219ZM67.8751 15.5958L69.3712 12.1005L70.8958 15.5958H67.8751ZM108.842 17.7246L105.449 9.94219H101.232C101.192 9.94219 101.152 9.95779 101.122 9.989C101.063 10.0475 101.063 10.1434 101.121 10.2058C101.13 10.2136 101.138 10.2219 101.148 10.2303C101.41 10.466 101.633 10.7447 101.812 11.054L98.3102 19.2354H99.2526C100.267 19.2354 100.531 18.6252 100.748 18.1186L101.181 17.1071H105.506L106.435 19.2354H107.923C108.758 19.2354 109.285 18.7405 108.842 17.7246ZM101.828 15.5958L103.324 12.1005L104.848 15.5958H101.828ZM82.7188 13.8331H78.9914V9.94219H75.3797C75.3397 9.94219 75.2991 9.95779 75.27 9.989C75.2114 10.0475 75.2103 10.1434 75.2678 10.2058C75.2777 10.2136 75.2848 10.2219 75.2953 10.2303C75.6582 10.5563 75.9487 10.9631 76.145 11.4207V19.2354H78.9914V15.3439H82.7188V19.2354H85.5651V9.94219H82.7188V13.8331ZM96.557 9.94219H87.974C87.934 9.94219 87.8945 9.95779 87.8644 9.989C87.8057 10.0475 87.8046 10.1434 87.8616 10.2058C87.8726 10.2136 87.8797 10.2219 87.8896 10.2303C88.2525 10.5563 88.5431 10.9631 88.7393 11.4207V15.4576C88.7393 16.7098 87.8205 17.7246 86.5887 17.7246V20.5623H88.6456L88.821 19.2354H95.6272L95.8032 20.5623H97.8596V17.7246H96.557V9.94219ZM93.7101 17.7246H90.009C90.4454 17.0681 90.6971 16.2907 90.6971 15.4576H90.7086V11.4535H93.7101V17.7246ZM60.3211 9.94219L57.7082 16.7204L55.0395 9.94219H50.7332C50.6932 9.94219 50.6532 9.95779 50.6236 9.989C50.5654 10.0475 50.5638 10.1434 50.6208 10.2058C50.6318 10.2136 50.6389 10.2219 50.6488 10.2303C51.0117 10.5563 51.3023 10.9637 51.4991 11.4212V18.8102V19.2376L52.4053 19.237C53.1021 19.237 53.4683 18.6474 53.4683 18.1871V12.8986L55.9907 19.237H57.5986C58.2724 19.237 58.7893 19.0002 59.0744 18.2618L60.7953 13.5244V19.237H62.6165C63.4059 19.237 63.6428 18.658 63.6428 17.9553V9.94219H60.3211Z" fill="#1152A4"/>
<path d="M90.2315 22.1778L86.5277 28.2828V22.1778H82.9149C82.876 22.1778 82.8354 22.1945 82.8064 22.2246C82.7472 22.2842 82.7461 22.3795 82.8042 22.4419C82.814 22.4497 82.8212 22.4576 82.8316 22.4659C83.1945 22.7925 83.4845 23.1993 83.6813 23.6563V31.471H86.5551L90.2551 25.371V31.471H93.1015V22.1778H90.2315ZM36.9064 22.1778H30.0377C29.9976 22.1778 29.9582 22.1945 29.928 22.2246C29.8694 22.2842 29.8688 22.3795 29.9258 22.4419C29.9362 22.4497 29.9428 22.4576 29.9532 22.4659C30.3162 22.7925 30.6067 23.1993 30.803 23.6563V31.471H32.6236C33.4131 31.471 33.6494 30.8925 33.6494 30.1887V28.46H36.9064V28.4628C38.6135 28.4628 39.9978 27.0557 39.9978 25.3203C39.9978 23.5849 38.6135 22.1778 36.9064 22.1778ZM35.4958 26.9459L33.6494 26.9475V23.6897H35.4958C36.3795 23.6897 37.0971 24.4181 37.0971 25.3164C37.0971 26.2153 36.3795 26.9459 35.4958 26.9459ZM57.4708 23.7098C58.2953 23.5955 59.5151 23.8491 60.6691 24.6003L61.4832 23.3676C60.026 22.3985 58.6319 22.063 57.2356 22.063C54.4522 22.063 51.8767 24.1946 51.8767 26.8255C51.8767 29.4564 54.4522 31.588 57.2356 31.588C58.6319 31.588 60.026 31.2525 61.4832 30.284L61.2689 29.9602C60.8966 29.3929 60.2853 29.3745 59.6428 29.5874C59.5447 29.6275 59.4471 29.6648 59.3501 29.6977C59.349 29.6983 59.3479 29.6994 59.3468 29.6994C58.6434 29.9413 57.9806 30.012 57.4708 29.9418C55.8458 29.7183 54.7258 28.5475 54.7258 26.8255C54.7258 25.1035 55.8458 23.9332 57.4708 23.7098ZM67.1897 23.7098C68.0136 23.5955 69.2335 23.8491 70.3869 24.6003L71.201 23.3676C69.7444 22.3985 68.3508 22.063 66.9539 22.063C64.1706 22.063 61.5956 24.1946 61.5956 26.8255C61.5956 29.4564 64.1706 31.588 66.9539 31.588C68.3508 31.588 69.7444 31.2525 71.201 30.284L70.9872 29.9602C70.6155 29.3929 70.0037 29.3745 69.3612 29.5874C69.2631 29.6275 69.1649 29.6648 69.0684 29.6977C69.0673 29.6983 69.0662 29.6994 69.0651 29.6994C68.3618 29.9413 67.699 30.012 67.1897 29.9418C65.5642 29.7183 64.4436 28.5475 64.4436 26.8255C64.4436 25.1035 65.5642 23.9332 67.1897 23.7098ZM45.832 22.0619C42.8727 22.0619 40.4737 24.1946 40.4737 26.8244C40.4737 29.4547 42.8727 31.5875 45.832 31.5875C48.7913 31.5875 51.1903 29.4547 51.1903 26.8244C51.1903 24.1946 48.7913 22.0619 45.832 22.0619ZM45.832 29.9413C44.4466 29.9413 43.3228 28.5464 43.3228 26.8244C43.3228 25.1035 44.4466 23.7086 45.832 23.7086C47.2184 23.7086 48.3412 25.1035 48.3412 26.8244C48.3412 28.5464 47.2184 29.9413 45.832 29.9413ZM75.2469 28.2828V22.1778H71.6347C71.5941 22.1778 71.5546 22.1945 71.525 22.2246C71.4664 22.2842 71.4658 22.3795 71.5228 22.4419C71.5327 22.4497 71.5398 22.4576 71.5508 22.4659C71.9132 22.7925 72.2032 23.1993 72.4 23.6563V31.471H75.2738L78.9732 25.371V31.471H81.8207V22.1778H78.9502L75.2469 28.2828Z" fill="#1152A4"/>
<path d="M3.81399 26.8472L3.97078 26.7012L3.99436 26.5903V26.5842L3.99765 26.5736V26.563L3.996 26.5329L3.99162 26.5028H3.98997L3.99162 26.5L3.97407 26.077L4.03054 25.2356L4.104 24.8182L4.20378 24.3684L4.50914 23.4941L4.94223 22.6632L5.50252 21.8908L5.83529 21.5336L6.02881 21.3441L6.4345 20.9952L6.64447 20.8375L9.15862 18.8073L13.3235 15.4436L13.5329 15.2669L13.9029 14.8813L14.216 14.46L14.4731 14.0092L14.6748 13.5333L14.8223 13.0373L14.9166 12.5257L14.9583 12.0035L14.949 11.4763L14.8887 10.948L14.7796 10.4247L14.6217 9.91038L14.4161 9.40994L14.1645 8.92901L13.8668 8.47204L13.5247 8.0435L13.3355 7.84344L11.6081 6.08745L11.5653 6.049L11.4595 6.00385L11.4003 5.99996L11.3427 6.00385L11.2402 6.04733L11.1618 6.12479L11.1158 6.22955L11.1097 6.28918L11.113 6.32374L11.1158 6.35829L11.1361 6.74615L11.1366 7.45724L11.0796 8.10591L10.9546 8.71L10.7512 9.28567L10.4596 9.84964L10.0692 10.4186L9.56869 11.0105L9.26936 11.3214L9.07584 11.5142L8.66851 11.8625L8.45635 12.018V12.0208L5.96796 14.0309L1.78063 17.4119L1.56682 17.5914L1.18142 17.9809L0.847554 18.4044L0.566863 18.8558L0.340447 19.3312L0.169949 19.826L0.0570152 20.3348L0.00274112 20.8531L0 21.1145L0.00822335 21.3708L0.0789442 21.8919L0.20997 22.4163L0.396914 22.9362L0.633746 23.4445L0.914985 23.9343L1.23624 24.398L1.59094 24.8287L1.78063 25.0271L3.51137 26.7865L3.5958 26.8478L3.7038 26.8617L3.81399 26.8472Z" fill="url(#paint0_linear)"/>
<path d="M3.81399 26.8472L3.97078 26.7012L3.99436 26.5903V26.5842L3.99765 26.5736V26.563L3.996 26.5329L3.99162 26.5028H3.98997L3.99162 26.5L3.97407 26.077L4.03054 25.2356L4.104 24.8182L4.20378 24.3684L4.50914 23.4941L4.94223 22.6632L5.50252 21.8908L5.83529 21.5336L6.02881 21.3441L6.4345 20.9952L6.64447 20.8375L9.15862 18.8073L13.3235 15.4436L13.5329 15.2669L13.9029 14.8813L14.216 14.46L14.4731 14.0092L14.6748 13.5333L14.8223 13.0373L14.9166 12.5257L14.9583 12.0035L14.949 11.4763L14.8887 10.948L14.7796 10.4247L14.6217 9.91038L14.4161 9.40994L14.1645 8.92901L13.8668 8.47204L13.5247 8.0435L13.3355 7.84344L11.6081 6.08745L11.5653 6.049L11.4595 6.00385L11.4003 5.99996L11.3427 6.00385L11.2402 6.04733L11.1618 6.12479L11.1158 6.22955L11.1097 6.28918L11.113 6.32374L11.1158 6.35829L11.1361 6.74615L11.1366 7.45724L11.0796 8.10591L10.9546 8.71L10.7512 9.28567L10.4596 9.84964L10.0692 10.4186L9.56869 11.0105L9.26936 11.3214L9.07584 11.5142L8.66851 11.8625L8.45635 12.018V12.0208L5.96796 14.0309L1.78063 17.4119L1.56682 17.5914L1.18142 17.9809L0.847554 18.4044L0.566863 18.8558L0.340447 19.3312L0.169949 19.826L0.0570152 20.3348L0.00274112 20.8531L0 21.1145L0.00822335 21.3708L0.0789442 21.8919L0.20997 22.4163L0.396914 22.9362L0.633746 23.4445L0.914985 23.9343L1.23624 24.398L1.59094 24.8287L1.78063 25.0271L3.48451 26.7592L3.51137 26.7859L3.5958 26.8478L3.7038 26.8617L3.81399 26.8472ZM2.10682 24.6956L1.92372 24.5038L1.58711 24.0926L1.28723 23.6551L1.02847 23.1987L0.813564 22.7306L0.646356 22.2586L0.530132 21.7893L0.468183 21.3313L0.461604 21.1095L0.463797 20.8698L0.513685 20.3973L0.6173 19.9364L0.772995 19.4917L0.978579 19.0654L1.23186 18.6624L1.53228 18.2857L1.87712 17.9385L2.06735 17.7792L8.74362 12.388L8.76226 12.3724L8.98319 12.208L9.40039 11.8475L9.59501 11.6536L9.90695 11.3287L10.4294 10.7101L10.8395 10.1166L11.1487 9.53589L11.3685 8.95465L11.5105 8.36115L11.5856 7.74257L11.6048 7.08665L11.596 6.73835L13.0082 8.1739L13.1941 8.37118L13.5291 8.79694L13.818 9.25614L14.0592 9.74264L14.25 10.2509L14.3881 10.7753L14.4726 11.3103L14.5 11.8497L14.4895 12.12L14.4731 12.3446L14.4057 12.7815L14.2982 13.1994L14.1513 13.5979L13.9671 13.9735L13.7456 14.324L13.4885 14.6478L13.1963 14.9421L13.0368 15.0764L6.36652 20.463L6.14504 20.6296L5.71578 20.9997L5.50855 21.2025L5.16098 21.5748L4.5667 22.3895L4.09797 23.2784L3.76191 24.2291L3.65172 24.7256L3.58867 25.0751L3.52124 25.7778L3.5174 26.1294L2.10682 24.6956Z" fill="#2159AB"/>
<path d="M11.0813 26.8662C9.91909 27.8041 9.44159 29.331 9.45639 30.7265C9.4679 32.0885 10.0583 33.4415 11.0813 34.4814L11.8286 35.2404L12.4744 35.8975L12.5012 35.9248C12.5517 35.9727 12.6196 36 12.6936 36C12.845 36 12.9721 35.8824 12.9842 35.7286C12.9842 35.7258 12.9842 35.7258 12.9842 35.7258C12.9869 35.7169 12.9869 35.708 12.9869 35.7019C12.9869 35.6807 12.9842 35.6623 12.9815 35.6417C12.9815 35.6417 12.9782 35.6417 12.9815 35.6383C12.9458 35.0749 12.9842 34.5115 13.0939 33.957C13.3312 32.7516 13.9091 31.6064 14.8251 30.6724C15.0801 30.4161 15.3531 30.1809 15.6349 29.9758C15.6349 29.9758 20.6621 25.916 22.3133 24.5819C24.5983 22.7368 24.3829 19.0855 22.3254 16.9817L20.9082 15.5412C20.8551 15.4871 20.781 15.4537 20.701 15.4537C20.5437 15.4537 20.4165 15.5807 20.4104 15.7435C20.4132 15.7674 20.4132 15.7886 20.4165 15.8126C20.5426 17.9185 20.2235 19.0949 18.5695 20.7757C18.3146 21.0382 18.0416 21.27 17.757 21.4717V21.4751C17.757 21.4751 12.7797 25.4947 11.0813 26.8662Z" fill="url(#paint1_linear)"/>
<path d="M8.30943 31.4164L8.46622 31.2704L8.48924 31.1595V31.1539L8.49199 31.1428V31.1328L8.49089 31.1021L8.4865 31.072H8.48486L8.4865 31.0692L8.46896 30.6468L8.52543 29.8048L8.59889 29.3874L8.69867 28.9376L9.00403 28.0633L9.43712 27.2324L9.99741 26.46L10.3302 26.1028L10.5237 25.9133L10.9294 25.5644L11.1399 25.4067L13.6535 23.3766L17.8184 20.0128L18.0278 19.8362L18.3978 19.4505L18.7114 19.0298L18.968 18.5784L19.1697 18.1025L19.3172 17.6065L19.4115 17.0949L19.4532 16.5727L19.4438 16.0456L19.3835 15.5178L19.2744 14.994L19.1166 14.4796L18.911 13.9792L18.6593 13.4982L18.3617 13.0413L18.0196 12.6127L17.8304 12.4126L16.4133 10.9721L16.3711 10.9342L16.2652 10.889L16.206 10.8851L16.1479 10.889L16.0454 10.932L15.967 11.01L15.9215 11.1142L15.9155 11.1744L15.9182 11.2089L15.9215 11.2435L15.9412 11.6313L15.9418 12.3419L15.8848 12.9911L15.7598 13.5952L15.5569 14.1703L15.2653 14.7343L14.8744 15.3038L14.3739 15.8951L14.0745 16.2066L13.881 16.3994L13.4742 16.7477L13.2621 16.9026V16.9054L10.7731 18.9155L6.58636 22.2971L6.37365 22.4777L6.00086 22.88L5.68892 23.3258L5.43509 23.8051L5.23828 24.31L5.09519 24.8322L5.00419 25.3633L4.96252 25.8943L4.96143 26.1574L4.968 26.4126L5.02557 26.9208L5.13521 27.4224L5.29475 27.915L5.50252 28.3937L5.75635 28.8557L6.05568 29.2971L6.39777 29.7145L6.58636 29.9123L8.00626 31.3557L8.09069 31.4175L8.19869 31.4309L8.30943 31.4164Z" fill="url(#paint2_linear)"/>
</g>
<defs>
<linearGradient id="paint0_linear" x1="-1.39029" y1="25.449" x2="16.813" y2="7.54037" gradientUnits="userSpaceOnUse">
<stop stop-color="#D9D9D9"/>
<stop offset="0.24" stop-color="white"/>
<stop offset="0.4" stop-color="white"/>
<stop offset="0.75" stop-color="#D9D9D9"/>
<stop offset="0.82" stop-color="#D9D9D9"/>
<stop offset="1" stop-color="white"/>
</linearGradient>
<linearGradient id="paint1_linear" x1="8.02662" y1="34.5483" x2="25.831" y2="17.0293" gradientUnits="userSpaceOnUse">
<stop stop-color="#E3402D"/>
<stop offset="0.18" stop-color="#E43E2C"/>
<stop offset="0.3" stop-color="#C43626"/>
<stop offset="0.65" stop-color="#A02C1F"/>
<stop offset="0.75" stop-color="#BE3525"/>
<stop offset="1" stop-color="#D73B29"/>
</linearGradient>
<linearGradient id="paint2_linear" x1="3.53221" y1="29.9792" x2="21.3355" y2="12.4602" gradientUnits="userSpaceOnUse">
<stop stop-color="#1152A4"/>
<stop offset="0.18" stop-color="#7186C8"/>
<stop offset="0.3" stop-color="#7186C8"/>
<stop offset="0.65" stop-color="#1152A4"/>
<stop offset="0.75" stop-color="#1152A4"/>
<stop offset="1" stop-color="#5B7CC0"/>
</linearGradient>
<clipPath id="clip0">
<rect width="109" height="30" fill="white" transform="translate(0 6)"/>
</clipPath>
</defs>
</svg>
